<svg id="レイヤー_1" data-name="レイヤー 1" xmlns="http://www.w3.org/2000/svg" viewBox="0 0 72 72"><title>file1</title><path d="M36.26,0a36,36,0,1,0,36,36A36,36,0,0,0,36.26,0Zm0,66a30,30,0,1,1,30-30A30,30,0,0,1,36.26,66Z"/><polygon points="53.17 19.93 48.92 15.69 36.26 28.35 23.6 15.69 19.36 19.93 33.38 33.96 33.38 34.48 21.89 34.48 21.89 40.48 33.38 40.48 33.38 44.48 21.89 44.48 21.89 50.48 33.38 50.48 33.38 59.55 39.38 59.55 39.38 50.48 50.87 50.48 50.87 44.48 39.38 44.48 39.38 40.48 50.87 40.48 50.87 34.48 39.38 34.48 39.38 33.72 53.17 19.93"/></svg>