<?xml version="1.0" encoding="utf-8"?>
<!-- Generator: Adobe Illustrator 19.2.1, SVG Export Plug-In . SVG Version: 6.00 Build 0)  -->
<!DOCTYPE svg PUBLIC "-//W3C//DTD SVG 1.1//EN" "http://www.w3.org/Graphics/SVG/1.1/DTD/svg11.dtd">
<svg version="1.1" id="レイヤー_1" xmlns="http://www.w3.org/2000/svg" xmlns:xlink="http://www.w3.org/1999/xlink" x="0px"
	 y="0px" width="72px" height="72px" viewBox="0 0 72 72" enable-background="new 0 0 72 72" xml:space="preserve">
<path fill="#030102" d="M16.4,52.1c0.5-0.5,0.5-1.2,0-1.6c-0.2-0.2-0.4-0.3-0.6-0.3L8,48.3c-0.2,0-0.4-0.1-0.6-0.3
	c-0.5-0.5-0.5-1.2,0-1.6l2.5-2.5c0.4-0.4,0.9-0.6,1.3-0.6l12.2,0c0.5,0,1-0.3,1.4-0.6l9.1-9.8c0.5-0.4,0.5-1.2,0-1.6
	c-0.1-0.1-0.2-0.2-0.3-0.2L0.8,20.4c-0.1-0.1-0.3-0.1-0.4-0.3C0,19.7,0,19,0.4,18.6l2.2-2.2C3,16,3.5,15.8,4,15.8l0.8,0l44.2,0
	c0.5,0,1-0.2,1.4-0.6l0.8-0.8l9.7-10.5c2-2,7.1-3.9,9.2-1.8l0,0c2,2,0.2,7.1-1.8,9.2l-10.5,9.7l-0.8,0.8c-0.4,0.4-0.6,0.9-0.6,1.4
	l0,45c0,0.5-0.2,1-0.6,1.4l-2.2,2.2c-0.5,0.5-1.2,0.5-1.6,0c-0.1-0.1-0.2-0.2-0.3-0.4L41,38.5c-0.1-0.1-0.1-0.2-0.2-0.3
	c-0.5-0.5-1.2-0.5-1.6,0l-9.8,9.1c-0.4,0.4-0.6,0.9-0.6,1.4l-0.1,12.3c0,0.5-0.2,1-0.6,1.3l-2.5,2.5c-0.5,0.5-1.2,0.5-1.6,0
	c-0.2-0.2-0.3-0.4-0.3-0.6L22,56.3c0-0.2-0.1-0.4-0.3-0.6c-0.5-0.4-1.2-0.5-1.6,0c0,0,0.2-0.2-0.9,0.9c-1.1,1.1-3.7,1.9-4.6,1
	c-1-1-0.1-3.6,0.9-4.6L16.4,52.1L16.4,52.1z"/>
</svg>
