<?xml version="1.0" encoding="utf-8"?>
<!-- Generator: Adobe Illustrator 19.2.1, SVG Export Plug-In . SVG Version: 6.00 Build 0)  -->
<!DOCTYPE svg PUBLIC "-//W3C//DTD SVG 1.1//EN" "http://www.w3.org/Graphics/SVG/1.1/DTD/svg11.dtd">
<svg version="1.1" id="レイヤー_1" xmlns="http://www.w3.org/2000/svg" xmlns:xlink="http://www.w3.org/1999/xlink" x="0px"
	 y="0px" width="72px" height="72px" viewBox="0 0 72 72" enable-background="new 0 0 72 72" xml:space="preserve">
<path d="M63.1,56.2c-4.3-1.9-10.8-6.9-20.4-8.6c2.4-2.6,4.3-6.7,6.2-11.6c1.1-2.8,0.9-5.2,0.9-8.6c0-2.5,0.5-6.6-0.2-8.8
	c-2.1-7.5-7.4-9.6-13.7-9.6c-6.2,0-11.6,2.1-13.7,9.6c-0.6,2.2-0.1,6.2-0.1,8.8c0,3.4-0.2,5.8,0.9,8.6c1.9,4.9,3.7,9,6.2,11.6
	c-9.5,1.7-15.9,6.7-20.2,8.6c-8.9,4-9,8.4-9,8.4V72l72,0v-7.4C72.1,64.6,72,60.2,63.1,56.2z"/>
</svg>
