<?xml version="1.0" encoding="utf-8"?>
<!-- Generator: Adobe Illustrator 19.2.1, SVG Export Plug-In . SVG Version: 6.00 Build 0)  -->
<!DOCTYPE svg PUBLIC "-//W3C//DTD SVG 1.1//EN" "http://www.w3.org/Graphics/SVG/1.1/DTD/svg11.dtd">
<svg version="1.1" id="レイヤー_1" xmlns="http://www.w3.org/2000/svg" xmlns:xlink="http://www.w3.org/1999/xlink" x="0px"
	 y="0px" width="72px" height="72px" viewBox="0 0 72 72" enable-background="new 0 0 72 72" xml:space="preserve">
<g>
	<path d="M53.1,48.6c-3.8,5.3-10.1,8.8-17.1,8.8c-11.5,0-21-9.4-21-20.9h2.5h4.4L10.9,25.6L0,36.5h5.8H6h0.9c0.1,16,13.1,29,29.1,29
		c9.3,0,17.5-4.4,22.9-11.1L56.5,52L53.1,48.6z"/>
	<path d="M67.5,36.5L67.5,36.5l-2.4,0c0,0,0,0,0,0c0-0.1,0-0.1,0-0.2c0-16.1-13-29.1-29.1-29.1c-9.4,0-17.7,4.4-23,11.3l2.5,2.5
		l3.3,3.3c3.8-5.4,10.1-9,17.2-9c11.6,0,21,9.4,21,21c0,0.1,0,0.1,0,0.2c0,0,0,0,0,0h-2.6l0,0h-4.3l10.9,10.9L72,36.5H67.5z"/>
</g>
</svg>
