<?xml version="1.0" encoding="utf-8"?>
<!-- Generator: Adobe Illustrator 19.2.1, SVG Export Plug-In . SVG Version: 6.00 Build 0)  -->
<!DOCTYPE svg PUBLIC "-//W3C//DTD SVG 1.1//EN" "http://www.w3.org/Graphics/SVG/1.1/DTD/svg11.dtd">
<svg version="1.1" id="レイヤー_1" xmlns="http://www.w3.org/2000/svg" xmlns:xlink="http://www.w3.org/1999/xlink" x="0px"
	 y="0px" width="72px" height="72px" viewBox="0 0 72 72" enable-background="new 0 0 72 72" xml:space="preserve">
<path fill="#030102" d="M17.2,72.1L17.2,72.1l2.1,0c1.1,0,2.1-0.9,2.1-2.1v-6.7h30.5v6.5c0,1.1,0.9,2.1,2.1,2.1h2.4
	c1.1,0,2.1-0.9,2.1-2.1l0-6.9l0,0c3.2-0.8,5.5-3.7,5.5-7v-6.7c0-1.2-0.3-2.4-0.9-3.4c-0.1-0.2-6.7-15.5-7-16.2
	c-1.3-3.1-4.3-5.1-7.6-5.1H25.3c-3.4,0-6.4,2-7.7,5.1L11,45.6c-0.5,1-0.8,2.1-0.8,3.3v7.1c0,1.5,0.4,2.9,1.3,4.1
	c0.8,1.2,2,2.1,3.3,2.6l0,0l0,0l0,7.3c0,1.1,0.9,2.1,2.1,2.1v0H17.2z M45.3,55.5H28.7c-0.7,0-1.2-0.6-1.2-1.2c0-0.7,0.6-1.2,1.2-1.2
	h16.7c0.7,0,1.2,0.6,1.2,1.2C46.6,54.9,46,55.5,45.3,55.5z M27.3,49.9c0-0.7,0.6-1.2,1.2-1.2h16.7c0.7,0,1.2,0.6,1.2,1.2
	c0,0.7-0.6,1.2-1.2,1.2H28.5C27.9,51.2,27.3,50.6,27.3,49.9z M61.3,51.8c0,2.4-1.9,4.3-4.3,4.3c-2.4,0-4.3-1.9-4.3-4.3
	s1.9-4.3,4.3-4.3C59.4,47.6,61.3,49.5,61.3,51.8z M16.2,39.6c0.1-0.2,3.5-8.9,3.7-9.3c0.9-2.2,3.1-3.4,6.2-3.4c0,0,0,0,0,0h21.5
	c2.9,0,5.3,1.4,6.3,3.6c2,4.3,3.3,7.4,4.1,9.1c0,0.1,0,0.1,0.1,0.1l0,0h0l0,0c0,0,0,0,0,0c0,0.1,0,0.3,0,0.4c0,1-0.8,1.9-1.9,1.9
	H17.9c-1,0-1.9-0.8-1.9-1.9C16.1,40,16.1,39.8,16.2,39.6z M13,51.8c0-2.4,1.9-4.3,4.3-4.3s4.3,1.9,4.3,4.3s-1.9,4.3-4.3,4.3
	S13,54.2,13,51.8z"/>
</svg>
