<?xml version="1.0" encoding="utf-8"?>
<!-- Generator: Adobe Illustrator 19.2.1, SVG Export Plug-In . SVG Version: 6.00 Build 0)  -->
<!DOCTYPE svg PUBLIC "-//W3C//DTD SVG 1.1//EN" "http://www.w3.org/Graphics/SVG/1.1/DTD/svg11.dtd">
<svg version="1.1" id="レイヤー_1" xmlns="http://www.w3.org/2000/svg" xmlns:xlink="http://www.w3.org/1999/xlink" x="0px"
	 y="0px" width="72px" height="72px" viewBox="0 0 72 72" enable-background="new 0 0 72 72" xml:space="preserve">
<g>
	<path d="M40.3,27.8c-0.2-0.4-0.5-0.8-0.9-1c-0.4-0.3-1-0.4-1.8-0.4h-2.1v9.7h2c0.8,0,1.5-0.1,1.9-0.4s0.8-0.6,1-1
		c0.2-0.4,0.3-0.9,0.4-1.5c0-0.6,0.1-1.2,0.1-2c0-0.7,0-1.3-0.1-1.9C40.6,28.8,40.5,28.2,40.3,27.8z"/>
	<path d="M24,27.8c-0.2-0.4-0.5-0.8-0.9-1c-0.4-0.3-1-0.4-1.8-0.4h-2.1v9.7h2c0.8,0,1.5-0.1,1.9-0.4s0.8-0.6,1-1
		c0.2-0.4,0.3-0.9,0.4-1.5c0-0.6,0.1-1.2,0.1-2c0-0.7,0-1.3-0.1-1.9C24.4,28.8,24.2,28.2,24,27.8z"/>
	<path d="M0,17.2v39.3h71.9V17.2H0z M28.1,34.4c-0.1,0.9-0.5,1.7-0.9,2.5c-0.6,0.9-1.3,1.7-2.2,2.2s-2.2,0.8-3.7,0.8h-2.1V51h-4.1
		V22.5h6.1c1.1,0,2.1,0.1,3,0.4s1.6,0.8,2.3,1.6c0.7,0.7,1.2,1.6,1.4,2.6c0.3,1,0.4,2.4,0.4,4.1C28.3,32.5,28.2,33.5,28.1,34.4z
		 M44.4,34.4c-0.1,0.9-0.5,1.7-0.9,2.5c-0.6,0.9-1.3,1.7-2.2,2.2c-0.9,0.5-2.2,0.8-3.7,0.8h-2.1V51h-4.1V22.5h6.1
		c1.1,0,2.1,0.1,3,0.4c0.9,0.3,1.6,0.8,2.3,1.6c0.7,0.7,1.2,1.6,1.4,2.6c0.3,1,0.4,2.4,0.4,4.1C44.6,32.5,44.5,33.5,44.4,34.4z
		 M59.1,26.4h-4.7V51h-4.1V26.4h-4.7v-3.8h13.5V26.4z"/>
</g>
</svg>
