<?xml version="1.0" encoding="utf-8"?>
<!-- Generator: Adobe Illustrator 19.2.1, SVG Export Plug-In . SVG Version: 6.00 Build 0)  -->
<!DOCTYPE svg PUBLIC "-//W3C//DTD SVG 1.1//EN" "http://www.w3.org/Graphics/SVG/1.1/DTD/svg11.dtd">
<svg version="1.1" id="レイヤー_1" xmlns="http://www.w3.org/2000/svg" xmlns:xlink="http://www.w3.org/1999/xlink" x="0px"
	 y="0px" width="72px" height="72px" viewBox="0 0 72 72" enable-background="new 0 0 72 72" xml:space="preserve">
<path fill="#040000" d="M20,51.1c-8.1-8.7-7.9-22.2,0.5-30.7c3.4-3.4,7.7-5.5,12.2-6.2l-0.2-7.4c-6.2,0.8-12.3,3.5-17.1,8.4
	c-11.2,11.3-11.3,29.5-0.4,41l-6.2,6.2l19.6,1.1l-0.1-20.8L20,51.1z M43.6,8.6l0.1,20.8l8.2-8.3c8.1,8.7,7.9,22.2-0.5,30.7
	c-3.4,3.4-7.7,5.5-12.2,6.2l0.2,7.4c6.2-0.8,12.3-3.5,17.1-8.4c11.2-11.3,11.3-29.5,0.4-41l6.2-6.2L43.6,8.6z"/>
</svg>
