<?xml version="1.0" encoding="utf-8"?>
<!-- Generator: Adobe Illustrator 19.2.1, SVG Export Plug-In . SVG Version: 6.00 Build 0)  -->
<!DOCTYPE svg PUBLIC "-//W3C//DTD SVG 1.1//EN" "http://www.w3.org/Graphics/SVG/1.1/DTD/svg11.dtd">
<svg version="1.1" id="レイヤー_1" xmlns="http://www.w3.org/2000/svg" xmlns:xlink="http://www.w3.org/1999/xlink" x="0px"
	 y="0px" width="72px" height="72px" viewBox="0 0 72 72" enable-background="new 0 0 72 72" xml:space="preserve">
<path fill="#040000" d="M66.1,12.4c-7-6.4-18.4-6.4-25.4,0L36,16.8l-4.8-4.4c-7-6.4-18.4-6.4-25.4,0c-7.9,7.2-7.9,19,0,26.2L36,66.3
	l30.1-27.7C74,31.4,74,19.6,66.1,12.4z M61.6,34.3L36,58.3l-25.7-24c-2.6-2.4-3.6-5.5-3.6-8.8c0-3.3,0.6-6,3.2-8.4
	c2.3-2.1,5.4-3.3,8.6-3.3c3.3,0,6.4,2,8.7,4.1l8.8,7.7l8.8-7.7c2.3-2.1,5.4-4.1,8.7-4.1c3.3,0,6.4,1.2,8.7,3.3
	c2.6,2.4,3.2,5.1,3.2,8.4C65.2,28.8,64.2,31.9,61.6,34.3z"/>
</svg>
