<?xml version="1.0" encoding="utf-8"?>
<!-- Generator: Adobe Illustrator 19.2.1, SVG Export Plug-In . SVG Version: 6.00 Build 0)  -->
<!DOCTYPE svg PUBLIC "-//W3C//DTD SVG 1.1//EN" "http://www.w3.org/Graphics/SVG/1.1/DTD/svg11.dtd">
<svg version="1.1" id="レイヤー_1" xmlns="http://www.w3.org/2000/svg" xmlns:xlink="http://www.w3.org/1999/xlink" x="0px"
	 y="0px" width="72px" height="72px" viewBox="0 0 72 72" enable-background="new 0 0 72 72" xml:space="preserve">
<path d="M59.2,23.2c-3.9,0-7.4,1.8-9.8,4.6l-24.1-12c0.2-0.9,0.3-1.9,0.3-2.9C25.6,5.7,19.9,0,12.8,0S0,5.7,0,12.8
	c0,7.1,5.7,12.8,12.8,12.8c3.9,0,7.5-1.8,9.8-4.6l24.1,12C46.5,34,46.4,35,46.4,36c0,1,0.1,2,0.3,2.9l-24.1,12
	c-2.4-2.8-5.9-4.6-9.8-4.6C5.7,46.4,0,52.1,0,59.2C0,66.3,5.7,72,12.8,72s12.8-5.7,12.8-12.8c0-1-0.1-2-0.3-2.9l24.1-12
	c2.4,2.8,5.9,4.6,9.8,4.6C66.3,48.8,72,43.1,72,36C72,28.9,66.3,23.2,59.2,23.2z"/>
</svg>
