<?xml version="1.0" encoding="utf-8"?>
<!-- Generator: Adobe Illustrator 19.2.1, SVG Export Plug-In . SVG Version: 6.00 Build 0)  -->
<!DOCTYPE svg PUBLIC "-//W3C//DTD SVG 1.1//EN" "http://www.w3.org/Graphics/SVG/1.1/DTD/svg11.dtd">
<svg version="1.1" id="レイヤー_1" xmlns="http://www.w3.org/2000/svg" xmlns:xlink="http://www.w3.org/1999/xlink" x="0px"
	 y="0px" width="72px" height="72px" viewBox="0 0 72 72" enable-background="new 0 0 72 72" xml:space="preserve">
<g>
	<path d="M11,26.4H9.1v20.8H11c1.1,0,2-0.3,2.4-0.9c0.5-0.6,0.7-1.5,0.7-2.7V29.9c0-1.1-0.2-2-0.7-2.6S12.2,26.4,11,26.4z"/>
	<path d="M28.7,26.4c-0.7,0-1.4,0.2-1.9,0.7c-0.5,0.5-0.8,1.2-0.8,2.2v15c0,1,0.3,1.7,0.8,2.2c0.5,0.5,1.2,0.7,1.9,0.7
		c0.7,0,1.4-0.2,1.9-0.7s0.8-1.2,0.8-2.2v-15c0-1-0.3-1.7-0.8-2.2C30.1,26.6,29.4,26.4,28.7,26.4z"/>
	<path d="M0,17.2v39.3h71.9V17.2H0z M18.2,43.2c0,2.7-0.6,4.6-1.9,5.9C15,50.4,13.1,51,10.7,51H5V22.5h6c2.3,0,4.1,0.6,5.3,1.9
		s1.8,3.1,1.8,5.4V43.2z M35.5,44.3c0,1.2-0.2,2.2-0.6,3.1c-0.4,0.9-0.9,1.6-1.6,2.2c-0.7,0.6-1.4,1-2.2,1.3
		c-0.8,0.3-1.6,0.4-2.5,0.4c-0.8,0-1.6-0.1-2.5-0.4s-1.5-0.7-2.2-1.3s-1.2-1.3-1.6-2.2s-0.6-1.9-0.6-3.1v-15c0-1.1,0.2-2.2,0.6-3
		s0.9-1.6,1.6-2.2s1.4-1,2.2-1.3c0.8-0.3,1.6-0.4,2.5-0.4c0.8,0,1.6,0.1,2.5,0.4c0.8,0.3,1.5,0.7,2.2,1.3c0.7,0.6,1.2,1.3,1.6,2.2
		c0.4,0.9,0.6,1.9,0.6,3V44.3z M52.1,30.7H48v-1.4c0-0.8-0.2-1.5-0.7-2.1c-0.5-0.6-1.1-0.9-1.8-0.9c-1,0-1.7,0.3-2,0.9
		c-0.3,0.6-0.5,1.4-0.5,2.4v14.6c0,0.8,0.2,1.5,0.5,2.1c0.4,0.6,1,0.8,1.9,0.8c0.3,0,0.6,0,0.9-0.1c0.3-0.1,0.6-0.2,0.8-0.5
		c0.3-0.2,0.5-0.5,0.6-0.9c0.2-0.4,0.2-0.8,0.2-1.4v-1.4h4.1v1.8c0,0.9-0.2,1.7-0.5,2.5c-0.3,0.8-0.8,1.5-1.4,2.1
		c-0.6,0.6-1.3,1.1-2.1,1.4c-0.8,0.4-1.6,0.5-2.5,0.5c-0.8,0-1.6-0.1-2.4-0.3s-1.5-0.6-2.2-1.1c-0.6-0.5-1.2-1.2-1.6-2.1
		c-0.4-0.9-0.6-1.9-0.6-3.2V28.9c0-0.9,0.2-1.8,0.5-2.6c0.3-0.8,0.8-1.5,1.4-2.1c0.6-0.6,1.3-1,2.1-1.4c0.8-0.3,1.7-0.5,2.7-0.5
		c0.9,0,1.8,0.2,2.6,0.5c0.8,0.3,1.5,0.8,2.1,1.4c0.6,0.6,1,1.3,1.4,2.2c0.3,0.8,0.5,1.8,0.5,2.7V30.7z M64.8,51l-3.6-9.6L57.7,51
		h-4.3l5.8-14.9l-5.3-13.6h4.3l3.1,8.4l3.1-8.4h4.3l-5.4,13.6L69.1,51H64.8z"/>
</g>
</svg>
