<?xml version="1.0" encoding="utf-8"?>
<!-- Generator: Adobe Illustrator 19.2.1, SVG Export Plug-In . SVG Version: 6.00 Build 0)  -->
<!DOCTYPE svg PUBLIC "-//W3C//DTD SVG 1.1//EN" "http://www.w3.org/Graphics/SVG/1.1/DTD/svg11.dtd">
<svg version="1.1" id="レイヤー_1" xmlns="http://www.w3.org/2000/svg" xmlns:xlink="http://www.w3.org/1999/xlink" x="0px"
	 y="0px" width="72px" height="72px" viewBox="0 0 72 72" enable-background="new 0 0 72 72" xml:space="preserve">
<path fill="#040000" d="M63,0H9C4.1,0,0,4.1,0,9v54c0,5,4.1,9,9,9h16h11.3h13H63c5,0,9-4,9-9V9C72,4.1,68,0,63,0z M56.1,26.2
	c0,0.4,0,0.8,0,1.3c0,13-9.9,27.9-27.9,27.9c-5.5,0-10.7-1.6-15-4.4c0.8,0.1,1.5,0.1,2.3,0.1c4.6,0,8.8-1.6,12.2-4.2
	c-4.3-0.1-7.9-2.9-9.2-6.8c0.6,0.1,1.2,0.2,1.8,0.2c0.9,0,1.8-0.1,2.6-0.3c-4.5-0.9-7.9-4.9-7.9-9.6c0,0,0-0.1,0-0.1
	c1.3,0.7,2.8,1.2,4.4,1.2c-2.6-1.8-4.4-4.8-4.4-8.2c0-1.8,0.5-3.5,1.3-4.9c4.8,5.9,12.1,9.8,20.2,10.2c-0.2-0.7-0.3-1.5-0.3-2.2
	c0-5.4,4.4-9.8,9.8-9.8c2.8,0,5.4,1.2,7.2,3.1c2.2-0.4,4.3-1.3,6.2-2.4c-0.7,2.3-2.3,4.2-4.3,5.4c2-0.2,3.9-0.8,5.6-1.5
	C59.6,23.1,58,24.9,56.1,26.2z"/>
</svg>
