<?xml version="1.0" encoding="utf-8"?>
<!-- Generator: Adobe Illustrator 19.2.1, SVG Export Plug-In . SVG Version: 6.00 Build 0)  -->
<!DOCTYPE svg PUBLIC "-//W3C//DTD SVG 1.1//EN" "http://www.w3.org/Graphics/SVG/1.1/DTD/svg11.dtd">
<svg version="1.1" id="レイヤー_1" xmlns="http://www.w3.org/2000/svg" xmlns:xlink="http://www.w3.org/1999/xlink" x="0px"
	 y="0px" width="72px" height="72px" viewBox="0 0 72 72" enable-background="new 0 0 72 72" xml:space="preserve">
<g>
	<path d="M59.6,36.9c0,0,0-7.4,0-13.2c0-3.7-6-3.8-6,0c0,5.7,0,13.2,0,13.2c0,8.9-7.2,16.1-16.1,16.1c-0.1,0-0.2,0-0.3,0l-0.1,0
		l-0.1,0c-0.1,0-0.2,0-0.3,0c-8.9,0-16.1-7.2-16.1-16.1c0,0,0-7.5,0-13.2c0-3.7-6-3.8-6,0c0,1.8,0,13.2,0,13.2
		c0,11.1,8.2,20.3,18.9,21.8v9.5L20.2,72h33.9l-13.5-3.9v-9.4C51.4,57.2,59.6,48,59.6,36.9z"/>
	<path d="M37,47.4c0.1,0,0.1,0,0.2,0c0.1,0,0.1,0,0.2,0c5.9,0,10.7-4.8,10.7-10.7V10.7C48.1,4.8,43.3,0,37.4,0c-0.1,0-0.1,0-0.2,0
		C37.1,0,37,0,37,0C31,0,26.2,4.8,26.2,10.7v25.9C26.2,42.6,31,47.4,37,47.4z"/>
</g>
</svg>
