<?xml version="1.0" encoding="utf-8"?>
<!-- Generator: Adobe Illustrator 19.2.1, SVG Export Plug-In . SVG Version: 6.00 Build 0)  -->
<!DOCTYPE svg PUBLIC "-//W3C//DTD SVG 1.1//EN" "http://www.w3.org/Graphics/SVG/1.1/DTD/svg11.dtd">
<svg version="1.1" id="レイヤー_1" xmlns="http://www.w3.org/2000/svg" xmlns:xlink="http://www.w3.org/1999/xlink" x="0px"
	 y="0px" width="72px" height="72px" viewBox="0 0 72 72" enable-background="new 0 0 72 72" xml:space="preserve">
<title>file1</title>
<path d="M36.1,0c-19.9,0-36,16.1-36,36s16.1,36,36,36s36-16.1,36-36S56,0,36.1,0z M36.1,58.5c-3,0-5.3-2.4-5.3-5.3s2.4-5.3,5.3-5.3
	c0,0,0,0,0.1,0c2.9,0,5.3,2.4,5.3,5.3C41.5,56.1,39.1,58.5,36.1,58.5z M39.9,39.4h-7.6l-2.5-25.9h12.7L39.9,39.4z"/>
</svg>
