<?xml version="1.0" encoding="utf-8"?>
<!-- Generator: Adobe Illustrator 19.2.1, SVG Export Plug-In . SVG Version: 6.00 Build 0)  -->
<!DOCTYPE svg PUBLIC "-//W3C//DTD SVG 1.1//EN" "http://www.w3.org/Graphics/SVG/1.1/DTD/svg11.dtd">
<svg version="1.1" id="レイヤー_1" xmlns="http://www.w3.org/2000/svg" xmlns:xlink="http://www.w3.org/1999/xlink" x="0px"
	 y="0px" width="72px" height="72px" viewBox="0 0 72 72" enable-background="new 0 0 72 72" xml:space="preserve">
<g>
	<path fill="#040000" d="M53.5,5c7.5,0,13.6,7,13.6,15.6c0,1.8-0.3,3.7-0.9,5.4c-0.1,0.2-0.1,0.4-0.2,0.7
		c-2.9,9.4-9.2,23.3-30.1,39.1C13,48.3,7.9,33,6,26.6c0-0.2-0.1-0.4-0.1-0.6C5.3,24.3,5,22.4,5,20.6C5,12,11.1,5,18.6,5
		c5.6,0,10.7,4.1,12.7,10.2c0.7,2.1,2.6,3.5,4.8,3.5s4.1-1.4,4.8-3.5C42.8,9.1,47.9,5,53.5,5 M53.5,0c-8,0-14.9,5.7-17.5,13.6
		C33.5,5.7,26.6,0,18.6,0C8.3,0,0,9.2,0,20.6c0,2.5,0.4,4.8,1.1,7l0,0c2.7,9,9,25.8,34.8,44.4C61.7,53.5,68.3,36.6,71,27.6l0,0
		c0.7-2.2,1.1-4.5,1.1-7C72.1,9.2,63.8,0,53.5,0L53.5,0z"/>
</g>
</svg>
