<?xml version="1.0" encoding="utf-8"?>
<!-- Generator: Adobe Illustrator 19.2.1, SVG Export Plug-In . SVG Version: 6.00 Build 0)  -->
<!DOCTYPE svg PUBLIC "-//W3C//DTD SVG 1.1//EN" "http://www.w3.org/Graphics/SVG/1.1/DTD/svg11.dtd">
<svg version="1.1" id="レイヤー_1" xmlns="http://www.w3.org/2000/svg" xmlns:xlink="http://www.w3.org/1999/xlink" x="0px"
	 y="0px" width="72px" height="72px" viewBox="0 0 72 72" enable-background="new 0 0 72 72" xml:space="preserve">
<path d="M65,35.8c0,16-13,29-29,29c-16,0-29-13-29-29c0-16,13-29,29-29c1.7,0,3.3,0.2,5,0.4V0.5l10.8,10.9L40.9,22.2v-6.8
	c-1.6-0.4-3.3-0.6-5-0.6C24.4,14.8,15,24.2,15,35.8c0,11.6,9.4,20.9,20.9,20.9c11.6,0,20.9-9.4,20.9-20.9H65z"/>
</svg>
