<svg id="レイヤー_1" data-name="レイヤー 1" xmlns="http://www.w3.org/2000/svg" viewBox="0 0 72 72"><defs><style>.cls-1{fill:#040000;}</style></defs><title>file1</title><path class="cls-1" d="M0,13.42v7.37a42.48,42.48,0,0,1,15.5,2.9q1.28,0.51,2.48,1.08a39.27,39.27,0,0,1,5.87-2.25A43.13,43.13,0,0,1,36,20.79a42.5,42.5,0,0,1,15.56,2.9q1.28,0.51,2.48,1.08a39.3,39.3,0,0,1,5.87-2.25A43.15,43.15,0,0,1,72,20.79V13.42H0Z"/><path class="cls-1" d="M45.11,41.37a9,9,0,0,0,14,7.43,8.94,8.94,0,0,0,4-7.43,7.64,7.64,0,0,0-.58-2.82,12.41,12.41,0,0,0-1.78-3,22.64,22.64,0,0,0-6.6-5.5,24.35,24.35,0,0,0-5.42,4.14,13.46,13.46,0,0,0-3.08,4.72A7.48,7.48,0,0,0,45.11,41.37Z"/><path class="cls-1" d="M62.83,30.94A18.07,18.07,0,0,1,67,37.33a12.13,12.13,0,0,1,.72,4,13.6,13.6,0,1,1-27.2,0,12.9,12.9,0,0,1,1.56-6,20.28,20.28,0,0,1,4.11-5.29,28.27,28.27,0,0,1,2.94-2.41c-0.71-.26-1.44-0.5-2.19-0.73A38.52,38.52,0,0,0,36,25.43,38,38,0,0,0,23,27.7a27.24,27.24,0,0,1,3.78,3.24,18.08,18.08,0,0,1,4.12,6.4,12.11,12.11,0,0,1,.72,4,13.6,13.6,0,1,1-27.2,0,12.9,12.9,0,0,1,1.56-6A20.28,20.28,0,0,1,10,30.11,28.19,28.19,0,0,1,13,27.7c-0.71-.26-1.44-0.5-2.19-0.73A38.54,38.54,0,0,0,0,25.43V60.69H72V25.43a38,38,0,0,0-13,2.27A27.23,27.23,0,0,1,62.83,30.94Z"/><path class="cls-1" d="M9,41.37a9,9,0,0,0,14,7.43,8.94,8.94,0,0,0,4-7.43,7.66,7.66,0,0,0-.58-2.82,12.45,12.45,0,0,0-1.78-3A22.66,22.66,0,0,0,18,30a24.33,24.33,0,0,0-5.42,4.14,13.46,13.46,0,0,0-3.08,4.72A7.47,7.47,0,0,0,9,41.37Z"/></svg>