<?xml version="1.0" encoding="utf-8"?>
<!-- Generator: Adobe Illustrator 19.2.1, SVG Export Plug-In . SVG Version: 6.00 Build 0)  -->
<!DOCTYPE svg PUBLIC "-//W3C//DTD SVG 1.1//EN" "http://www.w3.org/Graphics/SVG/1.1/DTD/svg11.dtd">
<svg version="1.1" id="レイヤー_1" xmlns="http://www.w3.org/2000/svg" xmlns:xlink="http://www.w3.org/1999/xlink" x="0px"
	 y="0px" width="72px" height="72px" viewBox="0 0 72 72" enable-background="new 0 0 72 72" xml:space="preserve">
<g>
	<path fill="#040000" d="M6.6,46.8c0-6.9-0.1-13.8,0-20.7c0-3.1,0.2-6.2,1.2-9.2c1.8-5.4,5.5-8.8,11-10.2c1.5-0.4,3-0.6,4.5-0.7
		c7.5-0.5,15.1-0.2,22.6-0.2c2.9,0,5.7,0.1,8.5,1c5.8,1.9,9.4,5.7,10.8,11.7c0.3,1.2,0.5,2.5,0.5,3.8c0.5,6.4,0.1,12.8,0.2,19.2
		c0,1.2,0.1,2.4,0,3.6c-0.2,2.9-0.2,5.7-1.1,8.5c-1.9,6-6,9.5-12.1,10.8C51,64.8,49.3,65,47.5,65c-7,0-13.9,0.1-20.9,0.1
		c-3.2,0-6.4-0.2-9.4-1.3c-5.1-1.9-8.3-5.6-9.7-10.8c-0.4-1.5-0.5-3-0.7-4.5C6.7,47.9,6.7,47.3,6.6,46.8C6.6,46.8,6.6,46.8,6.6,46.8
		z M11.8,44.9C11.8,44.9,11.8,44.9,11.8,44.9c0.1,0.8,0.1,1.5,0.2,2.3c0.1,1.3,0.2,2.6,0.5,3.9c0.6,2.9,2.1,5.2,4.6,6.8
		c1.9,1.2,4,1.6,6.2,1.8c2.3,0.2,4.5,0.2,6.8,0.2c6,0,12.1-0.1,18.1-0.2c1.3,0,2.6-0.2,3.9-0.4c2.6-0.5,4.8-1.8,6.3-4
		c1.5-2.1,2-4.4,2.1-6.9c0.1-1.8,0.2-3.5,0.2-5.3c0-6.5,0.2-13-0.2-19.5c-0.1-1.3-0.2-2.6-0.5-3.9c-0.8-3.7-3-6.3-6.6-7.6
		c-2.1-0.7-4.2-0.8-6.4-1c-1.4-0.1-2.7-0.1-4.1-0.1c-6.2,0-12.3-0.2-18.5,0.2c-1.3,0.1-2.7,0.2-4,0.5c-2.9,0.6-5.1,2.1-6.7,4.6
		c-1.2,1.9-1.6,4.1-1.8,6.3c-0.2,1.9-0.2,3.9-0.2,5.9C11.8,33.9,11.8,39.4,11.8,44.9z"/>
	<path fill="#040000" d="M36.3,50.6c-8.4-0.1-15.3-6.7-15.2-15.4c0.1-8.3,6.7-15.2,15.4-15.1c8.3,0.1,15.2,6.7,15,15.5
		C51.4,43.9,44.8,50.6,36.3,50.6z M46.2,35.4c0.1-5.6-4.4-9.8-9.4-10c-6.3-0.3-10.3,4.6-10.6,9.3C26,41.1,31,45.1,35.7,45.4
		C41.9,45.7,46.4,40.6,46.2,35.4z"/>
	<path fill="#040000" d="M55.6,19.6c0,2.2-1.5,3.5-3.9,3.4c-1.8,0-3.1-1.7-3.1-3.9c0-1.8,1.7-3.1,3.9-3.1
		C54,16.1,55.7,17.6,55.6,19.6z"/>
</g>
</svg>
