<?xml version="1.0" encoding="utf-8"?>
<!-- Generator: Adobe Illustrator 19.2.1, SVG Export Plug-In . SVG Version: 6.00 Build 0)  -->
<!DOCTYPE svg PUBLIC "-//W3C//DTD SVG 1.1//EN" "http://www.w3.org/Graphics/SVG/1.1/DTD/svg11.dtd">
<svg version="1.1" id="レイヤー_1" xmlns="http://www.w3.org/2000/svg" xmlns:xlink="http://www.w3.org/1999/xlink" x="0px"
	 y="0px" width="72px" height="72px" viewBox="0 0 72 72" enable-background="new 0 0 72 72" xml:space="preserve">
<g>
	<path d="M41.1,70.8c3.5-1.5,5.2-1.3,8.1,0.2c2.9,1.5,5.8,1.5,9.3-0.2c3.4-1.8,6.2-0.8,7.8,0.2c1.3,0.8,2.6,1.1,4.5,1.1v-7
		c-2.9,0-4.2-1-4.2-1c-3-1.9-5.8-1.5-9.6,0.5c-2.2,1.1-5.6,0.8-8.1-0.4c-3.4-1.8-5.3-1.3-8.8,0.2c-2.7,1.2-5.2,1.2-7.9,0
		c-3.5-1.6-5.3-2-8.7-0.2c-2.4,1.3-5.9,1.6-8.1,0.4c-3.8-2-6.5-2.4-9.6-0.5c0,0-1.3,1-4.2,1v7c1.8,0,3.2-0.4,4.5-1.1
		c1.6-1,4.4-1.9,7.9-0.2c3.4,1.8,6.4,1.8,9.3,0.2c2.9-1.5,4.5-1.8,8.1-0.3C34.8,72.5,38.2,72.3,41.1,70.8z"/>
</g>
<path d="M66.7,53.8c-6-3.2-8.5,0.7-11.7,0.7V38.7l4.9-11.4c0.7-1.8,0-3.4-1.8-4.1l-3-1.2v-9.8h-5.8V6.9h-8.1V0h-5h-5v6.9h-8.1v5.2
	h-5.8V22l-3,1.2c-1.8,0.8-2.5,2.4-1.8,4.1l4.9,11.4v15.8c-3.2,0-5.9-3.9-11.7-0.6h0c0,0-1.7,0.9-4.2,1v6.8c2-0.1,2.9-0.5,4.4-1.3
	c1.6-0.9,4.5-1.7,7.9,0c3.4,1.8,6.4,1.8,9.3,0.2c2.9-1.5,5.5-1.6,8.2-0.2c3.4,1.8,6.1,1.8,9.6,0c2.8-1.4,5.3-1.3,8.2,0.2
	c2.9,1.5,5.8,1.5,9.3-0.2c3.4-1.8,6.3-0.9,7.9,0c1.4,0.8,2.4,1.2,4.4,1.3v-6.8C68.3,54.7,66.7,53.8,66.7,53.8z M50.8,20.1l-14.6-6
	l-14.6,6v-4h5.8v-5.1h8.8h8.8v5.1h5.8V20.1z"/>
</svg>
