<?xml version="1.0" encoding="utf-8"?>
<!-- Generator: Adobe Illustrator 19.2.1, SVG Export Plug-In . SVG Version: 6.00 Build 0)  -->
<!DOCTYPE svg PUBLIC "-//W3C//DTD SVG 1.1//EN" "http://www.w3.org/Graphics/SVG/1.1/DTD/svg11.dtd">
<svg version="1.1" id="レイヤー_1" xmlns="http://www.w3.org/2000/svg" xmlns:xlink="http://www.w3.org/1999/xlink" x="0px"
	 y="0px" width="72px" height="72px" viewBox="0 0 72 72" enable-background="new 0 0 72 72" xml:space="preserve">
<g>
	<path fill="#231815" d="M17.8,29.5h2.8l5.1,9v-9h2.5v13h-2.7l-5.3-9.2v9.2h-2.5V29.5z"/>
	<path fill="#231815" d="M40.4,31.8h-6.9v2.8h6.3v2.2h-6.3v3.3h7.2v2.3h-9.8v-13h9.5V31.8z"/>
	<path fill="#231815" d="M44.6,29.5l1.7,7.4l0.4,2.1l0.4-2l1.5-7.5h2.9l1.5,7.4l0.4,2.1l0.4-2l1.7-7.5h2.8l-3.6,13H52l-1.6-7.6
		L50,32.4l-0.5,2.5l-1.6,7.6h-2.5l-3.7-13H44.6z"/>
</g>
</svg>
