<?xml version="1.0" encoding="utf-8"?>
<!-- Generator: Adobe Illustrator 19.2.1, SVG Export Plug-In . SVG Version: 6.00 Build 0)  -->
<!DOCTYPE svg PUBLIC "-//W3C//DTD SVG 1.1//EN" "http://www.w3.org/Graphics/SVG/1.1/DTD/svg11.dtd">
<svg version="1.1" id="レイヤー_1" xmlns="http://www.w3.org/2000/svg" xmlns:xlink="http://www.w3.org/1999/xlink" x="0px"
	 y="0px" width="72px" height="72px" viewBox="0 0 72 72" enable-background="new 0 0 72 72" xml:space="preserve">
<g>
	<polygon points="46.2,66 6,66 6,21.1 21.1,21.1 21.1,6 46.2,6 46.2,12.3 51.8,6.7 52.2,6.3 52.2,0 15.1,0 15.1,0 0,15.1 0,72 
		52.2,72 52.2,45.1 46.2,51.1 	"/>
	<path d="M26.8,40.1L26.8,40.1L26.8,40.1L26.8,40.1l-5.2,16.1L37.7,51h0l0,0v0l29.2-29.2L56,10.9L26.8,40.1L26.8,40.1z M36.3,48.8
		l-10.9,3.5L29,41.5L36.3,48.8z"/>
</g>
</svg>
