<svg id="レイヤー_1" data-name="レイヤー 1" xmlns="http://www.w3.org/2000/svg" viewBox="0 0 72 72"><defs><style>.cls-1{fill:#040000;}</style></defs><title>file1</title><path class="cls-1" d="M70.49,21.1l-6.55-6.55A4.65,4.65,0,0,1,57.36,8L50.81,1.42a3.88,3.88,0,0,0-5.48,0l-9.95,9.95L38,14l-2.91,2.91-2.65-2.65-31,31a3.88,3.88,0,0,0,0,5.48l6.55,6.55a4.65,4.65,0,0,1,6.58,6.58l6.55,6.55a3.88,3.88,0,0,0,5.48,0l31-31L55,36.78l2.91-2.91,2.65,2.65,9.95-9.95A3.88,3.88,0,0,0,70.49,21.1Zm-27,4.21L38.21,20l2.91-2.91,5.31,5.31ZM51.9,33.7l-5.31-5.31,2.91-2.91,5.31,5.31Z"/></svg>