<?xml version="1.0" encoding="utf-8"?>
<!-- Generator: Adobe Illustrator 19.2.1, SVG Export Plug-In . SVG Version: 6.00 Build 0)  -->
<!DOCTYPE svg PUBLIC "-//W3C//DTD SVG 1.1//EN" "http://www.w3.org/Graphics/SVG/1.1/DTD/svg11.dtd">
<svg version="1.1" id="レイヤー_1" xmlns="http://www.w3.org/2000/svg" xmlns:xlink="http://www.w3.org/1999/xlink" x="0px"
	 y="0px" width="72px" height="72px" viewBox="0 0 72 72" enable-background="new 0 0 72 72" xml:space="preserve">
<path d="M72,64.2L52.2,44.4c3.1-4.5,4.8-10,4.8-15.9C57,12.8,44.3,0,28.5,0C12.8,0,0,12.8,0,28.5S12.8,57,28.5,57
	c5.9,0,11.4-1.8,15.9-4.8L64.2,72L72,64.2z M28.5,48C17.8,48,9,39.3,9,28.5C9,17.8,17.8,9,28.5,9S48,17.8,48,28.5
	C48,39.3,39.3,48,28.5,48z"/>
</svg>
