<?xml version="1.0" encoding="utf-8"?>
<!-- Generator: Adobe Illustrator 19.2.1, SVG Export Plug-In . SVG Version: 6.00 Build 0)  -->
<!DOCTYPE svg PUBLIC "-//W3C//DTD SVG 1.1//EN" "http://www.w3.org/Graphics/SVG/1.1/DTD/svg11.dtd">
<svg version="1.1" id="レイヤー_1" xmlns="http://www.w3.org/2000/svg" xmlns:xlink="http://www.w3.org/1999/xlink" x="0px"
	 y="0px" width="72px" height="72px" viewBox="0 0 72 72" enable-background="new 0 0 72 72" xml:space="preserve">
<path d="M71.3,27.2c-0.7-0.8-1.4-1.1-2-1.3c-0.6-0.2-1.2-0.2-1.8-0.2l-20.2,0c-0.2,0-0.6-0.1-1-0.4c-0.4-0.3-0.6-0.7-0.6-0.8
	l-5.9-21c-0.2-0.7-0.4-1.3-0.8-1.9c-0.4-0.6-1.3-1.6-2.9-1.6c-1.6,0-2.5,1-2.9,1.6c-0.4,0.7-0.7,1.3-0.8,1.9l-5.9,21
	c0,0.2-0.3,0.6-0.6,0.8c-0.4,0.3-0.8,0.4-1,0.4l-20.2,0c-0.8,0-1.5,0.1-2.4,0.4c-0.4,0.2-0.9,0.5-1.4,1c-0.5,0.5-0.8,1.4-0.8,2.1
	c0,1.2,0.5,1.9,0.9,2.4C1.5,32.3,2,32.6,2.5,33l16.3,10.7c0.3,0.1,0.8,1,0.8,1.6c0,0.1,0,0.3,0,0.4l-6.3,20.7
	c-0.2,0.6-0.3,1.2-0.3,1.9c0,0.6,0.1,1.4,0.7,2.2c0.6,0.9,1.9,1.5,2.7,1.4c1.7-0.1,2.4-0.7,3.2-1.4L35.4,57c0.1-0.1,0.5-0.3,0.8-0.3
	c0.4,0,0.7,0.1,0.8,0.2l16.8,13.7c0.8,0.6,1.5,1.2,3.1,1.3c0,0,0.1,0,0.1,0c0.8,0,2-0.5,2.6-1.4c0.6-0.9,0.7-1.6,0.7-2.2
	c0-0.8-0.2-1.4-0.4-2l-7.1-20.9c0-0.1-0.1-0.2-0.1-0.4c0-0.6,0.4-1.4,0.7-1.5L69.7,33c0.5-0.3,1-0.7,1.4-1.2
	c0.4-0.5,0.9-1.2,0.9-2.4C72.1,28.6,71.8,27.7,71.3,27.2z"/>
</svg>
