<svg id="レイヤー_1" data-name="レイヤー 1" xmlns="http://www.w3.org/2000/svg" viewBox="0 0 72 72"><title>file1</title><path d="M36.5,55.87H36.32a81.65,81.65,0,0,1-19.29-2,22.83,22.83,0,0,1-6.84-2.68l0,14.21C10.21,69,21.89,72,36.32,72H36.5C51,72,62.78,69,62.78,65.25l0-14.17a23.14,23.14,0,0,1-6.83,2.68A82.14,82.14,0,0,1,36.5,55.87Z"/><path d="M36.5,33.64H36.32a81.75,81.75,0,0,1-19.29-2,22.89,22.89,0,0,1-6.84-2.68s0,0,0,.06l0,14.47c0,3.69,11.68,6.66,26.11,6.66H36.5c14.52,0,26.28-3,26.27-6.75l0-14.47v0a23.11,23.11,0,0,1-6.83,2.68A82.07,82.07,0,0,1,36.5,33.64Z"/><path d="M36.32,27.88H36.5c14.52,0,26.28-3,26.27-6.75l0-14.48C62.75,3,51.08,0,36.65,0H36.47C21.95,0,10.18,3,10.18,6.75l0,14.47C10.21,24.91,21.89,27.88,36.32,27.88Z"/></svg>