<?xml version="1.0" encoding="utf-8"?>
<!-- Generator: Adobe Illustrator 19.2.1, SVG Export Plug-In . SVG Version: 6.00 Build 0)  -->
<!DOCTYPE svg PUBLIC "-//W3C//DTD SVG 1.1//EN" "http://www.w3.org/Graphics/SVG/1.1/DTD/svg11.dtd">
<svg version="1.1" id="レイヤー_1" xmlns="http://www.w3.org/2000/svg" xmlns:xlink="http://www.w3.org/1999/xlink" x="0px"
	 y="0px" width="72px" height="72px" viewBox="0 0 72 72" enable-background="new 0 0 72 72" xml:space="preserve">
<g>
	<path d="M62.8,24.8h-5.2c-0.1,0.2-0.3,0.4-0.5,0.6l-3.3,3.9h4.4c0.6,0,1.1,0.5,1.1,1.1v24.1c0,0.6-0.5,1.1-1.1,1.1H15.4
		c-0.6,0-1.1-0.5-1.1-1.1V30.3c0-0.6,0.5-1.1,1.1-1.1h3l-3.3-3.9c-0.2-0.2-0.3-0.4-0.4-0.6h-3.8c-0.6,0-1.1,0.5-1.1,1.1v38.4
		c0,0.6,0.5,1.1,1.1,1.1h21.2v3.1l-4.7,3c-0.5,0.3-0.4,0.6,0.2,0.6h18.8c0.6,0,0.7-0.3,0.2-0.6l-4.9-3v-3.1h21.1
		c0.6,0,1.1-0.5,1.1-1.1V25.8C63.8,25.2,63.4,24.8,62.8,24.8z"/>
	<path d="M34.2,38.8c0.5,0.6,1.2,0.9,1.9,0.9s1.4-0.3,1.9-0.9l14.5-17.3c1.1-1.3,0.6-2.3-1.1-2.3h-7.6c-0.8,0-1.9,0-3,0V0
		c0,0-1.3,0-3,0h-3.5c-1.6,0-3,0-3,0v19.2c-1.1,0-2.2,0-3,0h-7.6c-1.6,0-2.1,1-1.1,2.3L34.2,38.8z"/>
</g>
</svg>
