<?xml version="1.0" encoding="utf-8"?>
<!-- Generator: Adobe Illustrator 19.2.1, SVG Export Plug-In . SVG Version: 6.00 Build 0)  -->
<!DOCTYPE svg PUBLIC "-//W3C//DTD SVG 1.1//EN" "http://www.w3.org/Graphics/SVG/1.1/DTD/svg11.dtd">
<svg version="1.1" id="レイヤー_1" xmlns="http://www.w3.org/2000/svg" xmlns:xlink="http://www.w3.org/1999/xlink" x="0px"
	 y="0px" width="72px" height="72px" viewBox="0 0 72 72" enable-background="new 0 0 72 72" xml:space="preserve">
<path d="M54.6,57.4L72.2,72V20l-18-20l-18,15l-18-15l-18,20v52l18-15l15,12.5v0.3h0.3l2.7,2.2l2.7-2.2h0.3v-0.3l14.6-12.2H54.6z
	 M66.2,59.2L58,52.4l-0.8-0.7V12.3l9,10V59.2z M6.2,59.2V22.3l9-10v39.4l-0.8,0.7L6.2,59.2z M22,52.4l-0.8-0.7V10.3l11.2,9.3
	l0.8,0.7v41.4L22,52.4z M39.2,61.7V20.3l0.8-0.7l11.2-9.3v41.4l-0.8,0.7L39.2,61.7z"/>
</svg>
