<?xml version="1.0" encoding="utf-8"?>
<!-- Generator: Adobe Illustrator 19.2.1, SVG Export Plug-In . SVG Version: 6.00 Build 0)  -->
<!DOCTYPE svg PUBLIC "-//W3C//DTD SVG 1.1//EN" "http://www.w3.org/Graphics/SVG/1.1/DTD/svg11.dtd">
<svg version="1.1" id="レイヤー_1" xmlns="http://www.w3.org/2000/svg" xmlns:xlink="http://www.w3.org/1999/xlink" x="0px"
	 y="0px" width="72px" height="72px" viewBox="0 0 72 72" enable-background="new 0 0 72 72" xml:space="preserve">
<g>
	<polygon points="21.7,29.4 29.3,21.7 16,8.4 24.4,0 0,0 0,24.4 8.3,16 	"/>
	<polygon points="63.7,56.1 50.3,42.7 42.7,50.3 56,63.7 47.6,72 72,72 72,47.7 	"/>
	<polygon points="50.3,29.4 63.6,16 72,24.4 72,0 47.7,0 56,8.3 42.7,21.7 	"/>
	<polygon points="21.7,42.7 8.4,56 0,47.6 0,72 24.3,72 16,63.7 29.3,50.3 	"/>
</g>
</svg>
