<?xml version="1.0" encoding="utf-8"?>
<!-- Generator: Adobe Illustrator 19.2.1, SVG Export Plug-In . SVG Version: 6.00 Build 0)  -->
<!DOCTYPE svg PUBLIC "-//W3C//DTD SVG 1.1//EN" "http://www.w3.org/Graphics/SVG/1.1/DTD/svg11.dtd">
<svg version="1.1" id="レイヤー_1" xmlns="http://www.w3.org/2000/svg" xmlns:xlink="http://www.w3.org/1999/xlink" x="0px"
	 y="0px" width="72px" height="72px" viewBox="0 0 72 72" enable-background="new 0 0 72 72" xml:space="preserve">
<g>
	<circle fill="#231815" cx="32.4" cy="57.5" r="5.9"/>
	<circle fill="#231815" cx="54.6" cy="57.5" r="5.9"/>
	<g>
		<path fill="#231815" d="M69.6,17.4c-0.3-0.1-0.6-0.1-0.8-0.1c-1.3,0-2.4,0.8-2.8,2.1l-0.4,1.3H22.4l-1.5-6.3
			c-0.3-1.3-1.5-2.2-2.8-2.2H2.9c-1.6,0-2.9,1.3-2.9,2.9c0,1.6,1.3,2.9,2.9,2.9h12.8l6.9,28c0.3,1.3,1.5,2.2,2.8,2.2h35.8
			c1.3,0,2.4-0.9,2.8-2.1l7.5-25.1c0.1-0.3,0.1-0.6,0.1-0.8C71.7,19,70.9,17.8,69.6,17.4 M59.2,41.9l-0.2,0.6H27.8l-3.9-15.9h40
			L59.2,41.9z"/>
	</g>
</g>
</svg>
