<?xml version="1.0" encoding="utf-8"?>
<!-- Generator: Adobe Illustrator 19.2.1, SVG Export Plug-In . SVG Version: 6.00 Build 0)  -->
<!DOCTYPE svg PUBLIC "-//W3C//DTD SVG 1.1//EN" "http://www.w3.org/Graphics/SVG/1.1/DTD/svg11.dtd">
<svg version="1.1" id="レイヤー_1" xmlns="http://www.w3.org/2000/svg" xmlns:xlink="http://www.w3.org/1999/xlink" x="0px"
	 y="0px" width="72px" height="72px" viewBox="0 0 72 72" enable-background="new 0 0 72 72" xml:space="preserve">
<g>
	<path d="M15.3,27.8c-0.2-0.4-0.5-0.8-0.9-1c-0.4-0.3-1-0.4-1.8-0.4h-2.1v9.7h2c0.8,0,1.5-0.1,1.9-0.4s0.8-0.6,1-1
		c0.2-0.4,0.3-0.9,0.4-1.5c0-0.6,0.1-1.2,0.1-2c0-0.7,0-1.3-0.1-1.9C15.6,28.8,15.5,28.2,15.3,27.8z"/>
	<path d="M31.6,27.8c-0.2-0.4-0.5-0.8-0.9-1c-0.4-0.3-1-0.4-1.8-0.4h-2.1v9.7h2c0.8,0,1.5-0.1,1.9-0.4s0.8-0.6,1-1
		c0.2-0.4,0.3-0.9,0.4-1.5c0-0.6,0.1-1.2,0.1-2c0-0.7,0-1.3-0.1-1.9C31.9,28.8,31.8,28.2,31.6,27.8z"/>
	<path d="M0.1,17.2v39.3H72V17.2H0.1z M19.4,34.4c-0.1,0.9-0.5,1.7-0.9,2.5c-0.6,0.9-1.3,1.7-2.2,2.2s-2.2,0.8-3.7,0.8h-2.1V51H6.3
		V22.5h6.1c1.1,0,2.1,0.1,3,0.4s1.6,0.8,2.3,1.6c0.7,0.7,1.2,1.6,1.4,2.6c0.3,1,0.4,2.4,0.4,4.1C19.6,32.5,19.5,33.5,19.4,34.4z
		 M35.6,34.4c-0.1,0.9-0.5,1.7-0.9,2.5c-0.6,0.9-1.3,1.7-2.2,2.2c-0.9,0.5-2.2,0.8-3.7,0.8h-2.1V51h-4.1V22.5h6.1
		c1.1,0,2.1,0.1,3,0.4c0.9,0.3,1.6,0.8,2.3,1.6c0.7,0.7,1.2,1.6,1.4,2.6c0.3,1,0.4,2.4,0.4,4.1C35.9,32.5,35.8,33.5,35.6,34.4z
		 M50.4,26.4h-4.7V51h-4.1V26.4h-4.7v-3.8h13.5V26.4z M63.6,51L60,41.4L56.5,51h-4.3l5.8-14.9l-5.3-13.6h4.3L60,31l3.1-8.4h4.3
		L62,36.1L67.9,51H63.6z"/>
</g>
</svg>
