<?xml version="1.0" encoding="utf-8"?>
<!-- Generator: Adobe Illustrator 19.2.1, SVG Export Plug-In . SVG Version: 6.00 Build 0)  -->
<!DOCTYPE svg PUBLIC "-//W3C//DTD SVG 1.1//EN" "http://www.w3.org/Graphics/SVG/1.1/DTD/svg11.dtd">
<svg version="1.1" id="レイヤー_1" xmlns="http://www.w3.org/2000/svg" xmlns:xlink="http://www.w3.org/1999/xlink" x="0px"
	 y="0px" width="72px" height="72px" viewBox="0 0 72 72" enable-background="new 0 0 72 72" xml:space="preserve">
<g>
	<path d="M66.1,19.2l-2.7-4c-0.5-0.7-1.6-1.3-2.4-1.3h-6.3V8.3c0-0.9-0.5-2-1.1-2.6L49,1.1C48.4,0.5,47.2,0,46.4,0h-19
		c-0.9,0-2,0.5-2.6,1.1l-4.3,4.3C19.9,6,19.4,7.2,19.4,8v5.8h-6.6c-0.9,0-1.9,0.6-2.4,1.3l-2.7,4c-0.5,0.7-0.2,1.3,0.7,1.3l4.6,0
		l4,50c0,0.8,0.7,1.5,1.5,1.5h37.2c0.9,0,1.5-0.7,1.5-1.5l4-50l4.2,0C66.3,20.4,66.6,19.9,66.1,19.2z M25.8,13.5v-2.8
		c0-0.8,0.5-2,1.1-2.6l0.5-0.5C28,6.9,29.2,6.5,30,6.5h13.7c0.9,0,2,0.5,2.6,1.1l0.8,0.8c0.6,0.6,1.1,1.8,1.1,2.6v2.5
		c0,0.1,0,0.2,0,0.3H25.8C25.8,13.7,25.8,13.6,25.8,13.5z M54.8,22l-4,42c0,0.8-0.7,1.5-1.5,1.5H24.9c-0.9,0-1.5-0.7-1.5-1.5l-4-42
		c0-0.8,0.7-1.5,1.5-1.5h7.9l24.6,0C54.2,20.5,54.8,21.2,54.8,22z"/>
	<path d="M30,61.3h1.9c0.9,0,1.5-0.7,1.5-1.5V26.3c0-0.8-0.7-1.5-1.5-1.5H30c-0.9,0-1.5,0.7-1.5,1.5v33.4
		C28.5,60.6,29.2,61.3,30,61.3z"/>
	<path d="M42.8,61.3h1.9c0.9,0,1.5-0.7,1.5-1.5V26.3c0-0.8-0.7-1.5-1.5-1.5h-1.9c-0.9,0-1.5,0.7-1.5,1.5v33.4
		C41.2,60.6,41.9,61.3,42.8,61.3z"/>
</g>
</svg>
