<?xml version="1.0" encoding="utf-8"?>
<!-- Generator: Adobe Illustrator 19.2.1, SVG Export Plug-In . SVG Version: 6.00 Build 0)  -->
<!DOCTYPE svg PUBLIC "-//W3C//DTD SVG 1.1//EN" "http://www.w3.org/Graphics/SVG/1.1/DTD/svg11.dtd">
<svg version="1.1" id="レイヤー_1" xmlns="http://www.w3.org/2000/svg" xmlns:xlink="http://www.w3.org/1999/xlink" x="0px"
	 y="0px" width="72px" height="72px" viewBox="0 0 72 72" enable-background="new 0 0 72 72" xml:space="preserve">
<path fill="#040000" d="M63,0H9C4.1,0,0,4.1,0,9v54c0,5,4.1,9,9,9h27.3V46.2h-8.6V34.9h8.6v-5.6c0-8.7,6.4-15.5,14.6-15.5h7.9v12.7
	h-7.1c-1.9,0-2.4,1.1-2.4,2.5v5.9h9.5v11.2h-9.5V72H63c5,0,9-4,9-9V9C72,4.1,68,0,63,0z"/>
</svg>
