<?xml version="1.0" encoding="utf-8"?>
<!-- Generator: Adobe Illustrator 19.2.1, SVG Export Plug-In . SVG Version: 6.00 Build 0)  -->
<!DOCTYPE svg PUBLIC "-//W3C//DTD SVG 1.1//EN" "http://www.w3.org/Graphics/SVG/1.1/DTD/svg11.dtd">
<svg version="1.1" id="レイヤー_1" xmlns="http://www.w3.org/2000/svg" xmlns:xlink="http://www.w3.org/1999/xlink" x="0px"
	 y="0px" width="72px" height="72px" viewBox="0 0 72 72" enable-background="new 0 0 72 72" xml:space="preserve">
<g>
	<path fill="#040000" d="M65.1,36c0-4.5,2.8-8,6.9-10.5c-0.7-2.5-1.7-4.9-3-7.2c-4.7,1.2-8.4-0.6-11.6-3.8s-4.1-7-2.9-11.6
		c-2.3-1.2-4.7-2.2-7.2-3C44.9,4.2,40.5,6.9,36,6.9c-4.5,0-8.9-2.8-11.3-6.9c-2.5,0.7-4.9,1.7-7.2,3c1.2,4.7,0.2,8.4-2.9,11.6
		c-3.2,3.2-7,5-11.6,3.8c-1.2,2.3-2.2,4.7-3,7.2c4.2,2.4,6.9,6,6.9,10.5S4.2,44.9,0,47.3c0.7,2.5,1.7,4.9,3,7.2
		c4.7-1.2,8.4-0.2,11.6,2.9c3.2,3.2,4.1,7,2.9,11.6c2.3,1.2,4.7,2.2,7.2,3c2.4-4.2,6.8-6.9,11.3-6.9c4.5,0,8.9,2.8,11.3,6.9
		c2.5-0.7,4.9-1.7,7.2-3c-1.2-4.7-0.3-8.4,2.9-11.6c3.2-3.2,7-5,11.6-3.8c1.2-2.3,2.2-4.7,3-7.2C67.8,44,65.1,40.5,65.1,36z
		 M36,51.7c-8.6,0-15.7-7-15.7-15.7c0-8.6,7-15.7,15.7-15.7c8.6,0,15.7,7,15.7,15.7C51.7,44.6,44.6,51.7,36,51.7z"/>
</g>
</svg>
