<svg id="レイヤー_1" data-name="レイヤー 1" xmlns="http://www.w3.org/2000/svg" viewBox="0 0 72 72"><title>file1</title><path d="M60.33,10V4a4,4,0,0,0-4-4H53.16a4,4,0,0,0-4,4v6H41.73V4a4,4,0,0,0-4-4H34.55a4,4,0,0,0-4,4v6H22.67V4a4,4,0,0,0-4-4H15.49a4,4,0,0,0-4,4v6H0.08V72H72V10H60.33ZM65,66H7.08V25.22H65V66Z"/><path d="M22.08,61.44h2.5v-8H34.66v8h2.5v-8H47.25v8h2.5v-8h10v-2.5h-10V40.31h10v-2.5h-10v-8h-2.5v8H37.16v-8h-2.5v8H24.58v-8h-2.5v8h-10v2.5h10V50.91h-10v2.5h10v8ZM47.25,40.31V50.91H37.16V40.31H47.25Zm-22.67,0H34.66V50.91H24.58V40.31Z"/></svg>