<?xml version="1.0" encoding="utf-8"?>
<!-- Generator: Adobe Illustrator 18.1.1, SVG Export Plug-In . SVG Version: 6.00 Build 0)  -->
<svg version="1.1" id="レイヤー_1" xmlns="http://www.w3.org/2000/svg" xmlns:xlink="http://www.w3.org/1999/xlink" x="0px"
	 y="0px" viewBox="0 0 72 72" enable-background="new 0 0 72 72" xml:space="preserve">
<path d="M0,17.2v39.3h71.9V17.2H0z M32.3,30.7h-4.1v-0.9c0-0.9-0.2-1.7-0.7-2.4c-0.4-0.7-1.2-1-2.2-1c-0.6,0-1,0.1-1.4,0.3
	c-0.4,0.2-0.6,0.5-0.8,0.8c-0.2,0.3-0.3,0.7-0.4,1.2c-0.1,0.4-0.1,0.9-0.1,1.4c0,0.6,0,1,0.1,1.4c0,0.4,0.1,0.7,0.3,1
	c0.2,0.3,0.4,0.5,0.7,0.7c0.3,0.2,0.7,0.4,1.3,0.6l3.1,1.2c0.9,0.3,1.6,0.8,2.2,1.2c0.6,0.5,1,1,1.3,1.6c0.3,0.6,0.5,1.3,0.6,2.2
	c0.1,0.8,0.2,1.7,0.2,2.8c0,1.2-0.1,2.3-0.4,3.3c-0.2,1-0.6,1.9-1.2,2.6c-0.5,0.7-1.3,1.3-2.2,1.7c-0.9,0.4-2,0.6-3.3,0.6
	c-1,0-1.9-0.2-2.8-0.5c-0.9-0.3-1.6-0.8-2.2-1.4s-1.1-1.3-1.5-2.1c-0.4-0.8-0.5-1.7-0.5-2.7V43h4.1v1.3c0,0.7,0.2,1.4,0.7,2
	s1.2,0.9,2.2,0.9c0.7,0,1.2-0.1,1.6-0.3c0.4-0.2,0.7-0.5,0.9-0.8c0.2-0.4,0.3-0.8,0.4-1.3c0.1-0.5,0.1-1.1,0.1-1.8
	c0-0.7,0-1.4-0.1-1.8c-0.1-0.5-0.2-0.9-0.3-1.2c-0.2-0.3-0.4-0.5-0.7-0.7c-0.3-0.2-0.7-0.4-1.2-0.6L23,37.4
	c-1.8-0.7-2.9-1.7-3.5-2.9c-0.6-1.2-0.9-2.7-0.9-4.5c0-1.1,0.1-2.1,0.4-3c0.3-1,0.7-1.8,1.3-2.5c0.6-0.7,1.3-1.2,2.2-1.7
	c0.9-0.4,1.9-0.6,3.1-0.6c1,0,1.9,0.2,2.8,0.6c0.8,0.4,1.6,0.9,2.2,1.5c0.6,0.6,1.1,1.3,1.4,2.1s0.5,1.5,0.5,2.3V30.7z M39.6,51
	h-4.1V22.5h4.1V51z M55,26.4h-4.7V51h-4.1V26.4h-4.7v-3.8H55V26.4z"/>
</svg>
