<?xml version="1.0" encoding="utf-8"?>
<!-- Generator: Adobe Illustrator 18.1.1, SVG Export Plug-In . SVG Version: 6.00 Build 0)  -->
<svg version="1.1" id="レイヤー_1" xmlns="http://www.w3.org/2000/svg" xmlns:xlink="http://www.w3.org/1999/xlink" x="0px"
	 y="0px" viewBox="0 0 72 72" enable-background="new 0 0 72 72" xml:space="preserve">
<path d="M36.4,5.7L17.6,23.3h11.9v18.5h13.7V23.3h11.9L36.4,5.7z M70,47.3l-11.5-7.7h-7.1L63.7,49H51c-0.4,0-0.7,0.2-0.9,0.5
	l-2.9,8.1H25.6l-2.9-8.1c-0.2-0.3-0.5-0.5-0.9-0.5H9l12.3-9.4h-7.1L2.7,47.3c-1.7,1-2.7,3.4-2.3,5.2l2,11.1C2.9,65.5,4.9,67,6.9,67
	h58.8c2,0,4.1-1.5,4.5-3.4l2-11.1C72.8,50.7,71.7,48.3,70,47.3z"/>
</svg>
