<?xml version="1.0" encoding="utf-8"?>
<!-- Generator: Adobe Illustrator 18.1.1, SVG Export Plug-In . SVG Version: 6.00 Build 0)  -->
<svg version="1.1" id="レイヤー_1" xmlns="http://www.w3.org/2000/svg" xmlns:xlink="http://www.w3.org/1999/xlink" x="0px"
	 y="0px" viewBox="0 0 72 72" enable-background="new 0 0 72 72" xml:space="preserve">
<path d="M64.3,25.8v38.4c0,0.6-0.5,1.1-1.1,1.1H42v3.1l4.9,3c0.5,0.3,0.4,0.6-0.2,0.6H27.9c-0.6,0-0.7-0.3-0.2-0.6l4.7-3v-3.1H11.3
	c-0.6,0-1.1-0.5-1.1-1.1V25.8c0-0.6,0.5-1.1,1.1-1.1h3.8c0.1,0.2,0.3,0.4,0.4,0.6l3.3,3.9h-3c-0.6,0-1.1,0.5-1.1,1.1v24.1
	c0,0.6,0.5,1.1,1.1,1.1h42.8c0.6,0,1.1-0.5,1.1-1.1V30.3c0-0.6-0.5-1.1-1.1-1.1h-4.4l3.3-3.9c0.2-0.2,0.3-0.4,0.5-0.6h5.2
	C63.8,24.8,64.3,25.2,64.3,25.8z M34.6,38.8c0.5,0.6,1.2,0.9,1.9,0.9s1.4-0.3,1.9-0.9L53,21.5c1.1-1.3,0.6-2.3-1.1-2.3h-7.6
	c-0.8,0-1.9,0-3,0V0c0,0-1.3,0-3,0h-3.5c-1.6,0-3,0-3,0v19.2c-1.1,0-2.2,0-3,0h-7.6c-1.6,0-2.1,1-1.1,2.3L34.6,38.8z"/>
</svg>
