<?xml version="1.0" encoding="utf-8"?>
<!-- Generator: Adobe Illustrator 18.1.1, SVG Export Plug-In . SVG Version: 6.00 Build 0)  -->
<svg version="1.1" id="レイヤー_1" xmlns="http://www.w3.org/2000/svg" xmlns:xlink="http://www.w3.org/1999/xlink" x="0px"
	 y="0px" viewBox="0 0 72 72" enable-background="new 0 0 72 72" xml:space="preserve">
<path d="M15.7,29.4c0,0.6,0.1,1.2,0.1,1.9c0,0.7,0,1.4-0.1,2c0,0.6-0.2,1.1-0.4,1.5c-0.2,0.4-0.5,0.7-1,1c-0.5,0.2-1.1,0.4-1.9,0.4
	h-2v-9.7h2.1c0.8,0,1.4,0.1,1.8,0.4c0.4,0.3,0.7,0.6,0.9,1C15.5,28.2,15.6,28.8,15.7,29.4z M31.6,27.8c-0.2-0.4-0.5-0.8-0.9-1
	c-0.4-0.3-1-0.4-1.8-0.4h-2.1v9.7h2c0.8,0,1.5-0.1,1.9-0.4c0.5-0.2,0.8-0.6,1-1c0.2-0.4,0.3-0.9,0.4-1.5c0-0.6,0.1-1.2,0.1-2
	c0-0.7,0-1.3-0.1-1.9C31.9,28.8,31.8,28.2,31.6,27.8z M72,17.2v39.3H0.1V17.2H72z M19.6,31.2c0-1.7-0.1-3.1-0.4-4.1
	c-0.3-1-0.7-1.9-1.4-2.6c-0.7-0.7-1.5-1.3-2.3-1.6c-0.9-0.3-1.8-0.4-3-0.4H6.3V51h4.1V39.9h2.1c1.5,0,2.7-0.3,3.7-0.8
	c0.9-0.5,1.7-1.2,2.2-2.2c0.5-0.8,0.8-1.6,0.9-2.5C19.5,33.5,19.6,32.5,19.6,31.2z M35.9,31.2c0-1.7-0.1-3.1-0.4-4.1
	c-0.3-1-0.7-1.9-1.4-2.6c-0.7-0.7-1.5-1.3-2.3-1.6c-0.9-0.3-1.8-0.4-3-0.4h-6.1V51h4.1V39.9h2.1c1.5,0,2.7-0.3,3.7-0.8
	c0.9-0.5,1.7-1.2,2.2-2.2c0.5-0.8,0.8-1.6,0.9-2.5C35.8,33.5,35.9,32.5,35.9,31.2z M50.4,22.5H36.9v3.8h4.7V51h4.1V26.4h4.7V22.5z
	 M67.9,51L62,36.1l5.4-13.6h-4.3L60,31l-3.1-8.4h-4.3l5.3,13.6L52.2,51h4.3l3.5-9.6l3.6,9.6H67.9z"/>
</svg>
