<?xml version="1.0" encoding="utf-8"?>
<!-- Generator: Adobe Illustrator 18.1.1, SVG Export Plug-In . SVG Version: 6.00 Build 0)  -->
<svg version="1.1" id="レイヤー_1" xmlns="http://www.w3.org/2000/svg" xmlns:xlink="http://www.w3.org/1999/xlink" x="0px"
	 y="0px" viewBox="0 0 72 72" enable-background="new 0 0 72 72" xml:space="preserve">
<path d="M61.6,53H10.4l9.4-14.3c0.5-0.8,1.4-1.3,2.4-1.4c1-0.1,1.9,0.3,2.6,1.1l5.6,6.4l10.2-15.5c0.6-0.9,1.6-1.4,2.6-1.4
	c1.1,0,2,0.5,2.6,1.4L61.6,53z M24.6,32.4c3.5,0,6.4-2.9,6.4-6.4c0-3.5-2.9-6.4-6.4-6.4c-3.5,0-6.4,2.9-6.4,6.4
	C18.2,29.6,21.1,32.4,24.6,32.4z M66,12.4H6v47h60V12.4 M72,6.4v59H0v-59H72L72,6.4z"/>
</svg>
