<?xml version="1.0" encoding="utf-8"?>
<!-- Generator: Adobe Illustrator 18.1.1, SVG Export Plug-In . SVG Version: 6.00 Build 0)  -->
<svg version="1.1" id="レイヤー_1" xmlns="http://www.w3.org/2000/svg" xmlns:xlink="http://www.w3.org/1999/xlink" x="0px"
	 y="0px" viewBox="0 0 72 72" enable-background="new 0 0 72 72" xml:space="preserve">
<path d="M9.3,27L27.6,8.7v54.8L9.4,45.3H0.2V27L9.3,27L9.3,27z M34.6,24.6L31.8,30v0.1c1.7,1.4,2.9,3.5,2.9,5.9
	c0,2.4-1.1,4.5-2.9,5.9v0l2.8,5.5c3.7-2.5,6.1-6.6,6.1-11.4C40.8,31.2,38.3,27,34.6,24.6z M54.7,36c0-10.2-5.6-19.1-13.9-23.7
	l-2.7,5.3v0.1c6.3,3.7,10.5,10.5,10.5,18.3c0,7.8-4.2,14.6-10.5,18.3v0l2.8,5.4C49.2,55,54.7,46.2,54.7,36z M47.1,0l-2.8,5.4
	c10.7,6,18,17.5,18,30.6c0,13.1-7.2,24.5-17.9,30.6l2.8,5.4c12.7-7,21.2-20.5,21.2-36C68.4,20.5,59.8,7,47.1,0z"/>
</svg>
