<?xml version="1.0" encoding="utf-8"?>
<!-- Generator: Adobe Illustrator 18.1.1, SVG Export Plug-In . SVG Version: 6.00 Build 0)  -->
<svg version="1.1" id="レイヤー_1" xmlns="http://www.w3.org/2000/svg" xmlns:xlink="http://www.w3.org/1999/xlink" x="0px"
	 y="0px" viewBox="0 0 72 72" enable-background="new 0 0 72 72" xml:space="preserve">
<path d="M8.3,16L0,24.4L0,0h24.4L16,8.4l13.3,13.3l-7.6,7.6L8.3,16z M63.7,56.1L50.3,42.7l-7.6,7.6L56,63.7L47.6,72H72l0-24.3
	L63.7,56.1z M50.3,29.4L63.6,16l8.3,8.4V0L47.7,0L56,8.3L42.7,21.7L50.3,29.4z M21.7,42.7L8.4,56L0,47.6V72l24.3,0L16,63.7
	l13.4-13.4L21.7,42.7z"/>
</svg>
