<?xml version="1.0" encoding="utf-8"?>
<!-- Generator: Adobe Illustrator 18.1.1, SVG Export Plug-In . SVG Version: 6.00 Build 0)  -->
<svg version="1.1" id="レイヤー_1" xmlns="http://www.w3.org/2000/svg" xmlns:xlink="http://www.w3.org/1999/xlink" x="0px"
	 y="0px" viewBox="0 0 72 72" enable-background="new 0 0 72 72" xml:space="preserve">
<path d="M55.9,53.8c1.7-0.4,4.5-1.1,6.8-2.7l0,14.2C62.8,69,51,72,36.5,72c-0.1,0-0.1,0-0.2,0c-14.4,0-26.1-3-26.1-6.7l0-14.2
	c2.4,1.5,5.2,2.3,6.8,2.7c5.2,1.3,12,2,19.3,2h0.2C43.8,55.9,50.7,55.1,55.9,53.8z M36.5,33.6h-0.2c-7.3,0-14.1-0.7-19.3-2
	c-1.7-0.4-4.5-1.1-6.8-2.7c0,0,0,0,0,0.1l0,14.5c0,3.7,11.7,6.7,26.1,6.7c0.1,0,0.1,0,0.2,0c14.5,0,26.3-3,26.3-6.7l0-14.5
	c0,0,0,0,0,0c-2.4,1.5-5.2,2.3-6.8,2.7C50.7,32.9,43.8,33.6,36.5,33.6z M36.3,27.9c0.1,0,0.1,0,0.2,0c14.5,0,26.3-3,26.3-6.7l0-14.5
	C62.7,3,51.1,0,36.7,0c-0.1,0-0.1,0-0.2,0C21.9,0,10.2,3,10.2,6.7l0,14.5C10.2,24.9,21.9,27.9,36.3,27.9z"/>
</svg>
