<?xml version="1.0" encoding="utf-8"?>
<!-- Generator: Adobe Illustrator 18.1.1, SVG Export Plug-In . SVG Version: 6.00 Build 0)  -->
<svg version="1.1" id="レイヤー_1" xmlns="http://www.w3.org/2000/svg" xmlns:xlink="http://www.w3.org/1999/xlink" x="0px"
	 y="0px" viewBox="0 0 72 72" enable-background="new 0 0 72 72" xml:space="preserve">
<path d="M72,13.4v7.4c-4.3,0-8.4,0.6-12.1,1.7c-2.1,0.6-4,1.4-5.9,2.2c-0.8-0.4-1.6-0.7-2.5-1.1c-4.6-1.8-9.9-2.9-15.6-2.9
	c-4.3,0-8.4,0.6-12.2,1.7c-2.1,0.6-4,1.4-5.9,2.2c-0.8-0.4-1.6-0.7-2.5-1.1c-4.6-1.8-9.8-2.9-15.5-2.9v-7.4H72z M45.1,41.4
	c0,1.9,0.6,3.6,1.5,5c1,1.4,2.3,2.6,3.9,3.2c1.1,0.5,2.2,0.7,3.5,0.7c1.9,0,3.6-0.6,5-1.5c1.4-1,2.6-2.3,3.2-3.9
	c0.5-1.1,0.7-2.2,0.7-3.5c0-0.9-0.2-1.8-0.6-2.8c-0.4-1-1-2-1.8-3c-1.5-2-3.8-3.9-6.6-5.5c-2.2,1.2-4,2.7-5.4,4.1
	c-1.5,1.6-2.6,3.2-3.1,4.7C45.3,39.7,45.1,40.6,45.1,41.4z M62.8,30.9c1.9,2,3.3,4.1,4.1,6.4c0.5,1.3,0.7,2.7,0.7,4
	c0,2.8-0.9,5.4-2.3,7.6c-1.5,2.2-3.5,3.9-6,4.9c-1.6,0.7-3.4,1.1-5.3,1.1c-2.8,0-5.4-0.9-7.6-2.3c-2.2-1.5-3.9-3.5-4.9-6
	c-0.7-1.6-1.1-3.4-1.1-5.3c0-2.1,0.6-4.1,1.6-6c1-1.9,2.4-3.7,4.1-5.3c0.9-0.8,1.9-1.6,2.9-2.4c-0.7-0.3-1.4-0.5-2.2-0.7
	c-3.3-1-7-1.5-10.9-1.5c-4.8,0-9.2,0.9-13.1,2.3c1.4,1,2.7,2.1,3.8,3.2c1.9,2,3.3,4.1,4.1,6.4c0.5,1.3,0.7,2.7,0.7,4
	c0,2.8-0.9,5.4-2.3,7.6c-1.5,2.2-3.5,3.9-6,4.9C21.6,54.6,19.8,55,18,55c-2.8,0-5.4-0.9-7.6-2.3c-2.2-1.5-3.9-3.5-4.9-6
	c-0.7-1.6-1.1-3.4-1.1-5.3c0-2.1,0.6-4.1,1.6-6c1-1.9,2.4-3.7,4.1-5.3c0.9-0.8,1.9-1.6,2.9-2.4c-0.7-0.3-1.4-0.5-2.2-0.7
	C7.5,26,3.9,25.4,0,25.4v35.3h72V25.4c-4.7,0-9.2,0.9-13,2.3C60.5,28.7,61.7,29.8,62.8,30.9z M9,41.4c0,1.9,0.6,3.6,1.5,5
	c1,1.4,2.3,2.6,3.9,3.2c1.1,0.5,2.2,0.7,3.5,0.7c1.9,0,3.6-0.6,5-1.5c1.4-1,2.6-2.3,3.2-3.9c0.5-1.1,0.7-2.2,0.7-3.5
	c0-0.9-0.2-1.8-0.6-2.8c-0.4-1-1-2-1.8-3c-1.5-2-3.8-3.9-6.6-5.5c-2.2,1.2-4,2.7-5.4,4.1c-1.5,1.6-2.6,3.2-3.1,4.7
	C9.2,39.7,9,40.6,9,41.4z"/>
</svg>
