<?xml version="1.0" encoding="utf-8"?>
<!-- Generator: Adobe Illustrator 18.1.1, SVG Export Plug-In . SVG Version: 6.00 Build 0)  -->
<svg version="1.1" id="レイヤー_1" xmlns="http://www.w3.org/2000/svg" xmlns:xlink="http://www.w3.org/1999/xlink" x="0px"
	 y="0px" viewBox="0 0 72 72" enable-background="new 0 0 72 72" xml:space="preserve">
<g>
	<circle cx="19.6" cy="64.2" r="8"/>
	<circle cx="59.6" cy="64.2" r="8"/>
	<path d="M25.8,45.3l44.3-12.7c0.8-0.2,1.5-1.2,1.5-2v-22H15.2V1.8c0-0.9-0.7-1.6-1.6-1.6H1.2C0.3,0.2-0.4,1-0.4,1.8v6.4h7.8
		l7.9,36.2l0.8,3.8v6c0,0.9,0.7,1.6,1.6,1.6h2h40H70c0.9,0,1.6-0.7,1.6-1.6v-6h-45C22,48.2,21.9,46.4,25.8,45.3z"/>
</g>
</svg>
