<?xml version="1.0" encoding="utf-8"?>
<!-- Generator: Adobe Illustrator 18.1.1, SVG Export Plug-In . SVG Version: 6.00 Build 0)  -->
<svg version="1.1" id="レイヤー_1" xmlns="http://www.w3.org/2000/svg" xmlns:xlink="http://www.w3.org/1999/xlink" x="0px"
	 y="0px" viewBox="0 0 72 72" enable-background="new 0 0 72 72" xml:space="preserve">
<path d="M55.9,31.4V19.6C55.9,8.8,47.1,0,36.3,0c-0.1,0-0.2,0-0.4,0c-0.1,0-0.2,0-0.4,0C24.7,0,15.9,8.8,15.9,19.6v11.8H9V72h54
	V31.4H55.9z M25.7,19.6c0-5.4,4.4-9.8,9.8-9.8c0.2,0,0.5,0,0.5,0s0.2,0,0.2,0c5.4,0,9.8,4.4,9.8,9.8v11.8H25.7V19.6z"/>
</svg>
