<?xml version="1.0" encoding="utf-8"?>
<!-- Generator: Adobe Illustrator 18.1.1, SVG Export Plug-In . SVG Version: 6.00 Build 0)  -->
<svg version="1.1" id="レイヤー_1" xmlns="http://www.w3.org/2000/svg" xmlns:xlink="http://www.w3.org/1999/xlink" x="0px"
	 y="0px" viewBox="0 0 72 72" enable-background="new 0 0 72 72" xml:space="preserve">
<path d="M38.3,57.6c0,3.3-2.6,5.9-5.9,5.9c-3.3,0-5.9-2.6-5.9-5.9c0-3.3,2.6-5.9,5.9-5.9C35.7,51.7,38.3,54.3,38.3,57.6z M54.6,51.7
	c-3.3,0-5.9,2.6-5.9,5.9c0,3.3,2.6,5.9,5.9,5.9c3.3,0,5.9-2.6,5.9-5.9C60.5,54.3,57.9,51.7,54.6,51.7z M69.6,17.5
	c1.3,0.4,2.1,1.5,2.1,2.8c0,0.3,0,0.6-0.1,0.8L64,46.3c-0.4,1.2-1.5,2.1-2.8,2.1H25.4c-1.3,0-2.5-0.9-2.8-2.2l-6.9-28H2.9
	c-1.6,0-2.9-1.3-2.9-2.9c0-1.6,1.3-2.9,2.9-2.9H18c1.3,0,2.5,0.9,2.8,2.2l1.5,6.3h43.2l0.4-1.3c0.4-1.3,1.5-2.1,2.8-2.1
	C69,17.4,69.3,17.4,69.6,17.5 M63.8,26.6h-40l3.9,15.9H59l0.2-0.6L63.8,26.6z"/>
</svg>
