<?xml version="1.0" encoding="utf-8"?>
<!-- Generator: Adobe Illustrator 18.1.1, SVG Export Plug-In . SVG Version: 6.00 Build 0)  -->
<svg version="1.1" id="レイヤー_1" xmlns="http://www.w3.org/2000/svg" xmlns:xlink="http://www.w3.org/1999/xlink" x="0px"
	 y="0px" viewBox="0 0 72 72" enable-background="new 0 0 72 72" xml:space="preserve">
<path d="M61.2,40.8l-4.9-12.3c-0.9-2.3-2.9-4.3-6.6-4.3h-6.9V21c0-1.3-0.7-1.9-1.8-1.9h-4h0h0h0h-4c-1.1,0-1.8,0.7-1.8,1.9v3.2h-6.9
	c-3.7,0-5.7,2-6.6,4.3l-4.9,12.3c-1.9,0.2-5.3,2.5-5.3,6.6v15.6h4.7v5c0,6.1,8.9,6.1,8.9,0v-5H37h0h0h0H53v5c0,6.1,8.9,6.1,8.9,0v-5
	h4.7V47.5C66.5,43.3,63.1,41.1,61.2,40.8z M16.8,53.5c-2.3,0-4.1-1.9-4.1-4.1c0-2.3,1.8-4.1,4.1-4.1c2.3,0,4.1,1.9,4.1,4.1
	C20.9,51.7,19,53.5,16.8,53.5z M37,40.5L37,40.5L37,40.5H17.8l3.7-9.5c0.5-1.4,1.1-2.3,2.7-2.4H37h0h0h12.8c1.6,0,2.3,1,2.7,2.4
	l3.7,9.5H37z M57.2,53.5c-2.3,0-4.1-1.9-4.1-4.1c0-2.3,1.8-4.1,4.1-4.1c2.3,0,4.1,1.9,4.1,4.1C61.3,51.7,59.5,53.5,57.2,53.5z"/>
</svg>
