<?xml version="1.0" encoding="utf-8"?>
<!-- Generator: Adobe Illustrator 18.1.1, SVG Export Plug-In . SVG Version: 6.00 Build 0)  -->
<svg version="1.1" id="レイヤー_1" xmlns="http://www.w3.org/2000/svg" xmlns:xlink="http://www.w3.org/1999/xlink" x="0px"
	 y="0px" viewBox="0 0 72 72" enable-background="new 0 0 72 72" xml:space="preserve">
<path d="M23.3,29.4c0,0.6,0.1,1.2,0.1,1.9c0,0.7,0,1.4-0.1,2c0,0.6-0.2,1.1-0.4,1.5c-0.2,0.4-0.5,0.7-1,1c-0.5,0.2-1.1,0.4-1.9,0.4
	h-2v-9.7h2.1c0.8,0,1.4,0.1,1.8,0.4c0.4,0.3,0.7,0.6,0.9,1C23.2,28.2,23.3,28.8,23.3,29.4z M72,17.2v39.3H0.1V17.2H72z M27.2,31.2
	c0-1.7-0.1-3.1-0.4-4.1c-0.3-1-0.7-1.9-1.4-2.6s-1.5-1.3-2.3-1.6c-0.9-0.3-1.8-0.4-3-0.4H14V51h4.1V39.9h2.1c1.5,0,2.7-0.3,3.7-0.8
	c0.9-0.5,1.7-1.2,2.2-2.2c0.5-0.8,0.8-1.6,0.9-2.5C27.2,33.5,27.2,32.5,27.2,31.2z M43.5,29.9c0-2.3-0.6-4.1-1.8-5.4s-3-1.9-5.3-1.9
	h-6V51H36c2.4,0,4.3-0.6,5.6-1.9c1.3-1.3,1.9-3.2,1.9-5.9V29.9z M59.5,22.5H47.3V51h4.1V38.9h7V35h-7v-8.6h8.1V22.5z M36.2,26.4
	h-1.9v20.8h1.9c1.1,0,2-0.3,2.4-0.9c0.5-0.6,0.7-1.5,0.7-2.7V29.9c0-1.1-0.2-2-0.7-2.6C38.3,26.7,37.4,26.4,36.2,26.4z"/>
</svg>
