<?xml version="1.0" encoding="utf-8"?>
<!-- Generator: Adobe Illustrator 18.1.1, SVG Export Plug-In . SVG Version: 6.00 Build 0)  -->
<svg version="1.1" id="レイヤー_1" xmlns="http://www.w3.org/2000/svg" xmlns:xlink="http://www.w3.org/1999/xlink" x="0px"
	 y="0px" viewBox="0 0 72 72" enable-background="new 0 0 72 72" xml:space="preserve">
<path d="M59.1,23.2c-3.9,0-7.4,1.8-9.8,4.6l-24.1-12c0.2-0.9,0.3-1.9,0.3-2.9C25.6,5.7,19.8,0,12.8,0S-0.1,5.7-0.1,12.8
	c0,7.1,5.7,12.8,12.8,12.8c3.9,0,7.5-1.8,9.8-4.6l24.1,12C46.4,34,46.3,35,46.3,36c0,1,0.1,2,0.3,2.9l-24.1,12
	c-2.4-2.8-5.9-4.6-9.8-4.6c-7.1,0-12.8,5.7-12.8,12.8c0,7.1,5.7,12.8,12.8,12.8c7.1,0,12.8-5.7,12.8-12.8c0-1-0.1-2-0.3-2.9l24.1-12
	c2.4,2.8,5.9,4.6,9.8,4.6c7.1,0,12.8-5.7,12.8-12.8C71.9,28.9,66.2,23.2,59.1,23.2z"/>
</svg>
