<?xml version="1.0" encoding="utf-8"?>
<!-- Generator: Adobe Illustrator 18.1.1, SVG Export Plug-In . SVG Version: 6.00 Build 0)  -->
<svg version="1.1" id="レイヤー_1" xmlns="http://www.w3.org/2000/svg" xmlns:xlink="http://www.w3.org/1999/xlink" x="0px"
	 y="0px" viewBox="0 0 72 72" enable-background="new 0 0 72 72" xml:space="preserve">
<g>
	<path d="M33.3,21.3c-1.3-4.6-3.4-6-6.7-6c-0.4,0-0.7,0-1.1,0.1c-1.4,0.4-2.6,1.6-3.2,3.4c-0.6,1.8-0.7,3.7-0.1,5.8
		c1,3.8,3.7,6.6,6.4,6.6c0.4,0,0.7,0,1.1-0.1C32.6,30.2,34.5,25.7,33.3,21.3z"/>
	<path d="M28.5,42.3c-0.3,0-0.6,0-0.8,0c-2.4,0.2-4.6,1.1-6.2,2.5c-1.6,1.4-2.4,3.3-2.3,5.1c0.2,3.9,4.4,6.1,9.4,5.8
		c5-0.4,8.3-3.2,8-7.1C36.3,45.1,33.2,42.3,28.5,42.3z"/>
	<path d="M63.2,0h-54c-4.9,0-9,4.1-9,9v54c0,5,4.1,9,9,9h16h11.3h13h13.7c5,0,9-4,9-9V9C72.2,4.1,68.1,0,63.2,0z M35.2,58.4
		c-3.3,1.6-6.8,1.8-8.2,1.8c-0.3,0-0.4,0-0.4,0c0,0-0.1,0-0.3,0c-2.1,0-12.7-0.5-12.7-10.1c0-9.5,11.5-10.2,15.1-10.2l0.1,0
		c-2-2.7-1.6-5.5-1.6-5.5c-0.2,0-0.4,0-0.8,0c-1.3,0-3.9-0.2-6.1-1.6c-2.7-1.7-4.1-4.7-4.1-8.8c0-11.6,12.6-12,12.8-12h12.6v0.3
		c0,1.4-2.5,1.7-4.3,1.9c-0.6,0.1-1.8,0.2-2.1,0.4c3.2,1.7,3.7,4.4,3.7,8.4c0,4.5-1.8,7-3.7,8.6c-1.2,1-2.1,1.9-2.1,3
		c0,1.1,1.3,2.2,2.7,3.5c2.4,2.1,5.7,5,5.7,9.8C41.6,52.8,39.4,56.4,35.2,58.4z M62.8,36h-8.2v8.2h-5.2V36h-8.2v-5.2h8.2v-8.2h5.2
		v8.2h8.2V36z"/>
</g>
</svg>
