<?xml version="1.0" encoding="utf-8"?>
<!-- Generator: Adobe Illustrator 18.1.1, SVG Export Plug-In . SVG Version: 6.00 Build 0)  -->
<svg version="1.1" id="レイヤー_1" xmlns="http://www.w3.org/2000/svg" xmlns:xlink="http://www.w3.org/1999/xlink" x="0px"
	 y="0px" viewBox="0 0 72 72" enable-background="new 0 0 72 72" xml:space="preserve">
<path d="M13.5,27.3c0.5,0.6,0.7,1.5,0.7,2.6v13.7c0,1.2-0.2,2.1-0.7,2.7c-0.5,0.6-1.3,0.9-2.4,0.9H9.1V26.4H11
	C12.2,26.4,13,26.7,13.5,27.3z M28.7,26.4c-0.7,0-1.4,0.2-1.9,0.7c-0.5,0.5-0.8,1.2-0.8,2.2v15c0,1,0.3,1.7,0.8,2.2
	c0.5,0.5,1.2,0.7,1.9,0.7c0.7,0,1.4-0.2,1.9-0.7c0.5-0.5,0.8-1.2,0.8-2.2v-15c0-1-0.3-1.7-0.8-2.2C30.1,26.6,29.4,26.4,28.7,26.4z
	 M71.9,17.2v39.3H0V17.2H71.9z M18.2,29.9c0-2.3-0.6-4.1-1.8-5.4c-1.2-1.3-3-1.9-5.3-1.9H5V51h5.7c2.4,0,4.3-0.6,5.6-1.9
	c1.3-1.3,1.9-3.2,1.9-5.9V29.9z M35.5,29.3c0-1.1-0.2-2.2-0.6-3S34,24.6,33.3,24c-0.7-0.6-1.4-1-2.2-1.3c-0.8-0.3-1.6-0.4-2.5-0.4
	s-1.6,0.1-2.5,0.4C25.4,23,24.7,23.5,24,24c-0.7,0.6-1.2,1.3-1.6,2.2c-0.4,0.9-0.6,1.9-0.6,3v15c0,1.2,0.2,2.2,0.6,3.1
	c0.4,0.9,0.9,1.6,1.6,2.2c0.7,0.6,1.4,1,2.2,1.3c0.8,0.3,1.6,0.4,2.5,0.4s1.6-0.1,2.5-0.4c0.8-0.3,1.5-0.7,2.2-1.3
	c0.7-0.6,1.2-1.3,1.6-2.2s0.6-1.9,0.6-3.1V29.3z M52.1,29.1c0-1-0.2-1.9-0.5-2.7c-0.3-0.8-0.8-1.6-1.4-2.2c-0.6-0.6-1.3-1.1-2.1-1.4
	c-0.8-0.3-1.7-0.5-2.6-0.5c-1,0-1.9,0.2-2.7,0.5c-0.8,0.3-1.5,0.8-2.1,1.4c-0.6,0.6-1,1.3-1.4,2.1s-0.5,1.7-0.5,2.6v15.7
	c0,1.3,0.2,2.4,0.6,3.2c0.4,0.9,0.9,1.5,1.6,2.1c0.6,0.5,1.4,0.9,2.2,1.1c0.8,0.2,1.6,0.3,2.4,0.3c0.9,0,1.8-0.2,2.5-0.5
	c0.8-0.4,1.5-0.8,2.1-1.4s1-1.3,1.4-2.1c0.3-0.8,0.5-1.6,0.5-2.5v-1.8H48v1.4c0,0.6-0.1,1-0.2,1.4c-0.2,0.4-0.4,0.7-0.6,0.9
	c-0.3,0.2-0.5,0.4-0.8,0.5c-0.3,0.1-0.6,0.1-0.9,0.1c-0.9,0-1.6-0.3-1.9-0.8c-0.4-0.6-0.5-1.3-0.5-2.1V29.7c0-1,0.2-1.8,0.5-2.4
	c0.3-0.6,1-0.9,2-0.9c0.8,0,1.4,0.3,1.8,0.9s0.7,1.3,0.7,2.1v1.4h4.1V29.1z M69.1,51l-5.9-14.9l5.4-13.6h-4.3L61.2,31l-3.1-8.4h-4.3
	l5.3,13.6L53.4,51h4.3l3.5-9.6l3.6,9.6H69.1z"/>
</svg>
