<?xml version="1.0" encoding="utf-8"?>
<!-- Generator: Adobe Illustrator 18.1.1, SVG Export Plug-In . SVG Version: 6.00 Build 0)  -->
<svg version="1.1" id="レイヤー_1" xmlns="http://www.w3.org/2000/svg" xmlns:xlink="http://www.w3.org/1999/xlink" x="0px"
	 y="0px" viewBox="0 0 72 72" enable-background="new 0 0 72 72" xml:space="preserve">
<path d="M58.6,21l8.4,8.3l-24.3,0V5l8.3,8.4L64.3,0L72,7.7L58.6,21z M13.4,51L0,64.4L7.7,72L21,58.7l8.3,8.4V42.7L5,42.7L13.4,51z
	 M72,64.4L58.7,51l8.4-8.3H42.7l0,24.3l8.3-8.4L64.4,72L72,64.4z M0,7.7L13.3,21L5,29.4h24.4l0-24.3L21,13.4L7.6,0.1L0,7.7z"/>
</svg>
