<?xml version="1.0" encoding="utf-8"?>
<!-- Generator: Adobe Illustrator 18.1.1, SVG Export Plug-In . SVG Version: 6.00 Build 0)  -->
<svg version="1.1" id="レイヤー_1" xmlns="http://www.w3.org/2000/svg" xmlns:xlink="http://www.w3.org/1999/xlink" x="0px"
	 y="0px" viewBox="0 0 72 72" enable-background="new 0 0 72 72" xml:space="preserve">
<path d="M69.8,17.6h-15c0,0,0,0,0-0.1l-2-6.1c-0.5-1.1-1.9-1.9-3.1-1.9H22.2c-1.2,0-2.6,0.9-3.1,1.9l-2,6.1c0,0,0,0,0,0.1H2.1
	c-1.2,0-2.1,1-2.1,2.1v40.6c0,1.2,1,2.1,2.1,2.1h67.7c1.2,0,2.1-1,2.1-2.1V19.8C72,18.6,71,17.6,69.8,17.6z M35.9,55.3
	c-8.6,0-15.5-7-15.5-15.5c0-8.6,7-15.5,15.5-15.5s15.5,7,15.5,15.5C51.5,48.3,44.5,55.3,35.9,55.3z"/>
</svg>
