<?xml version="1.0" encoding="utf-8"?>
<!-- Generator: Adobe Illustrator 18.1.1, SVG Export Plug-In . SVG Version: 6.00 Build 0)  -->
<svg version="1.1" id="レイヤー_1" xmlns="http://www.w3.org/2000/svg" xmlns:xlink="http://www.w3.org/1999/xlink" x="0px"
	 y="0px" viewBox="0 0 72 72" enable-background="new 0 0 72 72" xml:space="preserve">
<path d="M54.4,57.3L72,72V20L54,0L36,15L18,0L0,20v52l18-15l15,12.5v0.3h0.3L36,72l2.7-2.2H39v-0.3l14.6-12.2H54.4z M66,59.2
	l-8.2-6.8L57,51.7V12.3l9,10V59.2z M6,59.2V22.3l9-10v39.4l-0.8,0.7L6,59.2z M21.9,52.4L21,51.7V10.3l11.2,9.3l0.8,0.7v41.4
	L21.9,52.4z M39,61.7V20.3l0.8-0.7L51,10.3v41.4l-0.8,0.7L39,61.7z"/>
</svg>
