<?xml version="1.0" encoding="utf-8"?>
<!-- Generator: Adobe Illustrator 18.1.1, SVG Export Plug-In . SVG Version: 6.00 Build 0)  -->
<svg version="1.1" id="レイヤー_1" xmlns="http://www.w3.org/2000/svg" xmlns:xlink="http://www.w3.org/1999/xlink" x="0px"
	 y="0px" viewBox="0 0 72 72" enable-background="new 0 0 72 72" xml:space="preserve">
<path d="M9.2,27L27.5,8.7v54.8L9.3,45.3H0.1V27L9.2,27L9.2,27z M34.5,24.6L31.7,30v0.1c1.7,1.4,2.9,3.5,2.9,5.9
	c0,2.4-1.1,4.5-2.9,5.9v0l2.8,5.5c3.7-2.5,6.1-6.6,6.1-11.4C40.7,31.2,38.2,27,34.5,24.6z M54.6,36c0-10.2-5.6-19.1-13.9-23.7
	L38,17.6v0.1c6.3,3.7,10.5,10.5,10.5,18.3c0,7.8-4.2,14.6-10.5,18.3v0l2.8,5.4C49,55,54.6,46.2,54.6,36z"/>
</svg>
