<?xml version="1.0" encoding="utf-8"?>
<!-- Generator: Adobe Illustrator 18.1.1, SVG Export Plug-In . SVG Version: 6.00 Build 0)  -->
<svg version="1.1" id="レイヤー_1" xmlns="http://www.w3.org/2000/svg" xmlns:xlink="http://www.w3.org/1999/xlink" x="0px"
	 y="0px" viewBox="0 0 72 72" enable-background="new 0 0 72 72" xml:space="preserve">
<path d="M66.1,19.2l-2.7-4c-0.5-0.7-1.6-1.3-2.4-1.3h-6.3V8.4c0-0.9-0.5-2-1.1-2.6L49,1.2c-0.6-0.6-1.8-1.1-2.6-1.1h-19
	c-0.9,0-2,0.5-2.6,1.1l-4.3,4.3c-0.6,0.6-1.1,1.8-1.1,2.6v5.8h-6.6c-0.9,0-1.9,0.6-2.4,1.3l-2.7,4c-0.5,0.7-0.2,1.3,0.7,1.3l4.6,0
	l4,50c0,0.8,0.7,1.5,1.5,1.5h37.2c0.9,0,1.5-0.7,1.5-1.5l4-50l4.2,0C66.3,20.5,66.6,19.9,66.1,19.2z M25.8,13.6v-2.8
	c0-0.8,0.5-2,1.1-2.6l0.5-0.5C28,7,29.2,6.5,30,6.5h13.7c0.9,0,2,0.5,2.6,1.1l0.8,0.8c0.6,0.6,1.1,1.8,1.1,2.6v2.5
	c0,0.1,0,0.2,0,0.3H25.8C25.8,13.8,25.8,13.7,25.8,13.6z M54.8,22l-4,42c0,0.8-0.7,1.5-1.5,1.5H24.9c-0.9,0-1.5-0.7-1.5-1.5l-4-42
	c0-0.8,0.7-1.5,1.5-1.5h7.9l24.6,0C54.2,20.6,54.8,21.2,54.8,22z M28.5,59.8V26.4c0-0.8,0.7-1.5,1.5-1.5h1.9c0.9,0,1.5,0.7,1.5,1.5
	v33.4c0,0.8-0.7,1.5-1.5,1.5H30C29.2,61.3,28.5,60.7,28.5,59.8z M41.2,59.8V26.4c0-0.8,0.7-1.5,1.5-1.5h1.9c0.9,0,1.5,0.7,1.5,1.5
	v33.4c0,0.8-0.7,1.5-1.5,1.5h-1.9C41.9,61.3,41.2,60.7,41.2,59.8z"/>
</svg>
