<?xml version="1.0" encoding="utf-8"?>
<!-- Generator: Adobe Illustrator 18.1.1, SVG Export Plug-In . SVG Version: 6.00 Build 0)  -->
<svg version="1.1" id="レイヤー_1" xmlns="http://www.w3.org/2000/svg" xmlns:xlink="http://www.w3.org/1999/xlink" x="0px"
	 y="0px" viewBox="0 0 72 72" enable-background="new 0 0 72 72" xml:space="preserve">
<g>
	<circle cx="35.9" cy="55.6" r="2.4"/>
	<rect x="32.1" y="13.4" width="7.7" height="2"/>
	<rect x="25.5" y="18.3" width="21.1" height="31.8"/>
	<path d="M35.9,0C16,0-0.1,16.1-0.1,36c0,19.9,16.1,36,36,36c19.9,0,36-16.1,36-36C71.9,16.1,55.7,0,35.9,0z M50.5,57.2
		c0,2-1.6,3.6-3.6,3.6H25.1c-2,0-3.6-1.6-3.6-3.6V14.1c0-2,1.6-3.6,3.6-3.6h21.7c2,0,3.6,1.6,3.6,3.6V57.2z"/>
</g>
</svg>
