<?xml version="1.0" encoding="utf-8"?>
<!-- Generator: Adobe Illustrator 18.1.1, SVG Export Plug-In . SVG Version: 6.00 Build 0)  -->
<svg version="1.1" id="レイヤー_1" xmlns="http://www.w3.org/2000/svg" xmlns:xlink="http://www.w3.org/1999/xlink" x="0px"
	 y="0px" viewBox="0 0 72 72" enable-background="new 0 0 72 72" xml:space="preserve">
<path d="M53.5,5.1c7.5,0,13.6,7,13.6,15.6c0,1.8-0.3,3.7-0.9,5.4c-0.1,0.2-0.1,0.4-0.2,0.7c-2.9,9.4-9.2,23.3-30.1,39.1
	C13,48.5,7.9,33.1,6,26.8c0-0.2-0.1-0.4-0.1-0.6C5.3,24.4,5,22.6,5,20.8c0-8.6,6.1-15.6,13.6-15.6c5.6,0,10.7,4.1,12.7,10.2
	c0.7,2.1,2.6,3.5,4.8,3.5c2.2,0,4.1-1.4,4.8-3.5C42.8,9.2,47.9,5.1,53.5,5.1 M53.5,0.1c-8,0-14.9,5.7-17.5,13.6
	C33.5,5.8,26.6,0.1,18.6,0.1C8.3,0.1,0,9.4,0,20.8c0,2.5,0.4,4.8,1.1,7l0,0c2.7,9,9,25.8,34.8,44.4C61.7,53.6,68.3,36.8,71,27.8l0,0
	c0.7-2.2,1.1-4.5,1.1-7C72.1,9.4,63.8,0.1,53.5,0.1L53.5,0.1z"/>
</svg>
