<?xml version="1.0" encoding="utf-8"?>
<!-- Generator: Adobe Illustrator 18.1.1, SVG Export Plug-In . SVG Version: 6.00 Build 0)  -->
<svg version="1.1" id="レイヤー_1" xmlns="http://www.w3.org/2000/svg" xmlns:xlink="http://www.w3.org/1999/xlink" x="0px"
	 y="0px" viewBox="0 0 72 72" enable-background="new 0 0 72 72" xml:space="preserve">
<path d="M16.6,51.9c0.5-0.5,0.5-1.2,0-1.6C16.5,50.1,16.3,50,16,50l-7.9-1.8c-0.2,0-0.4-0.1-0.6-0.3c-0.5-0.5-0.5-1.2,0-1.6l2.5-2.5
	c0.4-0.4,0.9-0.6,1.3-0.6l12.3,0c0.5,0,1-0.3,1.4-0.7l9.1-9.8c0.5-0.5,0.5-1.2,0-1.6c-0.1-0.1-0.2-0.2-0.4-0.2L1,20.1
	c-0.1-0.1-0.3-0.1-0.4-0.3c-0.5-0.5-0.5-1.2,0-1.6l2.3-2.2c0.4-0.4,0.9-0.6,1.4-0.6l0.8,0l44.5,0c0.5,0,1-0.2,1.4-0.6l0.8-0.8
	l9.8-10.6c2-2,7.2-3.9,9.2-1.8l0,0c2,2,0.2,7.2-1.8,9.2l-10.6,9.8l-0.8,0.8c-0.4,0.4-0.6,0.9-0.6,1.4l0,45.3c0,0.5-0.2,1-0.6,1.4
	l-2.2,2.3c-0.5,0.5-1.2,0.5-1.6,0c-0.1-0.1-0.2-0.2-0.3-0.4l-10.7-33c-0.1-0.1-0.1-0.2-0.2-0.4c-0.5-0.5-1.2-0.5-1.6,0L29.8,47
	c-0.4,0.4-0.6,0.9-0.6,1.4l-0.1,12.4c0,0.5-0.2,1-0.6,1.3L26,64.6c-0.5,0.5-1.2,0.5-1.6,0c-0.2-0.2-0.3-0.4-0.3-0.6l-1.8-7.9
	c0-0.2-0.2-0.4-0.3-0.6c-0.5-0.5-1.2-0.5-1.6,0c0,0,0.2-0.2-0.9,0.9c-1.1,1.1-3.7,2-4.7,1c-1-1-0.1-3.6,0.9-4.6L16.6,51.9L16.6,51.9
	z"/>
</svg>
