<?xml version="1.0" encoding="utf-8"?>
<!-- Generator: Adobe Illustrator 18.1.1, SVG Export Plug-In . SVG Version: 6.00 Build 0)  -->
<svg version="1.1" id="レイヤー_1" xmlns="http://www.w3.org/2000/svg" xmlns:xlink="http://www.w3.org/1999/xlink" x="0px"
	 y="0px" viewBox="0 0 72 72" enable-background="new 0 0 72 72" xml:space="preserve">
<path d="M72.1,13.3c-2.7,1.2-5.5,2-8.5,2.3c3.1-1.8,5.4-4.7,6.5-8.2c-2.9,1.7-6,2.9-9.4,3.6C58,8.1,54.2,6.3,49.9,6.3
	c-8.2,0-14.8,6.6-14.8,14.8c0,1.2,0.1,2.3,0.4,3.4C23.2,23.9,12.3,18,5,9c-1.3,2.2-2,4.7-2,7.4c0,5.1,2.6,9.7,6.6,12.3
	c-2.4-0.1-4.7-0.7-6.7-1.8c0,0.1,0,0.1,0,0.2c0,7.2,5.1,13.1,11.9,14.5c-1.2,0.3-2.5,0.5-3.9,0.5c-1,0-1.9-0.1-2.8-0.3
	C10,47.8,15.4,52,21.9,52.2c-5.1,4-11.4,6.3-18.4,6.3c-1.2,0-2.4-0.1-3.5-0.2c6.5,4.2,14.3,6.6,22.7,6.6c27.2,0,42.1-22.5,42.1-42.1
	c0-0.6,0-1.3,0-1.9C67.6,18.8,70.1,16.2,72.1,13.3z"/>
</svg>
