<?xml version="1.0" encoding="utf-8"?>
<!-- Generator: Adobe Illustrator 18.1.1, SVG Export Plug-In . SVG Version: 6.00 Build 0)  -->
<svg version="1.1" id="レイヤー_1" xmlns="http://www.w3.org/2000/svg" xmlns:xlink="http://www.w3.org/1999/xlink" x="0px"
	 y="0px" viewBox="0 0 72 72" enable-background="new 0 0 72 72" xml:space="preserve">
<path d="M61.3,11.7L34.7,1.4c-2.1-0.8-4.4,0.2-5.2,2.3l-20,51.7c-0.8,2.1,0.2,4.4,2.3,5.2l26.6,10.3c2.1,0.8,4.4-0.2,5.2-2.3
	l20-51.7C64.4,14.8,63.3,12.5,61.3,11.7z M42,8.2l9,3.5L50.2,14l-9-3.5L42,8.2z M30.2,60.7c-0.6,1.5-2.3,2.3-3.9,1.7
	c-1.5-0.6-2.3-2.3-1.7-3.9c0.6-1.5,2.3-2.3,3.9-1.7C30,57.4,30.8,59.2,30.2,60.7z M42.4,58l-24.8-9.6L32,11l24.8,9.6L42.4,58z"/>
</svg>
