<?xml version="1.0" encoding="utf-8"?>
<!-- Generator: Adobe Illustrator 18.1.1, SVG Export Plug-In . SVG Version: 6.00 Build 0)  -->
<svg version="1.1" id="レイヤー_1" xmlns="http://www.w3.org/2000/svg" xmlns:xlink="http://www.w3.org/1999/xlink" x="0px"
	 y="0px" viewBox="0 0 72 72" enable-background="new 0 0 72 72" xml:space="preserve">
<path d="M35.7,30.7l2,10.3h-4.1L35.7,30.7L35.7,30.7z M51.7,26.4h-1.9v20.8h1.9c1.1,0,2-0.3,2.4-0.9c0.5-0.6,0.7-1.5,0.7-2.7V29.9
	c0-1.1-0.2-2-0.7-2.6C53.7,26.7,52.9,26.4,51.7,26.4z M71.9,17.2v39.3H0V17.2H71.9z M26.1,29.1c0-1-0.2-1.9-0.5-2.7
	c-0.3-0.8-0.8-1.6-1.4-2.2c-0.6-0.6-1.3-1.1-2.1-1.4c-0.8-0.3-1.7-0.5-2.6-0.5c-1,0-1.9,0.2-2.7,0.5c-0.8,0.3-1.5,0.8-2.1,1.4
	c-0.6,0.6-1,1.3-1.4,2.1s-0.5,1.7-0.5,2.6v15.7c0,1.3,0.2,2.4,0.6,3.2c0.4,0.9,0.9,1.5,1.6,2.1c0.6,0.5,1.4,0.9,2.2,1.1
	c0.8,0.2,1.6,0.3,2.4,0.3c0.9,0,1.8-0.2,2.5-0.5c0.8-0.4,1.5-0.8,2.1-1.4c0.6-0.6,1-1.3,1.4-2.1c0.3-0.8,0.5-1.6,0.5-2.5v-1.8h-4.1
	v1.4c0,0.6-0.1,1-0.2,1.4c-0.2,0.4-0.4,0.7-0.6,0.9c-0.3,0.2-0.5,0.4-0.8,0.5c-0.3,0.1-0.6,0.1-0.9,0.1c-0.9,0-1.6-0.3-1.9-0.8
	c-0.4-0.6-0.5-1.3-0.5-2.1V29.7c0-1,0.2-1.8,0.5-2.4c0.3-0.6,1-0.9,2-0.9c0.8,0,1.4,0.3,1.8,0.9c0.5,0.6,0.7,1.3,0.7,2.1v1.4h4.1
	V29.1z M43.7,51l-6.4-28.5H34L27.6,51h4.1l1.2-6.1h5.6l1.2,6.1H43.7z M58.9,29.9c0-2.3-0.6-4.1-1.8-5.4s-3-1.9-5.3-1.9h-6V51h5.7
	c2.4,0,4.3-0.6,5.6-1.9c1.3-1.3,1.9-3.2,1.9-5.9V29.9z"/>
</svg>
