<?xml version="1.0" encoding="utf-8"?>
<!-- Generator: Adobe Illustrator 18.1.1, SVG Export Plug-In . SVG Version: 6.00 Build 0)  -->
<svg version="1.1" id="レイヤー_1" xmlns="http://www.w3.org/2000/svg" xmlns:xlink="http://www.w3.org/1999/xlink" x="0px"
	 y="0px" viewBox="0 0 72 72" enable-background="new 0 0 72 72" xml:space="preserve">
<path d="M5,66h61.7v6H5V66z M5,46.9h61.7v-6H5V46.9z M10.2,50.1L6,56.4l4.2,6.4l4.2-6.4L10.2,50.1z M26.9,50.1l-4.2,6.4l4.2,6.4
	l4.2-6.4L26.9,50.1z M44.7,50.1l-4.2,6.4l4.2,6.4l4.2-6.4L44.7,50.1z M61.5,50.1l-4.2,6.4l4.2,6.4l4.2-6.4L61.5,50.1z M50.8,17.2
	L35.8,0l-15,17.2L5,0v35.4h29h1.8h1.8h29V0L50.8,17.2z"/>
</svg>
