<?xml version="1.0" encoding="utf-8"?>
<!-- Generator: Adobe Illustrator 18.1.1, SVG Export Plug-In . SVG Version: 6.00 Build 0)  -->
<svg version="1.1" id="レイヤー_1" xmlns="http://www.w3.org/2000/svg" xmlns:xlink="http://www.w3.org/1999/xlink" x="0px"
	 y="0px" viewBox="0 0 72 72" enable-background="new 0 0 72 72" xml:space="preserve">
<path d="M51.8,54.8c3.8-0.6,7.6-4.6,7.6-9.5V9.6c0-5-4.2-9.6-10-9.6L37.3,0L24.9,0c-5.7,0-10,4.6-10,9.6v35.6c0,4.9,3.8,8.9,7.6,9.5
	L11.1,72h6.6l8.2-12.1h11.3h0h0h11.3L56.7,72h6.6L51.8,54.8z M30.7,3.7c0-0.9,0.8-1.6,1.6-1.6h4.8h0h0H42c0.9,0,1.6,0.7,1.6,1.6v2.8
	c0,0.9-0.7,1.6-1.6,1.6h-4.8h0h0h-4.8c-0.9,0-1.6-0.8-1.6-1.6V3.7z M24.7,49.6c-2.4,0-4.4-2-4.4-4.4s2-4.4,4.4-4.4s4.4,2,4.4,4.4
	S27.1,49.6,24.7,49.6z M37.2,26.4L37.2,26.4h-12c-2.7,0-5-1.9-5-5V15c0-2.7,1.7-5,5-5h12h0h12c3.2,0,5,2.3,5,5v6.4c0,3.1-2.2,5-5,5
	H37.2L37.2,26.4z M45.2,45.2c0-2.4,2-4.4,4.4-4.4s4.4,2,4.4,4.4s-2,4.4-4.4,4.4S45.2,47.6,45.2,45.2z"/>
</svg>
