<?xml version="1.0" encoding="utf-8"?>
<!-- Generator: Adobe Illustrator 18.1.1, SVG Export Plug-In . SVG Version: 6.00 Build 0)  -->
<svg version="1.1" id="レイヤー_1" xmlns="http://www.w3.org/2000/svg" xmlns:xlink="http://www.w3.org/1999/xlink" x="0px"
	 y="0px" viewBox="0 0 72 72" enable-background="new 0 0 72 72" xml:space="preserve">
<path d="M67.3,36c0-2.7,2.2-4.8,4.8-4.8v-9.6c0-2.2-1.8-4-4-4H53.6v3.9h-4.2v-3.9H4.1c-2.2,0-4,1.8-4,4v9.6c2.7,0,4.8,2.2,4.8,4.8
	s-2.2,4.8-4.8,4.8v9.6c0,2.2,1.8,4,4,4h45.2v-3.9h4.2v3.9h14.5c2.2,0,4-1.8,4-4v-9.6C69.4,40.8,67.3,38.7,67.3,36z M53.6,46h-4.2
	v-7.8h4.2V46z M53.6,33.7h-4.2V26h4.2V33.7z"/>
</svg>
