<?xml version="1.0" standalone="no"?>
<!DOCTYPE svg PUBLIC "-//W3C//DTD SVG 1.1//EN" "http://www.w3.org/Graphics/SVG/1.1/DTD/svg11.dtd" >
<svg xmlns="http://www.w3.org/2000/svg">
<metadata>Generated by IcoMoon</metadata>
<defs>
<font id="icomoon" horiz-adv-x="1024">
<font-face units-per-em="1024" ascent="960" descent="-64" />
<missing-glyph horiz-adv-x="1024" />
<glyph unicode="&#x20;" horiz-adv-x="512" d="" />
<glyph unicode="&#xe900;" glyph-name="file1-01" d="M752.356 960h-475.022c-31.289 0-56.889-25.6-56.889-56.889v-910.222c0-31.289 25.6-56.889 56.889-56.889h475.022c31.289 0 56.889 25.6 56.889 56.889v910.222c0 31.289-25.6 56.889-56.889 56.889zM435.2 900.267h156.444v-39.822h-156.444v39.822zM513.422-7.111c-27.022 0-48.356 21.333-48.356 48.356s21.333 48.356 48.356 48.356c27.022 0 48.356-21.333 48.356-48.356s-21.333-48.356-48.356-48.356zM729.6 152.178h-429.511v648.533h429.511v-648.533z" />
<glyph unicode="&#xe901;" glyph-name="file1-02" d="M961.422 216.178c-56.889 56.889-133.689 72.533-172.089 35.556-61.156-61.156-92.444-105.244-176.356-61.156-52.622 32.711-118.044 83.911-197.689 163.556s-130.844 145.067-163.556 197.689c-44.089 83.911 0 116.622 61.156 176.356 36.978 36.978 21.333 115.2-35.556 172.089s-133.689 72.533-172.089 35.556c-82.489-82.489-108.089-250.311-85.333-328.533 0 0 0 0 0 0 18.489-113.778 102.4-244.622 253.156-395.378 149.333-150.756 281.6-234.667 393.956-253.156 0 0 0 0 0 0 78.222-21.333 247.467 4.267 328.533 85.333 38.4 38.4 22.756 115.2-34.133 172.089z" />
<glyph unicode="&#xe902;" glyph-name="file1-03" d="M871.822 793.6l-378.311 146.489c-29.867 11.378-62.578-2.844-73.956-32.711l-284.444-735.289c-11.378-29.867 2.844-62.578 32.711-73.956l378.311-146.489c29.867-11.378 62.578 2.844 73.956 32.711l284.444 735.289c11.378 29.867-4.267 62.578-32.711 73.956zM597.333 843.378l128-49.778-11.378-32.711-128 49.778 11.378 32.711zM429.511 96.711c-8.533-21.333-32.711-32.711-55.467-24.178-21.333 8.533-32.711 32.711-24.178 55.467 8.533 21.333 32.711 32.711 55.467 24.178 21.333-8.533 32.711-34.133 24.178-55.467zM603.022 135.111l-352.711 136.533 204.8 531.911 352.711-136.533-204.8-531.911z" />
<glyph unicode="&#xe903;" glyph-name="file1-04" d="M544.711 169.244c0-18.851-15.282-34.133-34.133-34.133s-34.133 15.282-34.133 34.133c0 18.851 15.282 34.133 34.133 34.133s34.133-15.282 34.133-34.133zM456.533 769.422h109.511v-28.444h-109.511v28.444zM362.667 699.733h300.089v-452.267h-300.089v452.267zM510.578 960c-283.022 0-512-228.978-512-512s228.978-512 512-512c283.022 0 512 228.978 512 512s-230.4 512-512 512zM718.222 146.489c0-28.444-22.756-51.2-51.2-51.2h-310.044c-28.444 0-51.2 22.756-51.2 51.2v612.978c0 28.444 22.756 51.2 51.2 51.2h308.622c28.444 0 51.2-22.756 51.2-51.2v-612.978z" />
<glyph unicode="&#xe904;" glyph-name="file1-05" d="M1024 769.422v-105.244c-61.156 0-119.467-8.533-172.089-24.178-29.867-8.533-56.889-19.911-83.911-31.289-11.378 5.689-22.756 9.956-35.556 15.644-65.422 25.6-140.8 41.244-221.867 41.244-61.156 0-119.467-8.533-173.511-24.178-29.867-8.533-56.889-19.911-83.911-31.289-11.378 5.689-22.756 9.956-35.556 15.644-65.422 25.6-139.378 41.244-220.444 41.244v105.244h1026.844zM641.422 371.2c0-27.022 8.533-51.2 21.333-71.111 14.222-19.911 32.711-36.978 55.467-45.511 15.644-7.111 31.289-9.956 49.778-9.956 27.022 0 51.2 8.533 71.111 21.333 19.911 14.222 36.978 32.711 45.511 55.467 7.111 15.644 9.956 31.289 9.956 49.778 0 12.8-2.844 25.6-8.533 39.822s-14.222 28.444-25.6 42.667c-21.333 28.444-54.044 55.467-93.867 78.222-31.289-17.067-56.889-38.4-76.8-58.311-21.333-22.756-36.978-45.511-44.089-66.844-1.422-11.378-4.267-24.178-4.267-35.556zM893.156 520.533c27.022-28.444 46.933-58.311 58.311-91.022 7.111-18.489 9.956-38.4 9.956-56.889 0-39.822-12.8-76.8-32.711-108.089-21.333-31.289-49.778-55.467-85.333-69.689-22.756-9.956-48.356-15.644-75.378-15.644-39.822 0-76.8 12.8-108.089 32.711-31.289 21.333-55.467 49.778-69.689 85.333-9.956 22.756-15.644 48.356-15.644 75.378 0 29.867 8.533 58.311 22.756 85.333s34.133 52.622 58.311 75.378c12.8 11.378 27.022 22.756 41.244 34.133-9.956 4.267-19.911 7.111-31.289 9.956-46.933 14.222-99.556 21.333-155.022 21.333-68.267 0-130.844-12.8-186.311-32.711 19.911-14.222 38.4-29.867 54.044-45.511 27.022-28.444 46.933-58.311 58.311-91.022 7.111-18.489 9.956-38.4 9.956-56.889 0-39.822-12.8-76.8-32.711-108.089-21.333-31.289-49.778-55.467-85.333-69.689-21.333-11.378-46.933-17.067-72.533-17.067-39.822 0-76.8 12.8-108.089 32.711-31.289 21.333-55.467 49.778-69.689 85.333-9.956 22.756-15.644 48.356-15.644 75.378 0 29.867 8.533 58.311 22.756 85.333s34.133 52.622 58.311 75.378c12.8 11.378 27.022 22.756 41.244 34.133-9.956 4.267-19.911 7.111-31.289 9.956-46.933 14.222-98.133 22.756-153.6 22.756v-502.044h1024v502.044c-66.844 0-130.844-12.8-184.889-32.711 21.333-14.222 38.4-29.867 54.044-45.511zM128 371.2c0-27.022 8.533-51.2 21.333-71.111 14.222-19.911 32.711-36.978 55.467-45.511 15.644-7.111 31.289-9.956 49.778-9.956 27.022 0 51.2 8.533 71.111 21.333 19.911 14.222 36.978 32.711 45.511 55.467 7.111 15.644 9.956 31.289 9.956 49.778 0 12.8-2.844 25.6-8.533 39.822s-14.222 28.444-25.6 42.667c-21.333 28.444-54.044 55.467-93.867 78.222-31.289-17.067-56.889-38.4-76.8-58.311-21.333-22.756-36.978-45.511-44.089-66.844-1.422-11.378-4.267-24.178-4.267-35.556z" />
<glyph unicode="&#xe905;" glyph-name="file1-06" d="M331.378 541.867c0-8.533 1.422-17.067 1.422-27.022s0-19.911-1.422-28.444c0-8.533-2.844-15.644-5.689-21.333s-7.111-9.956-14.222-14.222c-7.111-2.844-15.644-5.689-27.022-5.689h-28.444v137.956h29.867c11.378 0 19.911-1.422 25.6-5.689s9.956-8.533 12.8-14.222c5.689-4.267 7.111-12.8 7.111-21.333zM1024 715.378v-558.933h-1022.578v558.933h1022.578zM386.844 516.267c0 24.178-1.422 44.089-5.689 58.311s-9.956 27.022-19.911 36.978-21.333 18.489-32.711 22.756c-12.8 4.267-25.6 5.689-42.667 5.689h-86.756v-405.333h58.311v157.867h29.867c21.333 0 38.4 4.267 52.622 11.378 12.8 7.111 24.178 17.067 31.289 31.289 7.111 11.378 11.378 22.756 12.8 35.556 2.844 12.8 2.844 27.022 2.844 45.511zM618.667 534.756c0 32.711-8.533 58.311-25.6 76.8s-42.667 27.022-75.378 27.022h-85.333v-403.911h79.644c34.133 0 61.156 8.533 79.644 27.022s27.022 45.511 27.022 83.911v189.156zM846.222 640h-173.511v-405.333h58.311v172.089h99.556v55.467h-99.556v122.311h115.2v55.467zM514.844 584.533h-27.022v-295.822h27.022c15.644 0 28.444 4.267 34.133 12.8 7.111 8.533 9.956 21.333 9.956 38.4v194.844c0 15.644-2.844 28.444-9.956 36.978-4.267 8.533-17.067 12.8-34.133 12.8z" />
<glyph unicode="&#xe906;" glyph-name="file1-07" d="M-2.844 715.378v-558.933h1022.578v558.933h-1022.578zM339.911 234.667l-51.2 136.533-49.778-136.533h-61.156l82.489 211.911-75.378 193.422h61.156l44.089-119.467 44.089 119.467h61.156l-76.8-193.422 82.489-211.911h-61.156zM600.178 234.667h-173.511v405.333h58.311v-347.022h115.2v-58.311zM824.889 523.378h-58.311v12.8c0 12.8-2.844 24.178-9.956 34.133s-17.067 14.222-31.289 14.222c-8.533 0-14.222-1.422-19.911-4.267s-8.533-7.111-11.378-11.378c-2.844-4.267-4.267-9.956-5.689-17.067-1.422-5.689-1.422-12.8-1.422-19.911 0-8.533 0-14.222 1.422-19.911 0-5.689 1.422-9.956 4.267-14.222s5.689-7.111 9.956-9.956c4.267-2.844 9.956-5.689 18.489-8.533l44.089-17.067c12.8-4.267 22.756-11.378 31.289-17.067 8.533-7.111 14.222-14.222 18.489-22.756s7.111-18.489 8.533-31.289c1.422-11.378 2.844-24.178 2.844-39.822 0-17.067-1.422-32.711-5.689-46.933-2.844-14.222-8.533-27.022-17.067-36.978-7.111-9.956-18.489-18.489-31.289-24.178s-28.444-8.533-46.933-8.533c-14.222 0-27.022 2.844-39.822 7.111s-22.756 11.378-31.289 19.911-15.644 18.489-21.333 29.867c-5.689 11.378-7.111 24.178-7.111 38.4v18.489h58.311v-18.489c0-9.956 2.844-19.911 9.956-28.444 5.689-8.533 17.067-12.8 31.289-12.8 9.956 0 17.067 1.422 22.756 4.267s9.956 7.111 12.8 11.378c2.844 5.689 4.267 11.378 5.689 18.489s1.422 15.644 1.422 25.6c0 9.956 0 19.911-1.422 25.6-1.422 7.111-2.844 12.8-4.267 17.067-2.844 4.267-5.689 7.111-9.956 9.956s-9.956 5.689-17.067 8.533l-41.244 17.067c-25.6 9.956-41.244 24.178-49.778 41.244s-12.8 38.4-12.8 64c0 15.644 1.422 29.867 5.689 42.667s9.956 25.6 18.489 35.556c8.533 9.956 18.489 17.067 31.289 24.178 12.8 5.689 27.022 8.533 44.089 8.533 14.222 0 27.022-2.844 39.822-8.533s22.756-12.8 31.289-21.333 15.644-18.489 19.911-29.867c4.267-11.378 7.111-21.333 7.111-32.711v-27.022z" />
<glyph unicode="&#xe907;" glyph-name="file1-08" d="M0 715.378v-558.933h1022.578v558.933h-1022.578zM231.822 234.667l-51.2 136.533-49.778-136.533h-61.156l82.489 211.911-75.378 193.422h61.156l44.089-119.467 44.089 119.467h61.156l-76.8-193.422 82.489-211.911h-61.156zM492.089 234.667h-172.089v405.333h58.311v-347.022h115.2v-58.311zM718.222 523.378h-58.311v12.8c0 12.8-2.844 24.178-9.956 34.133-5.689 9.956-17.067 14.222-31.289 14.222-8.533 0-14.222-1.422-19.911-4.267s-8.533-7.111-11.378-11.378c-2.844-4.267-4.267-9.956-5.689-17.067-1.422-5.689-1.422-12.8-1.422-19.911 0-8.533 0-14.222 1.422-19.911 0-5.689 1.422-9.956 4.267-14.222s5.689-7.111 9.956-9.956c4.267-2.844 9.956-5.689 18.489-8.533l44.089-17.067c12.8-4.267 22.756-11.378 31.289-17.067 8.533-7.111 14.222-14.222 18.489-22.756s7.111-18.489 8.533-31.289c1.422-11.378 2.844-24.178 2.844-39.822 0-17.067-1.422-32.711-5.689-46.933-2.844-14.222-8.533-27.022-17.067-36.978-7.111-9.956-18.489-18.489-31.289-24.178s-28.444-8.533-46.933-8.533c-14.222 0-27.022 2.844-39.822 7.111s-22.756 11.378-31.289 19.911-15.644 15.644-21.333 27.022c-5.689 11.378-7.111 24.178-7.111 38.4v21.333h58.311v-18.489c0-9.956 2.844-19.911 9.956-28.444 5.689-8.533 17.067-12.8 31.289-12.8 9.956 0 17.067 1.422 22.756 4.267s9.956 7.111 12.8 11.378c2.844 5.689 4.267 11.378 5.689 18.489s1.422 15.644 1.422 25.6c0 9.956 0 19.911-1.422 25.6-1.422 7.111-2.844 12.8-4.267 17.067-2.844 4.267-5.689 7.111-9.956 9.956s-9.956 5.689-17.067 8.533l-41.244 17.067c-25.6 9.956-41.244 24.178-49.778 41.244s-12.8 38.4-12.8 64c0 15.644 1.422 29.867 5.689 42.667 4.267 14.222 9.956 25.6 18.489 35.556s18.489 17.067 31.289 24.178c12.8 5.689 27.022 8.533 44.089 8.533 14.222 0 27.022-2.844 39.822-8.533 11.378-5.689 22.756-12.8 31.289-21.333s15.644-18.489 19.911-29.867c4.267-11.378 7.111-21.333 7.111-32.711v-27.022zM894.578 234.667l-51.2 136.533-49.778-136.533h-61.156l82.489 211.911-75.378 193.422h61.156l44.089-119.467 44.089 119.467h61.156l-76.8-193.422 82.489-211.911h-61.156z" />
<glyph unicode="&#xe908;" glyph-name="file1-09" d="M301.511 571.733c7.111-8.533 9.956-21.333 9.956-36.978v-194.844c0-17.067-2.844-29.867-9.956-38.4s-18.489-12.8-34.133-12.8h-27.022v295.822h27.022c17.067 0 28.444-4.267 34.133-12.8zM1022.578 715.378v-558.933h-1022.578v558.933h1022.578zM369.778 534.756c0 32.711-8.533 58.311-25.6 76.8s-42.667 27.022-75.378 27.022h-85.333v-403.911h81.067c34.133 0 61.156 8.533 79.644 27.022s27.022 45.511 27.022 83.911v189.156zM615.822 543.289c0 15.644-2.844 31.289-8.533 42.667-5.689 12.8-12.8 22.756-22.756 31.289s-19.911 14.222-31.289 18.489c-11.378 4.267-22.756 5.689-35.556 5.689-11.378 0-22.756-1.422-35.556-5.689-11.378-4.267-21.333-9.956-31.289-18.489s-17.067-18.489-22.756-31.289-8.533-27.022-8.533-42.667v-213.333c0-17.067 2.844-31.289 8.533-44.089s12.8-22.756 22.756-31.289 19.911-14.222 31.289-18.489 22.756-5.689 35.556-5.689c11.378 0 22.756 1.422 35.556 5.689 11.378 4.267 21.333 9.956 31.289 18.489s17.067 18.489 22.756 31.289c5.689 12.8 8.533 27.022 8.533 44.089v213.333zM850.489 546.133c0 14.222-2.844 27.022-7.111 38.4s-11.378 22.756-19.911 31.289c-8.533 8.533-18.489 15.644-29.867 19.911s-24.178 7.111-36.978 7.111c-14.222 0-27.022-2.844-38.4-7.111s-21.333-11.378-29.867-19.911c-8.533-8.533-14.222-18.489-19.911-29.867-4.267-11.378-7.111-24.178-7.111-36.978v-223.289c0-18.489 2.844-34.133 8.533-45.511 5.689-12.8 12.8-21.333 22.756-29.867 8.533-7.111 19.911-12.8 31.289-15.644s22.756-4.267 34.133-4.267c12.8 0 25.6 2.844 35.556 7.111 11.378 5.689 21.333 11.378 29.867 19.911s14.222 18.489 19.911 29.867c4.267 11.378 7.111 22.756 7.111 35.556v25.6h-58.311v-19.911c0-8.533-1.422-14.222-2.844-19.911-2.844-5.689-5.689-9.956-8.533-12.8-4.267-2.844-7.111-5.689-11.378-7.111s-8.533-1.422-12.8-1.422c-12.8 0-22.756 4.267-27.022 11.378-5.689 8.533-7.111 18.489-7.111 29.867v209.067c0 14.222 2.844 25.6 7.111 34.133s14.222 12.8 28.444 12.8c11.378 0 19.911-4.267 25.6-12.8 7.111-8.533 9.956-18.489 9.956-29.867v-19.911h58.311v24.178zM517.689 584.533c-9.956 0-19.911-2.844-27.022-9.956s-11.378-17.067-11.378-31.289v-213.333c0-14.222 4.267-24.178 11.378-31.289s17.067-9.956 27.022-9.956c9.956 0 19.911 2.844 27.022 9.956s11.378 17.067 11.378 31.289v213.333c0 14.222-4.267 24.178-11.378 31.289s-15.644 9.956-27.022 9.956z" />
<glyph unicode="&#xe909;" glyph-name="file1-10" d="M192 571.733c7.111-8.533 9.956-21.333 9.956-36.978v-194.844c0-17.067-2.844-29.867-9.956-38.4s-18.489-12.8-34.133-12.8h-28.444v295.822h27.022c17.067 0 28.444-4.267 35.556-12.8zM408.178 584.533c-9.956 0-19.911-2.844-27.022-9.956s-11.378-17.067-11.378-31.289v-213.333c0-14.222 4.267-24.178 11.378-31.289s17.067-9.956 27.022-9.956c9.956 0 19.911 2.844 27.022 9.956s11.378 17.067 11.378 31.289v213.333c0 14.222-4.267 24.178-11.378 31.289s-17.067 9.956-27.022 9.956zM1022.578 715.378v-558.933h-1022.578v558.933h1022.578zM258.844 534.756c0 32.711-8.533 58.311-25.6 76.8s-42.667 27.022-75.378 27.022h-86.756v-403.911h81.067c34.133 0 61.156 8.533 79.644 27.022s27.022 45.511 27.022 83.911v189.156zM504.889 543.289c0 15.644-2.844 31.289-8.533 42.667s-12.8 24.178-22.756 32.711c-9.956 8.533-19.911 14.222-31.289 18.489s-22.756 5.689-35.556 5.689-22.756-1.422-35.556-5.689c-9.956-4.267-19.911-11.378-29.867-18.489-9.956-8.533-17.067-18.489-22.756-31.289s-8.533-27.022-8.533-42.667v-213.333c0-17.067 2.844-31.289 8.533-44.089s12.8-22.756 22.756-31.289c9.956-8.533 19.911-14.222 31.289-18.489s22.756-5.689 35.556-5.689 22.756 1.422 35.556 5.689c11.378 4.267 21.333 9.956 31.289 18.489s17.067 18.489 22.756 31.289 8.533 27.022 8.533 44.089v211.911zM740.978 546.133c0 14.222-2.844 27.022-7.111 38.4s-11.378 22.756-19.911 31.289c-8.533 8.533-18.489 15.644-29.867 19.911s-24.178 7.111-36.978 7.111c-14.222 0-27.022-2.844-38.4-7.111s-21.333-11.378-29.867-19.911c-8.533-8.533-14.222-18.489-19.911-29.867s-7.111-24.178-7.111-36.978v-223.289c0-18.489 2.844-34.133 8.533-45.511 5.689-12.8 12.8-21.333 22.756-29.867 8.533-7.111 19.911-12.8 31.289-15.644s22.756-4.267 34.133-4.267c12.8 0 25.6 2.844 35.556 7.111 11.378 5.689 21.333 11.378 29.867 19.911s14.222 18.489 19.911 29.867c4.267 11.378 7.111 22.756 7.111 35.556v25.6h-58.311v-19.911c0-8.533-1.422-14.222-2.844-19.911-2.844-5.689-5.689-9.956-8.533-12.8-4.267-2.844-7.111-5.689-11.378-7.111s-8.533-1.422-12.8-1.422c-12.8 0-22.756 4.267-27.022 11.378-5.689 8.533-7.111 18.489-7.111 29.867v209.067c0 14.222 2.844 25.6 7.111 34.133s14.222 12.8 28.444 12.8c11.378 0 19.911-4.267 25.6-12.8s9.956-18.489 9.956-29.867v-19.911h58.311v24.178zM982.756 234.667l-83.911 211.911 76.8 193.422h-61.156l-44.089-120.889-44.089 119.467h-61.156l75.378-193.422-81.067-210.489h61.156l49.778 136.533 51.2-136.533h61.156z" />
<glyph unicode="&#xe90a;" glyph-name="file1-11" d="M578.844 541.867c0-8.533 1.422-17.067 1.422-27.022s0-19.911-1.422-28.444c0-8.533-2.844-15.644-5.689-21.333s-7.111-9.956-14.222-14.222c-7.111-2.844-15.644-5.689-27.022-5.689h-28.444v137.956h29.867c11.378 0 19.911-1.422 25.6-5.689s9.956-8.533 12.8-14.222c4.267-4.267 7.111-12.8 7.111-21.333zM342.756 564.622c-2.844 5.689-7.111 11.378-12.8 14.222-5.689 4.267-14.222 5.689-25.6 5.689h-29.867v-137.956h28.444c11.378 0 21.333 1.422 27.022 5.689 7.111 2.844 11.378 8.533 14.222 14.222s4.267 12.8 5.689 21.333c0 8.533 1.422 17.067 1.422 28.444 0 9.956 0 18.489-1.422 27.022-2.844 7.111-4.267 15.644-7.111 21.333zM1022.578 715.378v-558.933h-1022.578v558.933h1022.578zM402.489 516.267c0 24.178-1.422 44.089-5.689 58.311s-9.956 27.022-19.911 36.978c-9.956 9.956-21.333 18.489-32.711 22.756-12.8 4.267-25.6 5.689-42.667 5.689h-86.756v-405.333h58.311v157.867h29.867c21.333 0 38.4 4.267 52.622 11.378 12.8 7.111 24.178 17.067 31.289 31.289 7.111 11.378 11.378 22.756 12.8 35.556 2.844 12.8 2.844 27.022 2.844 45.511zM634.311 516.267c0 24.178-1.422 44.089-5.689 58.311s-9.956 27.022-19.911 36.978c-9.956 9.956-21.333 18.489-32.711 22.756-12.8 4.267-25.6 5.689-42.667 5.689h-86.756v-405.333h58.311v157.867h29.867c21.333 0 38.4 4.267 52.622 11.378 12.8 7.111 24.178 17.067 31.289 31.289 7.111 11.378 11.378 22.756 12.8 35.556s2.844 27.022 2.844 45.511zM840.533 640h-192v-54.044h66.844v-351.289h58.311v349.867h66.844v55.467z" />
<glyph unicode="&#xe90b;" glyph-name="file1-12" d="M223.289 541.867c0-8.533 1.422-17.067 1.422-27.022s0-19.911-1.422-28.444c0-8.533-2.844-15.644-5.689-21.333s-7.111-9.956-14.222-14.222c-7.111-2.844-15.644-5.689-27.022-5.689h-28.444v137.956h29.867c11.378 0 19.911-1.422 25.6-5.689s9.956-8.533 12.8-14.222c4.267-4.267 5.689-12.8 7.111-21.333zM449.422 564.622c-2.844 5.689-7.111 11.378-12.8 14.222-5.689 4.267-14.222 5.689-25.6 5.689h-29.867v-137.956h28.444c11.378 0 21.333 1.422 27.022 5.689 7.111 2.844 11.378 8.533 14.222 14.222s4.267 12.8 5.689 21.333c0 8.533 1.422 17.067 1.422 28.444 0 9.956 0 18.489-1.422 27.022-2.844 7.111-4.267 15.644-7.111 21.333zM1024 715.378v-558.933h-1022.578v558.933h1022.578zM278.756 516.267c0 24.178-1.422 44.089-5.689 58.311s-9.956 27.022-19.911 36.978c-9.956 9.956-21.333 18.489-32.711 22.756-12.8 4.267-25.6 5.689-42.667 5.689h-88.178v-405.333h58.311v157.867h29.867c21.333 0 38.4 4.267 52.622 11.378 12.8 7.111 24.178 17.067 31.289 31.289 7.111 11.378 11.378 22.756 12.8 35.556 2.844 12.8 4.267 27.022 4.267 45.511zM510.578 516.267c0 24.178-1.422 44.089-5.689 58.311s-9.956 27.022-19.911 36.978c-9.956 9.956-21.333 18.489-32.711 22.756-12.8 4.267-25.6 5.689-42.667 5.689h-86.756v-405.333h58.311v157.867h29.867c21.333 0 38.4 4.267 52.622 11.378 12.8 7.111 24.178 17.067 31.289 31.289 7.111 11.378 11.378 22.756 12.8 35.556s2.844 27.022 2.844 45.511zM716.8 640h-192v-54.044h66.844v-351.289h58.311v349.867h66.844v55.467zM965.689 234.667l-83.911 211.911 76.8 193.422h-61.156l-44.089-120.889-44.089 119.467h-61.156l75.378-193.422-81.067-210.489h61.156l49.778 136.533 51.2-136.533h61.156z" />
<glyph unicode="&#xe90c;" glyph-name="file1-13" d="M507.733 523.378l28.444-146.489h-58.311l29.867 146.489zM735.289 584.533h-27.022v-295.822h27.022c15.644 0 28.444 4.267 34.133 12.8 7.111 8.533 9.956 21.333 9.956 38.4v194.844c0 15.644-2.844 28.444-9.956 36.978-5.689 8.533-17.067 12.8-34.133 12.8zM1022.578 715.378v-558.933h-1022.578v558.933h1022.578zM371.2 546.133c0 14.222-2.844 27.022-7.111 38.4s-11.378 22.756-19.911 31.289c-8.533 8.533-18.489 15.644-29.867 19.911s-24.178 7.111-36.978 7.111c-14.222 0-27.022-2.844-38.4-7.111s-21.333-11.378-29.867-19.911c-8.533-8.533-14.222-18.489-19.911-29.867s-7.111-24.178-7.111-36.978v-223.289c0-18.489 2.844-34.133 8.533-45.511 5.689-12.8 12.8-21.333 22.756-29.867 8.533-7.111 19.911-12.8 31.289-15.644s22.756-4.267 34.133-4.267c12.8 0 25.6 2.844 35.556 7.111 11.378 5.689 21.333 11.378 29.867 19.911s14.222 18.489 19.911 29.867c4.267 11.378 7.111 22.756 7.111 35.556v25.6h-58.311v-19.911c0-8.533-1.422-14.222-2.844-19.911-2.844-5.689-5.689-9.956-8.533-12.8-4.267-2.844-7.111-5.689-11.378-7.111s-8.533-1.422-12.8-1.422c-12.8 0-22.756 4.267-27.022 11.378-5.689 8.533-7.111 18.489-7.111 29.867v209.067c0 14.222 2.844 25.6 7.111 34.133s14.222 12.8 28.444 12.8c11.378 0 19.911-4.267 25.6-12.8 7.111-8.533 9.956-18.489 9.956-29.867v-19.911h58.311v24.178zM621.511 234.667l-91.022 405.333h-46.933l-91.022-405.333h58.311l17.067 86.756h79.644l17.067-86.756h56.889zM837.689 534.756c0 32.711-8.533 58.311-25.6 76.8s-42.667 27.022-75.378 27.022h-85.333v-403.911h81.067c34.133 0 61.156 8.533 79.644 27.022s27.022 45.511 27.022 83.911v189.156z" />
<glyph unicode="&#xe90d;" glyph-name="file1-14" d="M709.689 541.867c0-8.533 1.422-17.067 1.422-27.022s0-19.911-1.422-28.444c0-8.533-2.844-15.644-5.689-21.333s-7.111-9.956-14.222-14.222c-7.111-2.844-15.644-5.689-27.022-5.689h-28.444v137.956h29.867c11.378 0 19.911-1.422 25.6-5.689s9.956-8.533 12.8-14.222c4.267-4.267 5.689-12.8 7.111-21.333zM1022.578 715.378v-558.933h-1024v558.933h1024zM423.822 640h-166.4v-54.044h103.822l-109.511-298.667v-52.622h172.089v54.044h-110.933l110.933 304.356v46.933zM520.533 640h-58.311v-405.333h58.311v405.333zM765.156 516.267c0 24.178-1.422 44.089-5.689 58.311s-9.956 27.022-19.911 36.978c-9.956 9.956-21.333 18.489-32.711 22.756-12.8 4.267-25.6 5.689-42.667 5.689h-86.756v-405.333h58.311v157.867h29.867c21.333 0 38.4 4.267 52.622 11.378 12.8 7.111 24.178 17.067 31.289 31.289 7.111 11.378 11.378 22.756 12.8 35.556s2.844 27.022 2.844 45.511z" />
<glyph unicode="&#xe90e;" glyph-name="file1-15" d="M0 715.378v-558.933h1022.578v558.933h-1022.578zM459.378 523.378h-58.311v12.8c0 12.8-2.844 24.178-9.956 34.133-5.689 9.956-17.067 14.222-31.289 14.222-8.533 0-14.222-1.422-19.911-4.267s-8.533-7.111-11.378-11.378c-2.844-4.267-4.267-9.956-5.689-17.067-1.422-5.689-1.422-12.8-1.422-19.911 0-8.533 0-14.222 1.422-19.911 0-5.689 1.422-9.956 4.267-14.222s5.689-7.111 9.956-9.956c4.267-2.844 9.956-5.689 18.489-8.533l44.089-17.067c12.8-4.267 22.756-11.378 31.289-17.067 8.533-7.111 14.222-14.222 18.489-22.756s7.111-18.489 8.533-31.289c1.422-11.378 2.844-24.178 2.844-39.822 0-17.067-1.422-32.711-5.689-46.933-2.844-14.222-8.533-27.022-17.067-36.978-7.111-9.956-18.489-18.489-31.289-24.178s-28.444-8.533-46.933-8.533c-14.222 0-27.022 2.844-39.822 7.111s-22.756 11.378-31.289 19.911-15.644 18.489-21.333 29.867c-5.689 11.378-7.111 24.178-7.111 38.4v18.489h58.311v-18.489c0-9.956 2.844-19.911 9.956-28.444s17.067-12.8 31.289-12.8c9.956 0 17.067 1.422 22.756 4.267s9.956 7.111 12.8 11.378c2.844 5.689 4.267 11.378 5.689 18.489s1.422 15.644 1.422 25.6c0 9.956 0 19.911-1.422 25.6-1.422 7.111-2.844 12.8-4.267 17.067-2.844 4.267-5.689 7.111-9.956 9.956s-9.956 5.689-17.067 8.533l-42.667 18.489c-25.6 9.956-41.244 24.178-49.778 41.244s-12.8 38.4-12.8 64c0 15.644 1.422 29.867 5.689 42.667 4.267 14.222 9.956 25.6 18.489 35.556s18.489 17.067 31.289 24.178c12.8 5.689 27.022 8.533 44.089 8.533 14.222 0 27.022-2.844 39.822-8.533 11.378-5.689 22.756-12.8 31.289-21.333s15.644-18.489 19.911-29.867 7.111-21.333 7.111-32.711v-28.444zM563.2 234.667h-58.311v405.333h58.311v-405.333zM782.222 584.533h-66.844v-349.867h-58.311v349.867h-66.844v54.044h192v-54.044z" />
<glyph unicode="&#xe90f;" glyph-name="file1-16" d="M0 709.689v-558.933h1022.578v558.933h-1022.578zM335.644 517.689h-58.311v12.8c0 12.8-2.844 24.178-9.956 34.133s-17.067 14.222-31.289 14.222c-8.533 0-14.222-1.422-19.911-4.267s-8.533-7.111-11.378-11.378c-2.844-4.267-4.267-9.956-5.689-17.067-1.422-5.689-1.422-12.8-1.422-19.911 0-8.533 0-14.222 1.422-19.911 0-5.689 1.422-9.956 4.267-14.222s5.689-7.111 9.956-9.956c4.267-2.844 9.956-5.689 18.489-8.533l44.089-17.067c12.8-4.267 22.756-11.378 31.289-17.067 8.533-7.111 14.222-14.222 18.489-22.756s7.111-18.489 8.533-31.289c1.422-11.378 2.844-24.178 2.844-39.822 0-17.067-1.422-32.711-5.689-46.933-2.844-14.222-8.533-27.022-17.067-36.978-7.111-9.956-18.489-18.489-31.289-24.178s-28.444-8.533-46.933-8.533c-14.222 0-27.022 2.844-39.822 7.111s-22.756 11.378-31.289 19.911-15.644 18.489-21.333 29.867c-5.689 11.378-7.111 24.178-7.111 38.4v21.333h58.311v-18.489c0-9.956 2.844-19.911 9.956-28.444s17.067-12.8 31.289-12.8c9.956 0 17.067 1.422 22.756 4.267s9.956 7.111 12.8 11.378c2.844 5.689 4.267 11.378 5.689 18.489s1.422 15.644 1.422 25.6c0 9.956 0 19.911-1.422 25.6-1.422 7.111-2.844 12.8-4.267 17.067-2.844 4.267-5.689 7.111-9.956 9.956s-9.956 5.689-17.067 8.533l-41.244 17.067c-25.6 9.956-41.244 24.178-49.778 41.244s-12.8 38.4-12.8 64c0 15.644 1.422 29.867 5.689 42.667s9.956 25.6 18.489 35.556c8.533 9.956 18.489 17.067 31.289 24.178 12.8 5.689 27.022 8.533 44.089 8.533 14.222 0 27.022-2.844 39.822-8.533 11.378-5.689 22.756-12.8 31.289-21.333s15.644-18.489 19.911-29.867c4.267-11.378 7.111-21.333 7.111-32.711v-29.867zM438.044 228.978h-58.311v405.333h58.311v-405.333zM657.067 578.844h-66.844v-349.867h-58.311v349.867h-66.844v54.044h192v-54.044zM844.8 228.978l-51.2 136.533-49.778-136.533h-61.156l82.489 211.911-75.378 193.422h61.156l44.089-119.467 44.089 119.467h61.156l-76.8-193.422 83.911-211.911h-62.578z" />
<glyph unicode="&#xe910;" glyph-name="file1-17" d="M0 715.378v-558.933h1022.578v558.933h-1022.578zM392.533 234.667h-173.511v405.333h58.311v-347.022h115.2v-58.311zM583.111 593.067l-110.933-304.356h110.933v-54.044h-172.089v51.2l109.511 298.667h-103.822v54.044h166.4v-45.511zM806.4 234.667h-58.311v180.622h-71.111v-180.622h-58.311v405.333h58.311v-173.511h71.111v173.511h58.311v-405.333z" />
<glyph unicode="&#xe911;" glyph-name="file1-18" d="M197.689 669.867l-197.689-166.4v-109.511l193.422-164.978h830.578v440.889h-826.311zM258.844 435.2c-8.533-25.6-34.133-39.822-59.733-31.289s-39.822 34.133-31.289 59.733 34.133 39.822 59.733 31.289 38.4-34.133 31.289-59.733z" />
<glyph unicode="&#xe912;" glyph-name="file1-19" d="M372.622 930.133l-283.022 24.178-85.333-85.333 22.756-278.756 654.222-654.222 342.756 344.178-651.378 649.956zM238.933 699.733c-25.6-14.222-58.311-4.267-71.111 22.756-14.222 25.6-4.267 58.311 22.756 71.111 25.6 14.222 58.311 4.267 71.111-22.756 12.8-25.6 2.844-58.311-22.756-71.111z" />
<glyph unicode="&#xe913;" glyph-name="file1-20" d="M938.667 954.311l-283.022-24.178-651.378-649.956 344.178-344.178 654.222 654.222 21.333 278.756-85.333 85.333zM861.867 721.067c-14.222-25.6-45.511-35.556-71.111-22.756-25.6 14.222-35.556 45.511-22.756 71.111 14.222 25.6 45.511 35.556 71.111 22.756 27.022-12.8 36.978-45.511 22.756-71.111z" />
<glyph unicode="&#xe914;" glyph-name="file1-21" d="M942.933 588.8c-1.422 0-1.422 0 0 0l-516.267-514.844c-96.711-96.711-206.222-72.533-268.8-11.378-62.578 62.578-85.333 172.089 11.378 268.8 73.956 73.956 368.356 368.356 514.844 514.844 34.133 34.133 73.956 46.933 112.356 36.978s68.267-41.244 79.644-79.644c9.956-38.4-2.844-78.222-36.978-112.356l-493.511-492.089c-15.644-15.644-32.711-25.6-48.356-27.022-9.956-1.422-18.489 1.422-24.178 7.111-12.8 12.8-9.956 41.244 19.911 71.111l347.022 345.6-51.2 51.2-345.6-345.6c-64-64-58.311-136.533-19.911-173.511 21.333-21.333 51.2-31.289 82.489-28.444s64 19.911 92.444 48.356l493.511 493.511c52.622 52.622 72.533 118.044 55.467 182.044-17.067 62.578-68.267 113.778-130.844 130.844-64 17.067-129.422-2.844-182.044-55.467-147.911-147.911-442.311-442.311-516.267-516.267-125.156-125.156-100.978-281.6-11.378-371.2 46.933-46.933 110.933-75.378 179.2-75.378 64 0 132.267 25.6 193.422 86.756l514.844 514.844c0 0 0 0 0 0l-51.2 51.2z" />
<glyph unicode="&#xe915;" glyph-name="file1-22" d="M711.111-62.578v1022.578h-382.578v-1022.578l190.578 206.222zM711.111-62.578v0 0zM328.533-62.578v0 0z" />
<glyph unicode="&#xe916;" glyph-name="file1-23" d="M796.444-62.578v1022.578h-554.667v-1022.578l277.333 206.222zM796.444-62.578v0 0zM241.778-62.578v0 0z" />
<glyph unicode="&#xe917;" glyph-name="file1-24" d="M876.089 206.222h-728.178l133.689 203.378c7.111 11.378 19.911 18.489 34.133 19.911s27.022-4.267 36.978-15.644l79.644-91.022 145.067 220.444c8.533 12.8 22.756 19.911 36.978 19.911 15.644 0 28.444-7.111 36.978-19.911l224.711-337.067zM349.867 499.2c49.778 0 91.022 41.244 91.022 91.022s-41.244 91.022-91.022 91.022c-49.778 0-91.022-41.244-91.022-91.022 0-51.2 41.244-91.022 91.022-91.022zM938.667 783.644h-853.333v-668.444h853.333v668.444zM1024 868.978v-839.111h-1024v839.111h1024z" />
<glyph unicode="&#xe918;" glyph-name="file1-25" d="M1021.156 64c0 0-113.778 553.244-612.978 553.244v219.022l-409.6-366.933 411.022-379.733v247.467c270.222 0 470.756-24.178 611.556-273.067z" />
<glyph unicode="&#xe919;" glyph-name="file1-26" d="M369.778 661.333v136.533l-369.778-329.956 369.778-342.756v142.222l-216.178 200.533 216.178 193.422zM624.356 600.178v197.689l-368.356-329.956 369.778-342.756v223.289c167.822 0 270.222-21.333 398.222-246.044-1.422 0-19.911 497.778-399.644 497.778z" />
<glyph unicode="&#xe91a;" glyph-name="file1-27" d="M611.556 348.444v-247.467l411.022 381.156-411.022 366.933v-220.444c-499.2 0-612.978-554.667-612.978-554.667 140.8 250.311 341.333 274.489 612.978 274.489z" />
<glyph unicode="&#xe91b;" glyph-name="file1-28" d="M510.578 960c-283.022 0-512-228.978-512-512s228.978-512 512-512 512 228.978 512 512c0 283.022-228.978 512-512 512zM894.578 448c0-82.489-27.022-159.289-71.111-221.867l-534.756 534.756c62.578 44.089 139.378 71.111 221.867 71.111 211.911 0 384-172.089 384-384zM126.578 448c0 83.911 27.022 160.711 72.533 223.289l534.756-534.756c-62.578-45.511-140.8-72.533-223.289-72.533-211.911 0-384 172.089-384 384z" />
<glyph unicode="&#xe91c;" glyph-name="file1-29" d="M859.022 817.778v85.333c0 31.289-25.6 56.889-56.889 56.889h-45.511c-31.289 0-56.889-25.6-56.889-56.889v-85.333h-105.244v85.333c0 31.289-25.6 56.889-56.889 56.889h-45.511c-31.289 0-56.889-25.6-56.889-56.889v-85.333h-112.356v85.333c0 31.289-25.6 56.889-56.889 56.889h-45.511c-31.289 0-56.889-25.6-56.889-56.889v-85.333h-162.133v-881.778h1022.578v881.778h-164.978zM924.444 21.333h-823.467v580.267h823.467v-580.267zM850.489 386.844v35.556h-142.222v113.778h-35.556v-113.778h-143.644v113.778h-35.556v-113.778h-143.644v113.778h-35.556v-113.778h-142.222v-35.556h142.222v-150.756h-142.222v-35.556h142.222v-113.778h35.556v113.778h143.644v-113.778h35.556v113.778h143.644v-113.778h35.556v113.778h142.222v35.556h-142.222v150.756h142.222zM349.867 236.089v150.756h143.644v-150.756h-143.644zM672.711 236.089h-143.644v150.756h143.644v-150.756z" />
<glyph unicode="&#xe91d;" glyph-name="file1-30" d="M856.178 817.778v85.333c0 31.289-25.6 56.889-56.889 56.889h-45.511c-31.289 0-56.889-25.6-56.889-56.889v-85.333h-105.244v85.333c0 31.289-25.6 56.889-56.889 56.889h-45.511c-31.289 0-56.889-25.6-56.889-56.889v-85.333h-112.356v85.333c0 31.289-25.6 56.889-56.889 56.889h-45.511c-31.289 0-56.889-25.6-56.889-56.889v-85.333h-160.711v-881.778h1022.578v881.778h-166.4zM923.022 21.333h-823.467v580.267h823.467v-580.267zM735.289 264.533h-179.2v-179.2h-92.444v179.2h-179.2v92.444h179.2v179.2h92.444v-179.2h179.2v-92.444z" />
<glyph unicode="&#xe91e;" glyph-name="file1-31" d="M857.6 817.778v85.333c0 31.289-25.6 56.889-56.889 56.889h-45.511c-31.289 0-56.889-25.6-56.889-56.889v-85.333h-105.244v85.333c0 31.289-25.6 56.889-56.889 56.889h-45.511c-31.289 0-56.889-25.6-56.889-56.889v-85.333h-112.356v85.333c0 31.289-25.6 56.889-56.889 56.889h-45.511c-31.289 0-56.889-25.6-56.889-56.889v-85.333h-162.133v-881.778h1022.578v881.778h-164.978zM923.022 21.333h-823.467v580.267h823.467v-580.267zM450.844 93.867l-204.8 204.8 81.067 81.067 123.733-123.733 263.111 263.111 81.067-81.067-344.178-344.178z" />
<glyph unicode="&#xe91f;" glyph-name="file1-32" d="M529.067 960c-180.622 0-327.111-146.489-327.111-327.111 0-5.689 0-12.8 0-18.489 12.8-254.578 264.533-622.933 327.111-678.4 62.578 55.467 314.311 423.822 327.111 678.4 0 5.689 0 12.8 0 18.489 0 180.622-146.489 327.111-327.111 327.111zM529.067 534.756c-54.044 0-98.133 44.089-98.133 98.133s44.089 98.133 98.133 98.133c54.044 0 98.133-44.089 98.133-98.133s-44.089-98.133-98.133-98.133z" />
<glyph unicode="&#xe920;" glyph-name="file1-33" d="M513.422 960c-159.289 0-288.711-129.422-288.711-288.711 0-224.711 231.822-564.622 288.711-614.4 56.889 49.778 288.711 389.689 288.711 614.4 0 159.289-129.422 288.711-288.711 288.711zM513.422 584.533c-48.356 0-86.756 38.4-86.756 86.756s38.4 86.756 86.756 86.756 86.756-38.4 86.756-86.756-39.822-86.756-86.756-86.756zM881.778-64h-739.556v79.644h739.556v-79.644z" />
<glyph unicode="&#xe921;" glyph-name="file1-34" d="M567.467 465.067l429.511 247.467-429.511 247.467h-108.089v-944.356h-315.733v-79.644h739.556v79.644h-315.733z" />
<glyph unicode="&#xe922;" glyph-name="file1-35" d="M950.044 647.111c-29.867-102.4-5.689-277.333-5.689-277.333s-327.111-68.267-301.511 17.067c31.289 99.556-162.133 39.822-273.067-2.844-44.089-17.067-75.378-2.844-75.378-2.844v472.178c0 0 412.444 116.622 412.444 36.978 0-17.067-28.444-105.244 17.067-99.556 79.644 9.956 228.978 15.644 228.978 15.644s25.6-56.889-2.844-159.289zM236.089 905.956c0 28.444-22.756 49.778-49.778 49.778-28.444 0-49.778-22.756-49.778-49.778v-969.956h100.978v969.956z" />
<glyph unicode="&#xe923;" glyph-name="file1-36" d="M234.667-64h-100.978v969.956c0 28.444 22.756 49.778 49.778 49.778 28.444 0 49.778-22.756 49.778-49.778v-969.956zM857.6 665.6l173.511 220.444h-685.511v-439.467h684.089l-172.089 219.022z" />
<glyph unicode="&#xe924;" glyph-name="file1-37" d="M512 955.733l449.422-258.844v-389.689l-449.422 32.711h-448v356.978zM64 696.889h300.089v-765.156h-300.089v765.156zM364.089 696.889h300.089v-445.156h-300.089v445.156zM664.178 696.889h300.089v-765.156h-300.089v765.156z" />
<glyph unicode="&#xe925;" glyph-name="file1-38" d="M512 874.667c234.667 0 426.667-192 426.667-426.667s-192-426.667-426.667-426.667-426.667 192-426.667 426.667 190.578 426.667 426.667 426.667zM512 960c-283.022 0-512-228.978-512-512s228.978-512 512-512c283.022 0 512 228.978 512 512s-230.4 512-512 512v0zM556.089 480.711l196.267 196.267-59.733 59.733-180.622-180.622-180.622 180.622-61.156-59.733 199.111-199.111v-7.111h-162.133v-85.333h163.556v-56.889h-163.556v-85.333h163.556v-129.422h85.333v129.422h163.556v85.333h-163.556v56.889h163.556v85.333h-163.556v9.956z" />
<glyph unicode="&#xe926;" glyph-name="file1-39" d="M512 960c-283.022 0-512-228.978-512-512s228.978-512 512-512 512 228.978 512 512-228.978 512-512 512zM719.644 469.333v-85.333h-163.556v-56.889h163.556v-85.333h-163.556v-129.422h-85.333v129.422h-163.556v85.333h163.556v56.889h-163.556v85.333h163.556v7.111l-199.111 199.111 59.733 59.733 180.622-179.2 180.622 180.622 59.733-59.733-196.267-196.267v-11.378h163.556z" />
<glyph unicode="&#xe927;" glyph-name="file1-40" d="M514.844 819.2c207.644 0 375.467-167.822 375.467-375.467s-167.822-375.467-375.467-375.467-375.467 169.244-375.467 375.467c0 207.644 169.244 375.467 375.467 375.467zM514.844 904.533c-253.156 0-460.8-206.222-460.8-460.8s206.222-460.8 460.8-460.8c254.578 0 460.8 206.222 460.8 460.8s-206.222 460.8-460.8 460.8v0zM799.289 479.289h-234.667v251.733h-99.556v-349.867h334.222v98.133z" />
<glyph unicode="&#xe928;" glyph-name="file1-41" d="M513.422 908.8c-8.533 0-15.644 0-24.178 0-15.644-1.422-31.289-2.844-46.933-4.267-7.111-1.422-15.644-2.844-22.756-4.267-15.644-2.844-29.867-7.111-44.089-11.378-7.111-2.844-14.222-4.267-21.333-7.111-55.467-21.333-106.667-52.622-150.756-92.444-11.378-9.956-21.333-19.911-31.289-31.289-19.911-21.333-36.978-45.511-52.622-71.111-27.022-44.089-46.933-93.867-56.889-146.489-2.844-15.644-5.689-29.867-7.111-45.511s-2.844-31.289-2.844-46.933c0-15.644 1.422-31.289 2.844-46.933s4.267-31.289 7.111-45.511c11.378-52.622 29.867-102.4 56.889-146.489 15.644-25.6 32.711-49.778 52.622-71.111 9.956-11.378 19.911-21.333 31.289-31.289 44.089-39.822 95.289-71.111 150.756-92.444 7.111-2.844 14.222-5.689 21.333-7.111 14.222-4.267 29.867-8.533 44.089-11.378 7.111-1.422 15.644-2.844 22.756-4.267 15.644-2.844 31.289-4.267 46.933-4.267 8.533 0 15.644 0 24.178 0 254.578 0 460.8 206.222 460.8 460.8s-206.222 460.8-460.8 460.8zM797.867 384h-334.222v349.867h99.556v-250.311h234.667v-99.556z" />
<glyph unicode="&#xe929;" glyph-name="file1-42" d="M71.111 21.333h877.511v-85.333h-877.511v85.333zM71.111 292.978h877.511v85.333h-877.511v-85.333zM145.067 247.467l-59.733-89.6 59.733-91.022 59.733 91.022-59.733 89.6zM382.578 247.467l-59.733-91.022 59.733-91.022 59.733 91.022-59.733 91.022zM635.733 247.467l-59.733-91.022 59.733-91.022 59.733 91.022-59.733 91.022zM874.667 247.467l-59.733-91.022 59.733-91.022 59.733 91.022-59.733 91.022zM722.489 715.378l-213.333 244.622-213.333-244.622-224.711 244.622v-503.467h876.089v503.467l-224.711-244.622z" />
<glyph unicode="&#xe92a;" glyph-name="file1-43" d="M827.733 4.267c108.089 0 196.267 91.022 196.267 201.956s-88.178 201.956-196.267 201.956c-196.267 0-65.422 389.689 196.267 389.689v93.867c-466.489 0-648.533-887.467-196.267-887.467zM263.111 4.267c108.089 0 196.267 89.6 196.267 201.956 0 110.933-88.178 201.956-196.267 201.956-196.267 0-65.422 389.689 196.267 389.689v93.867c-466.489 0-648.533-887.467-196.267-887.467z" />
<glyph unicode="&#xe92b;" glyph-name="file1-44" d="M196.267 891.733c-108.089 0-196.267-91.022-196.267-201.956s88.178-201.956 196.267-201.956c196.267 0 65.422-389.689-196.267-389.689v-93.867c466.489 0 648.533 887.467 196.267 887.467zM760.889 891.733c-108.089 0-196.267-89.6-196.267-201.956 0-110.933 88.178-201.956 196.267-201.956 196.267 0 65.422-389.689-196.267-389.689v-93.867c466.489 0 648.533 887.467 196.267 887.467z" />
<glyph unicode="&#xe92c;" glyph-name="file1-45" d="M795.022 194.844c24.178 5.689 64 15.644 96.711 38.4v-201.956c1.422-52.622-166.4-95.289-372.622-95.289-1.422 0-1.422 0-2.844 0-204.8 0-371.2 42.667-371.2 95.289v201.956c34.133-21.333 73.956-32.711 96.711-38.4 73.956-18.489 170.667-28.444 274.489-28.444h2.844c103.822-1.422 201.956 9.956 275.911 28.444zM519.111 482.133h-2.844c-103.822 0-200.533 9.956-274.489 28.444-24.178 5.689-64 15.644-96.711 38.4 0 0 0 0 0-1.422v-206.222c0-52.622 166.4-95.289 371.2-95.289 1.422 0 1.422 0 2.844 0 206.222 0 374.044 42.667 374.044 95.289v206.222c0 0 0 0 0 0-34.133-21.333-73.956-32.711-96.711-38.4-75.378-17.067-173.511-27.022-277.333-27.022zM516.267 563.2c1.422 0 1.422 0 2.844 0 206.222 0 374.044 42.667 374.044 95.289v206.222c-1.422 52.622-166.4 95.289-371.2 95.289-1.422 0-1.422 0-2.844 0-207.644 0-374.044-42.667-374.044-95.289v-206.222c0-52.622 166.4-95.289 371.2-95.289z" />
<glyph unicode="&#xe92d;" glyph-name="file1-46" d="M957.156 448c0 38.4 31.289 68.267 68.267 68.267v136.533c0 31.289-25.6 56.889-56.889 56.889h-206.222v-55.467h-59.733v55.467h-644.267c-31.289 0-56.889-25.6-56.889-56.889v-136.533c38.4 0 68.267-31.289 68.267-68.267s-31.289-68.267-68.267-68.267v-136.533c0-31.289 25.6-56.889 56.889-56.889h642.844v55.467h59.733v-55.467h206.222c31.289 0 56.889 25.6 56.889 56.889v136.533c-36.978 0-66.844 29.867-66.844 68.267zM762.311 305.778h-59.733v110.933h59.733v-110.933zM762.311 480.711h-59.733v109.511h59.733v-109.511z" />
<glyph unicode="&#xe92e;" glyph-name="file1-47" d="M1006.933 659.911l-93.867 93.867c-25.6-25.6-68.267-25.6-93.867 0s-25.6 68.267 0 93.867l-93.867 93.867c-21.333 21.333-56.889 21.333-78.222 0l-140.8-140.8 38.4-38.4-41.244-41.244-38.4 38.4-440.889-440.889c-21.333-21.333-21.333-56.889 0-78.222l93.867-93.867c25.6 25.6 68.267 25.6 93.867 0s25.6-68.267 0-93.867l93.867-93.867c21.333-21.333 56.889-21.333 78.222 0l440.889 440.889-38.4 38.4 41.244 41.244 38.4-38.4 140.8 140.8c21.333 21.333 21.333 56.889 0 78.222zM622.933 600.178l-75.378 75.378 41.244 41.244 75.378-75.378-41.244-41.244zM742.4 480.711l-75.378 75.378 41.244 41.244 75.378-75.378-41.244-41.244z" />
<glyph unicode="&#xe92f;" glyph-name="file1-48" d="M938.667 775.111v-668.444h-853.333v668.444h853.333zM1024 860.444h-1024v-839.111h1024v839.111zM847.644 645.689l-49.778 51.2-285.867-274.489-287.289 274.489-49.778-51.2 337.067-321.422 335.644 321.422z" />
<glyph unicode="&#xe930;" glyph-name="file1-49" d="M0 860.444v-839.111h1024v839.111h-1024zM880.356 775.111l-368.356-352.711-368.356 352.711h736.711zM85.333 106.667v625.778l426.667-406.756 426.667 406.756v-625.778h-853.333z" />
<glyph unicode="&#xe931;" glyph-name="file1-50" d="M0 860.444v-839.111h1024v839.111h-1024zM341.333 459.378l-256-244.622v513.422l256-268.8zM139.378 775.111h745.244l-372.622-392.533-372.622 392.533zM938.667 728.178v-513.422l-256 244.622 256 268.8zM85.333 106.667v9.956l304.356 291.556 122.311-128 122.311 128 304.356-291.556v-9.956h-853.333z" />
<glyph unicode="&#xe932;" glyph-name="file1-51" d="M1014.044 860.444h-1001.244l500.622-399.644zM513.422 315.733l-512 408.178v-702.578h1024v702.578z" />
<glyph unicode="&#xe933;" glyph-name="file1-52" d="M0 860.444v-839.111h1024v839.111h-1024zM915.911 725.333l-264.533-278.756 257.422-246.044c8.533-8.533 8.533-21.333 0-29.867-4.267-4.267-9.956-7.111-15.644-7.111s-9.956 1.422-14.222 5.689l-257.422 246.044-93.867-99.556c-4.267-4.267-9.956-7.111-15.644-7.111s-11.378 2.844-15.644 7.111l-93.867 99.556-257.422-244.622c-4.267-4.267-9.956-5.689-14.222-5.689-5.689 0-11.378 2.844-15.644 7.111-8.533 8.533-7.111 21.333 0 29.867l257.422 246.044-264.533 277.333c-8.533 8.533-7.111 22.756 1.422 29.867 8.533 8.533 22.756 7.111 29.867-1.422l372.622-391.111 372.622 392.533c8.533 8.533 21.333 8.533 29.867 1.422 8.533-8.533 9.956-22.756 1.422-31.289z" />
<glyph unicode="&#xe934;" glyph-name="file1-53" d="M898.844 938.667h-768c-69.689 0-128-58.311-128-128v-448c0-71.111 58.311-128 128-128h256l256-263.111v263.111h256c69.689 0 128 56.889 128 128v448c0 71.111-58.311 128-128 128z" />
<glyph unicode="&#xe935;" glyph-name="file1-54" d="M129.422 938.667h768c69.689 0 128-58.311 128-128v-448c0-71.111-58.311-128-128-128h-256l-256-263.111v263.111h-256c-71.111 0-128 56.889-128 128v448c0 71.111 56.889 128 128 128z" />
<glyph unicode="&#xe936;" glyph-name="file1-55" d="M371.2 64l-31.289 29.867 354.133 354.133-354.133 354.133 31.289 29.867 382.578-384z" />
<glyph unicode="&#xe937;" glyph-name="file1-56" d="M376.889 54.044l-51.2 51.2 344.178 342.756-344.178 342.756 51.2 51.2 392.533-393.956z" />
<glyph unicode="&#xe938;" glyph-name="file1-57" d="M391.111 44.089l-71.111 71.111 334.222 332.8-334.222 332.8 71.111 71.111 403.911-403.911z" />
<glyph unicode="&#xe939;" glyph-name="file1-58" d="M408.178 29.867l-100.978 99.556 318.578 318.578-318.578 318.578 100.978 99.556 418.133-418.133z" />
<glyph unicode="&#xe93a;" glyph-name="file1-59" d="M618.667 28.444l-419.556 418.133 419.556 419.556 100.978-100.978-318.578-318.578 318.578-317.156z" />
<glyph unicode="&#xe93b;" glyph-name="file1-60" d="M634.311 44.089l-402.489 402.489 402.489 403.911 71.111-69.689-332.8-334.222 332.8-332.8z" />
<glyph unicode="&#xe93c;" glyph-name="file1-61" d="M649.956 54.044l-392.533 393.956 392.533 393.956 51.2-51.2-344.178-342.756 344.178-342.756z" />
<glyph unicode="&#xe93d;" glyph-name="file1-62" d="M657.067 64l-382.578 384 382.578 384 31.289-29.867-354.133-354.133 354.133-354.133z" />
<glyph unicode="&#xe93e;" glyph-name="file1-63" d="M512 960c-283.022 0-512-228.978-512-512s228.978-512 512-512c283.022 0 512 228.978 512 512s-230.4 512-512 512zM457.956 238.933l-49.778 49.778 159.289 159.289-159.289 159.289 49.778 49.778 210.489-209.067-210.489-209.067z" />
<glyph unicode="&#xe93f;" glyph-name="file1-64" d="M513.422-64c283.022 0 512 228.978 512 512s-230.4 512-512 512c-283.022 0-512-228.978-512-512s228.978-512 512-512zM566.044 657.067l49.778-49.778-159.289-159.289 159.289-159.289-49.778-49.778-209.067 209.067 209.067 209.067z" />
<glyph unicode="&#xe940;" glyph-name="file1-65" d="M0 448c0-283.022 228.978-512 512-512s512 228.978 512 512c0 283.022-228.978 512-512 512s-512-228.978-512-512zM721.067 395.378l-49.778-49.778-159.289 157.867-159.289-159.289-49.778 49.778 209.067 210.489 209.067-209.067z" />
<glyph unicode="&#xe941;" glyph-name="file1-66" d="M1025.422 448c0 283.022-228.978 512-512 512s-512-228.978-512-512c0-283.022 228.978-512 512-512s512 228.978 512 512zM302.933 500.622l49.778 49.778 159.289-159.289 159.289 159.289 49.778-49.778-207.644-209.067-210.489 209.067z" />
<glyph unicode="&#xe942;" glyph-name="file1-67" d="M512 960c-283.022 0-512-228.978-512-512s228.978-512 512-512c283.022 0 512 228.978 512 512s-228.978 512-512 512zM426.667 155.022l-69.689 69.689 221.867 223.289-221.867 223.289 69.689 69.689 292.978-292.978-292.978-292.978z" />
<glyph unicode="&#xe943;" glyph-name="file1-68" d="M513.422-64c283.022 0 512 228.978 512 512s-228.978 512-512 512c-283.022 0-512-228.978-512-512s228.978-512 512-512zM598.756 740.978l69.689-69.689-221.867-223.289 221.867-223.289-69.689-69.689-292.978 292.978 292.978 292.978z" />
<glyph unicode="&#xe944;" glyph-name="file1-69" d="M0 448c0-283.022 228.978-512 512-512s512 228.978 512 512c0 283.022-228.978 512-512 512s-512-228.978-512-512zM804.978 362.667l-69.689-69.689-223.289 221.867-223.289-221.867-69.689 69.689 292.978 292.978 292.978-292.978z" />
<glyph unicode="&#xe945;" glyph-name="file1-70" d="M1025.422 448c0 283.022-228.978 512-512 512s-512-228.978-512-512c0-283.022 228.978-512 512-512s512 228.978 512 512zM220.444 533.333l69.689 69.689 223.289-223.289 223.289 223.289 69.689-69.689-292.978-292.978-292.978 292.978z" />
<glyph unicode="&#xe946;" glyph-name="file1-71" d="M459.378 797.867l83.911-83.911-265.956-265.956 265.956-265.956-83.911-83.911-351.289 349.867 351.289 349.867zM492.089 448l349.867-349.867 83.911 83.911-265.956 265.956 265.956 265.956-83.911 83.911-349.867-349.867z" />
<glyph unicode="&#xe947;" glyph-name="file1-72" d="M574.578 98.133l-83.911 83.911 265.956 265.956-265.956 265.956 83.911 83.911 349.867-349.867-349.867-349.867zM541.867 448l-349.867 349.867-83.911-83.911 265.956-265.956-267.378-265.956 83.911-83.911 351.289 349.867z" />
<glyph unicode="&#xe948;" glyph-name="file1-73" d="M500.622-5.689l523.378 453.689-523.378 453.689v-283.022h-500.622v-341.333h500.622z" />
<glyph unicode="&#xe949;" glyph-name="file1-74" d="M965.689 436.622l-453.689 523.378-453.689-523.378h283.022v-500.622h341.333v500.622z" />
<glyph unicode="&#xe94a;" glyph-name="file1-75" d="M523.378 901.689l-523.378-453.689 523.378-453.689v283.022h500.622v341.333h-500.622z" />
<glyph unicode="&#xe94b;" glyph-name="file1-76" d="M58.311 459.378l453.689-523.378 453.689 523.378h-283.022v500.622h-341.333v-500.622z" />
<glyph unicode="&#xe94c;" glyph-name="file1-77" d="M736.711 352.711h-735.289v192h735.289v190.578l285.867-287.289-285.867-287.289v192z" />
<glyph unicode="&#xe94d;" glyph-name="file1-78" d="M608.711 672.711v-735.289h-190.578v735.289h-190.578l287.289 285.867 287.289-285.867h-193.422z" />
<glyph unicode="&#xe94e;" glyph-name="file1-79" d="M287.289 543.289h735.289v-192h-735.289v-190.578l-285.867 287.289 285.867 287.289v-192z" />
<glyph unicode="&#xe94f;" glyph-name="file1-80" d="M419.556 221.867v735.289h190.578v-735.289h190.578l-287.289-285.867-287.289 285.867h193.422z" />
<glyph unicode="&#xe950;" glyph-name="file1-81" d="M381.156 46.933l-371.2 371.2 150.756 150.756 220.444-220.444 472.178 473.6 150.756-150.756z" />
<glyph unicode="&#xe951;" glyph-name="file1-82" d="M381.156 96.711l-345.6 345.6 99.556 100.978 246.044-244.622 497.778 497.778 100.978-99.556z" />
<glyph unicode="&#xe952;" glyph-name="file1-83" d="M381.156 128l-331.378 329.956 71.111 71.111 260.267-260.267 513.422 513.422 69.689-71.111z" />
<glyph unicode="&#xe953;" glyph-name="file1-84" d="M381.156 147.911l-321.422 320 51.2 49.778 270.222-268.8 523.378 523.378 49.778-51.2z" />
<glyph unicode="&#xe954;" glyph-name="file1-85" d="M374.044 777.956v-662.756l332.8 331.378z" />
<glyph unicode="&#xe955;" glyph-name="file1-86" d="M648.533 119.467v662.756l-331.378-331.378z" />
<glyph unicode="&#xe956;" glyph-name="file1-87" d="M183.467 310.044h662.756l-331.378 332.8z" />
<glyph unicode="&#xe957;" glyph-name="file1-88" d="M843.378 587.378h-664.178l332.8-332.8z" />
<glyph unicode="&#xe958;" glyph-name="file1-89" d="M513.422 960c-283.022 0-512-228.978-512-512s228.978-512 512-512c283.022 0 512 228.978 512 512s-228.978 512-512 512zM513.422 128c-42.667 0-75.378 34.133-75.378 75.378 0 42.667 34.133 75.378 75.378 75.378 42.667 0 75.378-34.133 75.378-75.378 1.422-41.244-32.711-75.378-75.378-75.378zM567.467 328.533h-108.089l-36.978 439.467h180.622l-35.556-439.467z" />
<glyph unicode="&#xe959;" glyph-name="file1-90" d="M512 960c-283.022 0-512-228.978-512-512s228.978-512 512-512c283.022 0 512 228.978 512 512s-228.978 512-512 512zM743.822 246.044l-29.867-29.867-201.956 201.956-201.956-201.956-29.867 29.867 201.956 201.956-201.956 201.956 29.867 29.867 201.956-201.956 201.956 201.956 29.867-29.867-201.956-201.956 201.956-201.956z" />
<glyph unicode="&#xe95a;" glyph-name="file1-91" d="M512 960c-283.022 0-512-228.978-512-512s228.978-512 512-512c283.022 0 512 228.978 512 512s-228.978 512-512 512zM753.778 256l-49.778-49.778-192 192-192-192-49.778 49.778 192 192-192 192 49.778 49.778 192-192 192 192 49.778-49.778-192-192 192-192z" />
<glyph unicode="&#xe95b;" glyph-name="file1-92" d="M513.422 960c-283.022 0-512-228.978-512-512s228.978-512 512-512c283.022 0 512 228.978 512 512s-228.978 512-512 512zM766.578 265.956l-71.111-69.689-182.044 182.044-182.044-182.044-71.111 69.689 183.467 182.044-182.044 182.044 71.111 69.689 180.622-180.622 182.044 182.044 71.111-69.689-182.044-183.467 182.044-182.044z" />
<glyph unicode="&#xe95c;" glyph-name="file1-93" d="M513.422 960c-283.022 0-512-228.978-512-512s228.978-512 512-512c283.022 0 512 228.978 512 512s-230.4 512-512 512zM780.8 281.6l-100.978-100.978-166.4 166.4-167.822-166.4-100.978 100.978 167.822 166.4-167.822 166.4 100.978 100.978 166.4-166.4 166.4 166.4 100.978-100.978-166.4-166.4 167.822-166.4z" />
<glyph unicode="&#xe95d;" glyph-name="file1-94" d="M513.422 958.578c-283.022 0-512-228.978-512-512s228.978-512 512-512 512 228.978 512 512c0 283.022-228.978 512-512 512zM509.156 787.911c41.244 0 72.533-31.289 72.533-72.533 0-38.4-31.289-72.533-73.956-72.533-38.4 0-72.533 32.711-72.533 72.533 0 42.667 34.133 72.533 73.956 72.533zM648.533 99.556h-263.111v46.933c59.733 7.111 65.422 11.378 65.422 83.911v203.378c0 68.267-7.111 71.111-56.889 79.644v44.089c61.156 7.111 129.422 19.911 187.733 36.978v-364.089c0-71.111 5.689-75.378 66.844-83.911v-46.933z" />
<glyph unicode="&#xe95e;" glyph-name="file1-95" d="M910.222 960h-796.444c-62.578 0-113.778-51.2-113.778-113.778v-796.444c0-62.578 51.2-113.778 113.778-113.778h796.444c62.578 0 113.778 51.2 113.778 113.778v796.444c0 62.578-51.2 113.778-113.778 113.778zM826.311 398.222h-257.422v-257.422h-99.556v257.422h-257.422v99.556h257.422v257.422h99.556v-257.422h257.422v-99.556z" />
<glyph unicode="&#xe95f;" glyph-name="file1-96" d="M910.222 960h-796.444c-62.578 0-113.778-51.2-113.778-113.778v-796.444c0-62.578 51.2-113.778 113.778-113.778h796.444c62.578 0 113.778 51.2 113.778 113.778v796.444c0 62.578-51.2 113.778-113.778 113.778zM826.311 398.222h-614.4v99.556h614.4v-99.556z" />
<glyph unicode="&#xe960;" glyph-name="file1-97" d="M910.222 960h-796.444c-62.578 0-113.778-51.2-113.778-113.778v-796.444c0-62.578 51.2-113.778 113.778-113.778h796.444c62.578 0 113.778 51.2 113.778 113.778v796.444c0 62.578-51.2 113.778-113.778 113.778zM770.844 265.956l-69.689-69.689-182.044 182.044-182.044-182.044-69.689 69.689 182.044 182.044-182.044 182.044 69.689 69.689 182.044-182.044 182.044 182.044 69.689-69.689-182.044-182.044 182.044-182.044z" />
<glyph unicode="&#xe961;" glyph-name="file2-01" d="M1.422 469.333h1024v-42.667h-1024v42.667zM1.422 142.222h1024v42.667h-1024v-42.667zM1.422 711.111h1024v42.667h-1024v-42.667z" />
<glyph unicode="&#xe962;" glyph-name="file2-02" d="M0 483.556h1024v-71.111h-1024v71.111zM0 128h1024v71.111h-1024v-71.111zM0 696.889h1024v71.111h-1024v-71.111z" />
<glyph unicode="&#xe963;" glyph-name="file2-03" d="M0 497.778h1024v-99.556h-1024v99.556zM0 113.778h1024v99.556h-1024v-99.556zM0 682.667h1024v99.556h-1024v-99.556z" />
<glyph unicode="&#xe964;" glyph-name="file2-04" d="M0 519.111h1024v-142.222h-1024v142.222zM0 92.444h1024v142.222h-1024v-142.222zM0 661.333h1024v142.222h-1024v-142.222z" />
<glyph unicode="&#xe965;" glyph-name="file2-05" d="M611.556 802.133l332.8-332.8h-942.933v-42.667h942.933l-332.8-332.8 29.867-29.867 384 384-384 384z" />
<glyph unicode="&#xe966;" glyph-name="file2-06" d="M573.156 790.756l308.622-307.2h-881.778v-71.111h881.778l-308.622-307.2 51.2-51.2 392.533 393.956-392.533 393.956z" />
<glyph unicode="&#xe967;" glyph-name="file2-07" d="M548.978 780.8l283.022-283.022h-832v-99.556h832l-283.022-283.022 71.111-71.111 403.911 403.911-403.911 403.911z" />
<glyph unicode="&#xe968;" glyph-name="file2-08" d="M489.244 766.578l247.467-247.467h-736.711v-142.222h736.711l-247.467-247.467 100.978-99.556 418.133 418.133-418.133 418.133z" />
<glyph unicode="&#xe969;" glyph-name="file2-09" d="M534.756 766.578l-100.978 99.556-418.133-418.133 418.133-418.133 100.978 99.556-247.467 247.467h736.711v142.222h-736.711z" />
<glyph unicode="&#xe96a;" glyph-name="file2-10" d="M1024 497.778h-832l283.022 283.022-71.111 71.111-403.911-403.911 403.911-403.911 71.111 71.111-283.022 283.022h832z" />
<glyph unicode="&#xe96b;" glyph-name="file2-11" d="M450.844 789.333l-51.2 51.2-392.533-393.956 392.533-393.956 51.2 49.778-308.622 308.622h881.778v71.111h-881.778z" />
<glyph unicode="&#xe96c;" glyph-name="file2-12" d="M412.444 799.289l-29.867 31.289-384-384 384-384 29.867 29.867-332.8 332.8h942.933v42.667h-942.933z" />
<glyph unicode="&#xe96d;" glyph-name="file2-13" d="M611.556 799.289l332.8-331.378h-729.6v-42.667h729.6l-332.8-332.8 29.867-29.867 384 384-384 384z" />
<glyph unicode="&#xe96e;" glyph-name="file2-14" d="M567.467 789.333l308.622-307.2h-668.444v-71.111h668.444l-308.622-308.622 51.2-49.778 393.956 393.956-393.956 393.956z" />
<glyph unicode="&#xe96f;" glyph-name="file2-15" d="M548.978 780.8l284.444-283.022h-620.089v-99.556h620.089l-284.444-283.022 71.111-71.111 402.489 403.911-402.489 403.911z" />
<glyph unicode="&#xe970;" glyph-name="file2-16" d="M489.244 765.156l247.467-247.467h-523.378v-142.222h523.378l-247.467-247.467 100.978-100.978 418.133 419.556-418.133 418.133z" />
<glyph unicode="&#xe971;" glyph-name="file2-17" d="M534.756 766.578l-100.978 99.556-418.133-418.133 418.133-418.133 100.978 99.556-247.467 247.467h523.378v142.222h-523.378z" />
<glyph unicode="&#xe972;" glyph-name="file2-18" d="M475.022 780.8l-71.111 71.111-403.911-403.911 403.911-403.911 71.111 71.111-283.022 283.022h618.667v99.556h-618.667z" />
<glyph unicode="&#xe973;" glyph-name="file2-19" d="M457.956 790.756l-51.2 51.2-392.533-393.956 392.533-393.956 51.2 51.2-308.622 307.2h668.444v71.111h-668.444z" />
<glyph unicode="&#xe974;" glyph-name="file2-20" d="M809.244 469.333h-729.6l332.8 332.8-29.867 29.867-384-384 384-384 29.867 29.867-332.8 332.8h729.6z" />
<glyph unicode="&#xe975;" glyph-name="file2-21" d="M512 265.956l-354.133 354.133-29.867-31.289 384-382.578 384 382.578-29.867 31.289z" />
<glyph unicode="&#xe976;" glyph-name="file2-22" d="M512 285.867l-342.756 344.178-51.2-51.2 393.956-392.533 393.956 392.533-51.2 51.2z" />
<glyph unicode="&#xe977;" glyph-name="file2-23" d="M512 305.778l-332.8 334.222-71.111-71.111 403.911-403.911 403.911 403.911-71.111 71.111z" />
<glyph unicode="&#xe978;" glyph-name="file2-24" d="M512 337.067l-318.578 317.156-99.556-99.556 418.133-419.556 418.133 419.556-99.556 99.556z" />
<glyph unicode="&#xe979;" glyph-name="file2-25" d="M93.867 341.333l99.556-99.556 318.578 317.156 318.578-317.156 99.556 99.556-418.133 419.556z" />
<glyph unicode="&#xe97a;" glyph-name="file2-26" d="M108.089 327.111l71.111-71.111 332.8 334.222 332.8-334.222 71.111 71.111-403.911 403.911z" />
<glyph unicode="&#xe97b;" glyph-name="file2-27" d="M118.044 317.156l51.2-51.2 342.756 344.178 342.756-344.178 51.2 51.2-393.956 392.533z" />
<glyph unicode="&#xe97c;" glyph-name="file2-28" d="M128 307.2l29.867-31.289 354.133 354.133 354.133-354.133 29.867 31.289-384 382.578z" />
<glyph unicode="&#xe97d;" glyph-name="file2-29" d="M539.022 755.2h-42.667v-285.867h-285.867v-42.667h285.867v-285.867h42.667v285.867h285.867v42.667h-285.867z" />
<glyph unicode="&#xe97e;" glyph-name="file2-30" d="M813.511 483.556h-271.644v271.644h-71.111v-271.644h-271.644v-71.111h271.644v-271.644h71.111v271.644h271.644z" />
<glyph unicode="&#xe97f;" glyph-name="file2-31" d="M567.467 755.2h-99.556v-257.422h-257.422v-99.556h257.422v-257.422h99.556v257.422h257.422v99.556h-257.422z" />
<glyph unicode="&#xe980;" glyph-name="file2-32" d="M588.8 755.2h-142.222v-236.089h-236.089v-142.222h236.089v-236.089h142.222v236.089h236.089v142.222h-236.089z" />
<glyph unicode="&#xe981;" glyph-name="file2-33" d="M204.8 469.333h614.4v-42.667h-614.4v42.667z" />
<glyph unicode="&#xe982;" glyph-name="file2-34" d="M199.111 483.556h614.4v-71.111h-614.4v71.111z" />
<glyph unicode="&#xe983;" glyph-name="file2-35" d="M210.489 497.778h614.4v-99.556h-614.4v99.556z" />
<glyph unicode="&#xe984;" glyph-name="file2-36" d="M203.378 519.111h614.4v-142.222h-614.4v142.222z" />
<glyph unicode="&#xe985;" glyph-name="file2-37" d="M533.333 960h-42.667v-490.667h-490.667v-42.667h490.667v-490.667h42.667v490.667h490.667v42.667h-490.667z" />
<glyph unicode="&#xe986;" glyph-name="file2-38" d="M553.244 960h-71.111v-476.444h-476.444v-71.111h476.444v-476.444h71.111v476.444h476.444v71.111h-476.444z" />
<glyph unicode="&#xe987;" glyph-name="file2-39" d="M568.889 957.156h-99.556v-463.644h-462.222v-99.556h462.222v-460.8h99.556v460.8h462.222v99.556h-462.222z" />
<glyph unicode="&#xe988;" glyph-name="file2-40" d="M1029.689 520.533h-440.889v440.889h-142.222v-440.889h-440.889v-142.222h440.889v-440.889h142.222v440.889h440.889z" />
<glyph unicode="&#xe989;" glyph-name="file2-41" d="M864.711 826.311l-347.022-347.022-347.022 347.022-29.867-29.867 347.022-347.022-347.022-347.022 29.867-29.867 347.022 347.022 347.022-347.022 29.867 29.867-347.022 347.022 347.022 347.022z" />
<glyph unicode="&#xe98a;" glyph-name="file2-42" d="M853.333 836.267l-337.067-335.644-337.067 335.644-49.778-49.778 337.067-337.067-337.067-337.067 49.778-49.778 337.067 337.067 337.067-337.067 49.778 49.778-335.644 337.067 335.644 337.067z" />
<glyph unicode="&#xe98b;" glyph-name="file2-43" d="M844.8 847.644l-327.111-327.111-327.111 327.111-71.111-71.111 327.111-327.111-327.111-327.111 71.111-69.689 327.111 327.111 327.111-327.111 69.689 69.689-327.111 327.111 327.111 327.111z" />
<glyph unicode="&#xe98c;" glyph-name="file2-44" d="M930.133 760.889l-100.978 100.978-311.467-311.467-311.467 311.467-100.978-100.978 311.467-311.467-311.467-311.467 100.978-100.978 311.467 312.889 311.467-312.889 100.978 100.978-312.889 311.467z" />
<glyph unicode="&#xe98d;" glyph-name="file2-45" d="M873.244 810.667c-200.533 200.533-524.8 200.533-723.911 0-200.533-200.533-200.533-524.8 0-723.911 200.533-200.533 524.8-200.533 723.911 0 200.533 199.111 200.533 523.378 0 723.911zM819.2 426.667h-285.867v-285.867h-42.667v285.867h-285.867v42.667h285.867v285.867h42.667v-285.867h285.867v-42.667z" />
<glyph unicode="&#xe98e;" glyph-name="file2-46" d="M871.822 809.244c-200.533 200.533-524.8 200.533-723.911 0s-200.533-524.8 0-723.911c200.533-200.533 524.8-200.533 723.911 0 200.533 200.533 200.533 524.8 0 723.911zM816.356 412.444h-271.644v-271.644h-71.111v271.644h-271.644v71.111h271.644v271.644h71.111v-271.644h271.644v-71.111z" />
<glyph unicode="&#xe98f;" glyph-name="file2-47" d="M876.089 810.667c-200.533 200.533-524.8 200.533-723.911 0-200.533-200.533-200.533-524.8 0-723.911 200.533-200.533 524.8-200.533 723.911 0 199.111 199.111 199.111 523.378 0 723.911zM820.622 398.222h-257.422v-257.422h-99.556v257.422h-257.422v99.556h257.422v257.422h99.556v-257.422h257.422v-99.556z" />
<glyph unicode="&#xe990;" glyph-name="file2-48" d="M878.933 809.244c-199.111 200.533-523.378 200.533-723.911 0s-200.533-524.8 0-723.911c200.533-200.533 524.8-200.533 723.911 0 200.533 200.533 200.533 524.8 0 723.911zM824.889 376.889h-236.089v-236.089h-142.222v236.089h-236.089v142.222h236.089v236.089h142.222v-236.089h236.089v-142.222z" />
<glyph unicode="&#xe991;" glyph-name="file2-49" d="M876.089 809.244c-200.533 200.533-524.8 200.533-723.911 0-200.533-200.533-200.533-524.8 0-723.911 200.533-200.533 524.8-200.533 723.911 0 200.533 199.111 200.533 523.378 0 723.911zM822.044 425.244h-614.4v42.667h614.4v-42.667z" />
<glyph unicode="&#xe992;" glyph-name="file2-50" d="M876.089 807.822c-200.533 200.533-524.8 200.533-723.911 0s-200.533-524.8 0-723.911c200.533-200.533 524.8-200.533 723.911 0s199.111 523.378 0 723.911zM820.622 411.022h-614.4v71.111h614.4v-71.111z" />
<glyph unicode="&#xe993;" glyph-name="file2-51" d="M877.511 809.244c-200.533 200.533-524.8 200.533-723.911 0-200.533-200.533-200.533-524.8 0-723.911 200.533-200.533 524.8-200.533 723.911 0 200.533 199.111 200.533 523.378 0 723.911zM823.467 396.8h-614.4v99.556h614.4v-99.556z" />
<glyph unicode="&#xe994;" glyph-name="file2-52" d="M876.089 809.244c-200.533 200.533-524.8 200.533-723.911 0-200.533-200.533-200.533-524.8 0-723.911 200.533-200.533 524.8-200.533 723.911 0 200.533 199.111 200.533 523.378 0 723.911zM822.044 375.467h-614.4v142.222h614.4v-142.222z" />
<glyph unicode="&#xe995;" glyph-name="file2-53" d="M896-64h-742.4v809.244h213.333v214.756h529.067v-1024zM301.511 960l-147.911-147.911h147.911v147.911z" />
<glyph unicode="&#xe996;" glyph-name="file2-54" d="M4.267 76.8v527.644h213.333v214.756h809.244v-742.4h-1022.578zM153.6 669.867v149.333l-147.911-149.333h147.911z" />
<glyph unicode="&#xe997;" glyph-name="file2-55" d="M258.844 294.4h-31.289v502.044l164.978 163.556h402.489v-665.6h-65.422v600.178h-271.644v-163.556h-163.556v-436.622h-35.556zM765.156 228.978h-190.578v280.178h-126.578v-278.756h-189.156l253.156-292.978 253.156 291.556z" />
<glyph unicode="&#xe998;" glyph-name="file2-56" d="M298.667 325.689l-64-73.956v548.978l160.711 159.289h392.533v-709.689l-62.578 73.956v573.156h-265.956v-159.289h-160.711v-412.444zM512 473.6l-238.933-275.911h179.2v-263.111h119.467v263.111h179.2l-238.933 275.911z" />
<glyph unicode="&#xe999;" glyph-name="file2-57" d="M884.622 961.422v-1024h-742.4v809.244l214.756 213.333h527.644zM799.289 876.089h-356.978v-214.756h-214.756v-638.578h571.733v853.333z" />
<glyph unicode="&#xe99a;" glyph-name="file2-58" d="M876.089 954.311h-435.2l-176.356-176.356v-58.311l-116.622-116.622v-665.6h610.133v174.933h116.622v841.956zM688.356 7.111h-469.333v524.8h46.933v-419.556h423.822v-105.244zM804.978 182.044h-469.333v526.222h176.356v176.356h294.4v-702.578z" />
<glyph unicode="&#xe99b;" glyph-name="file2-59" d="M524.8-61.156v0l-521.956-1.422v809.244l214.756 213.333h527.644v-297.244h-85.333v213.333h-358.4v-214.756h-213.333v-638.578h438.044v-83.911zM792.178 578.844h-182.044v-230.4h-228.978v-180.622h230.4v-230.4h180.622v230.4h230.4v182.044h-230.4v228.978z" />
<glyph unicode="&#xe99c;" glyph-name="file2-60" d="M701.156 8.533l44.089-44.089v-28.444h-116.622l72.533 72.533zM86.756 21.333v638.578h214.756v214.756h356.978v-327.111l41.244-41.244 44.089 44.089v409.6h-527.644l-214.756-213.333v-810.667h446.578l-85.333 85.333h-275.911zM863.289-32.711l128 128-162.133 162.133 162.133 162.133-128 128-162.133-162.133-162.133 162.133-128-128 162.133-162.133-163.556-162.133 128-128 162.133 162.133 163.556-162.133z" />
<glyph unicode="&#xe99d;" glyph-name="file2-61" d="M570.311 21.333v-85.333h-570.311v804.978l213.333 213.333h524.8v-341.333l-85.333 72.533v184.889h-354.133v-213.333h-213.333v-635.733h484.978zM654.222 573.156v-238.933h-352.711v-159.289h352.711v-238.933l369.778 318.578-369.778 318.578z" />
<glyph unicode="&#xe99e;" glyph-name="file2-62" d="M657.067 233.244l85.333 85.333v-382.578h-742.4v809.244l214.756 214.756h527.644v-89.6l-85.333-85.333v89.6h-356.978v-214.756h-214.756v-638.578h571.733v211.911zM381.156 389.689l415.289 415.289 155.022-155.022-415.289-415.289-228.978-73.956 73.956 228.978zM412.444 369.778l-49.778-155.022 155.022 49.778-105.244 105.244z" />
<glyph unicode="&#xe99f;" glyph-name="file2-63" d="M355.556 960v0l-213.333-214.756v-809.244h742.4v1024h-529.067zM799.289 21.333h-571.733v638.578h213.333v214.756h356.978v-853.333zM302.933 570.311h344.178v-68.267h-344.178v68.267zM546.133 348.444h-243.2v68.267h243.2v-68.267zM302.933 264.533h416.711v-68.267h-416.711v68.267z" />
<glyph unicode="&#xe9a0;" glyph-name="file2-64" d="M311.467 72.533h388.267v-136.533h-585.956v816.356h136.533v-678.4h61.156zM736.711 786.489v172.089h-425.244v-824.889h597.333v652.8h-172.089zM789.333 839.111h119.467l-120.889 120.889v-120.889z" />
<glyph unicode="&#xe9a1;" glyph-name="file2-65" d="M512 896l-512-886.044h1022.578l-510.578 886.044zM578.844 564.622l-27.022-322.844h-79.644l-27.022 322.844h133.689zM512 93.867c-31.289 0-55.467 24.178-55.467 55.467s24.178 55.467 55.467 55.467c31.289 0 55.467-24.178 55.467-55.467 0-29.867-24.178-55.467-55.467-55.467z" />
<glyph unicode="&#xe9a2;" glyph-name="file2-66" d="M992.711 709.689h-213.333c0 0 0 0 0 1.422l-28.444 86.756c-7.111 15.644-27.022 27.022-44.089 27.022h-391.111c-17.067 0-36.978-12.8-44.089-27.022l-28.444-86.756c0 0 0 0 0-1.422h-213.333c-17.067 0-29.867-14.222-29.867-29.867v-577.422c0-17.067 14.222-29.867 29.867-29.867h962.844c17.067 0 29.867 14.222 29.867 29.867v576c1.422 17.067-12.8 31.289-29.867 31.289zM510.578 173.511c-122.311 0-220.444 99.556-220.444 220.444 0 122.311 99.556 220.444 220.444 220.444s220.444-99.556 220.444-220.444c1.422-120.889-98.133-220.444-220.444-220.444z" />
<glyph unicode="&#xe9a3;" glyph-name="file2-67" d="M994.133 712.533h-204.8c0 0 0 0 0 1.422l-29.867 86.756c-7.111 15.644-27.022 27.022-44.089 27.022h-393.956c-17.067 0-36.978-12.8-44.089-27.022l-29.867-86.756c0 0 0 0 0-1.422h-214.756c-17.067 0-31.289-14.222-31.289-31.289v-583.111c0-17.067 14.222-31.289 31.289-31.289h961.422c17.067 0 31.289 14.222 31.289 31.289v583.111c0 17.067-14.222 31.289-31.289 31.289zM513.422 156.444c-133.689 0-241.778 108.089-241.778 241.778s108.089 241.778 241.778 241.778c133.689 0 241.778-108.089 241.778-241.778s-108.089-241.778-241.778-241.778zM669.867 398.222c0-85.333-69.689-156.444-156.444-156.444-85.333 0-156.444 69.689-156.444 156.444 0 85.333 69.689 156.444 156.444 156.444 86.756-1.422 156.444-71.111 156.444-156.444z" />
<glyph unicode="&#xe9a4;" glyph-name="file2-68" d="M378.311 146.489l-51.2-51.2c-44.089-44.089-118.044-44.089-162.133 0-21.333 21.333-32.711 49.778-32.711 79.644s11.378 58.311 32.711 79.644l189.156 187.733c39.822 38.4 113.778 96.711 167.822 42.667 24.178-24.178 38.4 1.422 62.578 25.6s51.2 38.4 25.6 64c-91.022 91.022-227.556 73.956-345.6-42.667l-189.156-187.733c-45.511-45.511-71.111-105.244-71.111-169.244s25.6-123.733 71.111-169.244c46.933-46.933 108.089-69.689 170.667-69.689 61.156 0 123.733 22.756 170.667 69.689l51.2 51.2c24.178 24.178-2.844 41.244-27.022 66.844-25.6 24.178-38.4 46.933-62.578 22.756zM952.889 877.511c-98.133 98.133-236.089 102.4-327.111 12.8l-64-64c-24.178-24.178 0-38.4 25.6-64 24.178-24.178 39.822-49.778 64-25.6l64 64c46.933 46.933 109.511 27.022 149.333-12.8 21.333-21.333 32.711-49.778 32.711-79.644s-11.378-58.311-32.711-79.644l-203.378-200.533c-92.444-92.444-136.533-48.356-155.022-29.867-24.178 24.178-38.4-1.422-62.578-25.6s-51.2-39.822-25.6-64c42.667-42.667 91.022-62.578 142.222-62.578 62.578 0 128 31.289 190.578 93.867l201.956 199.111c45.511 45.511 71.111 105.244 71.111 169.244s-25.6 123.733-71.111 169.244z" />
<glyph unicode="&#xe9a5;" glyph-name="file2-69" d="M768 854.756c-189.156 0-256-172.089-256-172.089s-58.311 172.089-256 172.089c-196.267 0-256-172.089-256-172.089v-612.978c0 0 73.956 173.511 256 173.511s256-173.511 256-173.511 66.844 173.511 256 173.511c189.156 0 256-173.511 256-173.511v610.133c0 0-66.844 174.933-256 174.933zM256 314.311c-76.8 0-137.956-24.178-184.889-55.467v411.022c14.222 31.289 64 115.2 184.889 115.2 139.378 0 183.467-112.356 189.156-125.156l24.178-64v-356.978c-49.778 41.244-120.889 75.378-213.333 75.378zM952.889 261.689c-46.933 29.867-108.089 52.622-184.889 52.622-93.867 0-163.556-32.711-213.333-73.956v358.4l22.756 58.311c1.422 5.689 52.622 126.578 189.156 126.578 115.2 0 169.244-88.178 184.889-119.467v-402.489z" />
<glyph unicode="&#xe9a6;" glyph-name="file2-70" d="M871.822 834.844v-443.733l-103.822 110.933-103.822-110.933v445.156c-110.933-45.511-152.178-153.6-152.178-153.6s-58.311 172.089-256 172.089c-196.267 0-256-172.089-256-172.089v-612.978c0 0 73.956 173.511 256 173.511s256-173.511 256-173.511 66.844 173.511 256 173.511 256-173.511 256-173.511v610.133c0 0-41.244 109.511-152.178 155.022zM664.178 391.111v0 0 0zM871.822 391.111v0 0 0zM871.822 391.111v0 0zM664.178 391.111v0 0z" />
<glyph unicode="&#xe9a7;" glyph-name="file2-71" d="M972.8 675.556h-268.8v119.467c0 28.444-22.756 51.2-51.2 51.2h-281.6c-28.444 0-51.2-22.756-51.2-51.2v-119.467h-268.8c-28.444 0-51.2-22.756-51.2-51.2v-537.6c0-28.444 22.756-51.2 51.2-51.2h921.6c28.444 0 51.2 22.756 51.2 51.2v537.6c0 28.444-22.756 51.2-51.2 51.2zM405.333 723.911c0 28.444 22.756 51.2 51.2 51.2h110.933c28.444 0 51.2-22.756 51.2-51.2v-48.356h-213.333v48.356z" />
<glyph unicode="&#xe9a8;" glyph-name="file2-72" d="M648.533 425.244v164.978h-645.689v-489.244h163.556v-164.978h645.689v489.244h-163.556zM83.911 182.044v327.111h484.978v-83.911h-403.911v-243.2h-81.067zM246.044 344.178h484.978v-327.111h-484.978v327.111z" />
<glyph unicode="&#xe9a9;" glyph-name="file2-73" d="M283.022 448c0-49.778-39.822-89.6-89.6-89.6s-89.6 39.822-89.6 89.6c0 49.778 39.822 89.6 89.6 89.6s89.6-39.822 89.6-89.6zM513.422 537.6c-49.778 0-89.6-39.822-89.6-89.6s39.822-89.6 89.6-89.6 89.6 39.822 89.6 89.6c0 49.778-39.822 89.6-89.6 89.6zM833.422 537.6c-49.778 0-89.6-39.822-89.6-89.6s39.822-89.6 89.6-89.6c49.778 0 89.6 39.822 89.6 89.6s-39.822 89.6-89.6 89.6z" />
<glyph unicode="&#xe9aa;" glyph-name="file2-74" d="M514.844 678.4c-49.778 0-89.6 39.822-89.6 89.6s39.822 89.6 89.6 89.6c49.778 0 89.6-39.822 89.6-89.6s-39.822-89.6-89.6-89.6zM604.444 448c0 49.778-39.822 89.6-89.6 89.6s-89.6-39.822-89.6-89.6c0-49.778 39.822-89.6 89.6-89.6s89.6 39.822 89.6 89.6zM604.444 128c0 49.778-39.822 89.6-89.6 89.6s-89.6-39.822-89.6-89.6c0-49.778 39.822-89.6 89.6-89.6s89.6 39.822 89.6 89.6z" />
<glyph unicode="&#xe9ab;" glyph-name="file2-75" d="M840.533 630.044c-55.467 0-105.244-25.6-139.378-65.422l-342.756 170.667c2.844 12.8 4.267 27.022 4.267 41.244 1.422 102.4-81.067 183.467-180.622 183.467s-183.467-81.067-183.467-182.044c0-100.978 81.067-182.044 182.044-182.044 55.467 0 106.667 25.6 139.378 65.422l342.756-170.667c-2.844-14.222-4.267-28.444-4.267-42.667s1.422-28.444 4.267-41.244l-342.756-170.667c-34.133 39.822-83.911 65.422-139.378 65.422-100.978 0-182.044-81.067-182.044-182.044s81.067-182.044 182.044-182.044c100.978 0 182.044 81.067 182.044 182.044 0 14.222-1.422 28.444-4.267 41.244l342.756 170.667c34.133-39.822 83.911-65.422 139.378-65.422 100.978 0 182.044 81.067 182.044 182.044s-81.067 182.044-182.044 182.044z" />
<glyph unicode="&#xe9ac;" glyph-name="file2-76" d="M1024 840.533h-1022.578v-702.578h438.044l-118.044-118.044h382.578l-118.044 118.044h438.044v702.578zM910.222 250.311h-795.022v476.444h795.022v-476.444z" />
<glyph unicode="&#xe9ad;" glyph-name="file2-77" d="M914.489 593.067v-546.133c0-8.533-7.111-15.644-15.644-15.644h-301.511v-44.089l69.689-42.667c7.111-4.267 5.689-8.533-2.844-8.533h-267.378c-8.533 0-9.956 4.267-2.844 8.533l66.844 42.667v44.089h-300.089c-8.533 0-15.644 7.111-15.644 15.644v546.133c0 8.533 7.111 15.644 15.644 15.644h54.044c1.422-2.844 4.267-5.689 5.689-8.533l46.933-55.467h-42.667c-8.533 0-15.644-7.111-15.644-15.644v-342.756c0-8.533 7.111-15.644 15.644-15.644h608.711c8.533 0 15.644 7.111 15.644 15.644v342.756c0 8.533-7.111 15.644-15.644 15.644h-62.578l46.933 55.467c2.844 2.844 4.267 5.689 7.111 8.533h73.956c8.533-1.422 15.644-7.111 15.644-15.644zM492.089 408.178c7.111-8.533 17.067-12.8 27.022-12.8s19.911 4.267 27.022 12.8l207.644 246.044c15.644 18.489 8.533 32.711-15.644 32.711h-108.089c-11.378 0-27.022 0-42.667 0v273.067c0 0-18.489 0-42.667 0h-49.778c-22.756 0-42.667 0-42.667 0v-273.067c-15.644 0-31.289 0-42.667 0h-108.089c-22.756 0-29.867-14.222-15.644-32.711l206.222-246.044z" />
<glyph unicode="&#xe9ae;" glyph-name="file2-78" d="M900.267 519.111h-93.867v-71.111h62.578l88.178-98.133v-271.644h-881.778v271.644l89.6 98.133h62.578v71.111h-95.289l-128-142.222v-369.778h1024v369.778zM227.556 361.244h580.267v533.333h-412.444l-167.822-167.822v-365.511zM292.978 659.911h167.822v167.822h278.756v-399.644h-446.578v231.822z" />
<glyph unicode="&#xe9af;" glyph-name="file2-79" d="M804.978 722.489v200.533h-580.267v-200.533h-221.867v-526.222h221.867v-231.822h412.444l167.822 167.822v65.422h221.867v526.222h-221.867zM955.733 652.8v-65.422h-129.422v65.422h129.422zM291.556 856.178h446.578v-133.689h-446.578v133.689zM570.311 31.289h-278.756v395.378h-66.844v-157.867h-79.644v241.778h742.4v-241.778h-82.489v157.867h-66.844v-227.556h-167.822v-167.822z" />
<glyph unicode="&#xe9b0;" glyph-name="file2-80" d="M517.689 878.933l-267.378-250.311h169.244v-263.111h194.844v263.111h169.244l-265.956 250.311zM995.556 287.289l-163.556 109.511h-100.978l174.933-133.689h-180.622c-5.689 0-9.956-2.844-12.8-7.111l-41.244-115.2h-307.2l-41.244 115.2c-2.844 4.267-7.111 7.111-12.8 7.111h-182.044l174.933 133.689h-100.978l-163.556-109.511c-24.178-14.222-38.4-48.356-32.711-73.956l28.444-157.867c7.111-27.022 35.556-48.356 64-48.356h836.267c28.444 0 58.311 21.333 64 48.356l28.444 157.867c8.533 25.6-7.111 59.733-31.289 73.956z" />
<glyph unicode="&#xe9b1;" glyph-name="file2-81" d="M991.289 287.289l-163.556 109.511h-100.978l174.933-133.689h-182.044c-5.689 0-9.956-2.844-12.8-7.111l-41.244-115.2h-307.2l-41.244 115.2c-2.844 4.267-7.111 7.111-12.8 7.111h-182.044l174.933 133.689h-100.978l-163.556-109.511c-24.178-14.222-38.4-48.356-32.711-73.956l28.444-157.867c8.533-27.022 36.978-48.356 65.422-48.356h836.267c28.444 0 58.311 21.333 64 48.356l28.444 157.867c7.111 25.6-7.111 59.733-31.289 73.956zM779.378 615.822h-169.244v263.111h-194.844v-263.111h-169.244l265.956-250.311 267.378 250.311z" />
<glyph unicode="&#xe9b2;" glyph-name="file2-82" d="M1024 46.933l-281.6 281.6c44.089 64 68.267 142.222 68.267 226.133 0 223.289-180.622 405.333-405.333 405.333-223.289 0-405.333-182.044-405.333-405.333s182.044-405.333 405.333-405.333c83.911 0 162.133 25.6 226.133 68.267l281.6-281.6 110.933 110.933zM405.333 277.333c-152.178 0-277.333 123.733-277.333 277.333s125.156 277.333 277.333 277.333 277.333-125.156 277.333-277.333-123.733-277.333-277.333-277.333z" />
<glyph unicode="&#xe9b3;" glyph-name="file2-83" d="M1022.578 89.6l-264.533 263.111c34.133 59.733 54.044 128 54.044 201.956-1.422 223.289-182.044 405.333-406.756 405.333s-405.333-182.044-405.333-405.333 182.044-405.333 405.333-405.333c73.956 0 142.222 19.911 201.956 54.044l264.533-264.533 150.756 150.756zM405.333 334.222c-120.889 0-220.444 98.133-220.444 220.444s99.556 220.444 220.444 220.444 220.444-99.556 220.444-220.444-98.133-220.444-220.444-220.444z" />
<glyph unicode="&#xe9b4;" glyph-name="file2-84" d="M1024 804.978v-59.733h-423.822c-12.8-56.889-64-99.556-125.156-99.556s-112.356 42.667-125.156 99.556h-349.867v59.733h348.444c14.222 56.889 64 99.556 125.156 99.556s112.356-42.667 125.156-99.556h425.244zM278.756 250.311c-61.156 0-112.356-42.667-125.156-99.556h-153.6v-59.733h152.178c12.8-56.889 64-99.556 125.156-99.556s112.356 42.667 125.156 99.556h621.511v59.733h-620.089c-12.8 56.889-64 99.556-125.156 99.556zM752.356 577.422c-61.156 0-112.356-42.667-125.156-99.556h-627.2v-59.733h627.2c12.8-56.889 64-99.556 125.156-99.556s112.356 42.667 125.156 99.556h146.489v59.733h-145.067c-14.222 56.889-65.422 99.556-126.578 99.556z" />
<glyph unicode="&#xe9b5;" glyph-name="file2-85" d="M866.133 88.178v-152.178h-59.733v152.178c-56.889 14.222-99.556 64-99.556 125.156s42.667 112.356 99.556 125.156v621.511h59.733v-620.089c56.889-12.8 99.556-64 99.556-125.156s-41.244-112.356-99.556-126.578zM539.022 814.933v145.067h-59.733v-145.067c-56.889-14.222-99.556-64-99.556-125.156s42.667-112.356 99.556-125.156v-628.622h59.733v627.2c56.889 12.8 99.556 64 99.556 125.156s-41.244 112.356-99.556 126.578zM211.911 536.178v423.822h-59.733v-423.822c-56.889-14.222-99.556-64-99.556-125.156s42.667-112.356 99.556-125.156v-349.867h59.733v348.444c56.889 12.8 99.556 64 99.556 125.156 0 62.578-41.244 113.778-99.556 126.578z" />
<glyph unicode="&#xe9b6;" glyph-name="file2-86" d="M925.867 448c0 64 39.822 113.778 98.133 149.333-9.956 35.556-24.178 69.689-42.667 102.4-66.844-17.067-119.467 8.533-164.978 54.044s-58.311 99.556-41.244 164.978c-32.711 17.067-66.844 31.289-102.4 42.667-34.133-61.156-96.711-99.556-160.711-99.556s-126.578 39.822-160.711 98.133c-35.556-9.956-69.689-24.178-102.4-42.667 17.067-66.844 2.844-119.467-41.244-164.978-45.511-45.511-99.556-71.111-164.978-54.044-17.067-32.711-31.289-66.844-42.667-102.4 59.733-34.133 98.133-85.333 98.133-149.333s-38.4-125.156-98.133-159.289c9.956-35.556 24.178-69.689 42.667-102.4 66.844 17.067 119.467 2.844 164.978-41.244 45.511-45.511 58.311-99.556 41.244-164.978 32.711-17.067 66.844-31.289 102.4-42.667 34.133 59.733 96.711 98.133 160.711 98.133s126.578-39.822 160.711-98.133c35.556 9.956 69.689 24.178 102.4 42.667-17.067 66.844-4.267 119.467 41.244 164.978s99.556 71.111 164.978 54.044c17.067 32.711 31.289 66.844 42.667 102.4-59.733 34.133-98.133 83.911-98.133 147.911zM512 224.711c-122.311 0-223.289 99.556-223.289 223.289 0 122.311 99.556 223.289 223.289 223.289 122.311 0 223.289-99.556 223.289-223.289 0-122.311-100.978-223.289-223.289-223.289z" />
<glyph unicode="&#xe9b7;" glyph-name="file2-87" d="M621.511 49.778h-502.044v800.711h502.044v-143.644h113.778v143.644c0 62.578-51.2 113.778-113.778 113.778h-500.622c-62.578 0-113.778-51.2-113.778-113.778v-800.711c0-62.578 51.2-113.778 113.778-113.778h500.622c62.578 0 113.778 51.2 113.778 113.778v142.222h-113.778v-142.222zM1035.378 450.844l-227.556 223.289v-136.533h-514.844v-172.089h514.844v-136.533l227.556 221.867z" />
<glyph unicode="&#xe9b8;" glyph-name="file2-88" d="M914.489 960h-554.667c-62.578 0-112.356-51.2-112.356-113.778v-142.222h112.356v142.222h554.667v-796.444h-554.667v142.222h-112.356v-142.222c0-62.578 49.778-113.778 112.356-113.778h554.667c62.578 0 113.778 51.2 113.778 113.778v796.444c0 62.578-51.2 113.778-113.778 113.778zM516.267 226.133l227.556 221.867-227.556 221.867v-136.533h-512v-170.667h512v-136.533z" />
<glyph unicode="&#xe9b9;" glyph-name="file2-89" d="M897.422 160.711c-61.156 27.022-153.6 98.133-290.133 122.311 34.133 36.978 61.156 95.289 88.178 164.978 15.644 39.822 12.8 73.956 12.8 122.311 0 35.556 7.111 93.867-2.844 125.156-29.867 106.667-105.244 136.533-194.844 136.533-88.178 0-164.978-29.867-194.844-136.533-8.533-31.289-1.422-88.178-1.422-125.156 0-48.356-2.844-82.489 12.8-122.311 27.022-69.689 52.622-128 88.178-164.978-135.111-24.178-226.133-95.289-287.289-122.311-126.578-56.889-128-119.467-128-119.467v-105.244h1024v105.244c2.844 0 1.422 62.578-126.578 119.467z" />
<glyph unicode="&#xe9ba;" glyph-name="file2-90" d="M243.2 210.489v-73.956h-237.511v54.044c0 0 0 31.289 65.422 61.156 31.289 14.222 78.222 49.778 147.911 62.578-18.489 18.489-31.289 48.356-45.511 85.333-8.533 19.911-7.111 38.4-7.111 62.578 0 18.489-2.844 48.356 1.422 64 15.644 55.467 54.044 69.689 99.556 69.689s85.333-15.644 99.556-69.689c4.267-15.644 1.422-45.511 1.422-64 0-25.6 1.422-42.667-7.111-62.578-11.378-29.867-22.756-55.467-36.978-73.956-73.956-46.933-81.067-98.133-81.067-115.2v0 0zM932.978 295.822c-44.089 19.911-108.089 69.689-204.8 86.756 24.178 27.022 42.667 66.844 62.578 116.622 11.378 28.444 8.533 52.622 8.533 86.756 0 25.6 4.267 65.422-1.422 88.178-21.333 75.378-75.378 96.711-137.956 96.711s-116.622-21.333-137.956-96.711c-5.689-22.756-1.422-62.578-1.422-88.178 0-34.133-1.422-58.311 9.956-86.756 19.911-48.356 36.978-89.6 62.578-116.622-95.289-17.067-159.289-66.844-203.378-86.756-89.6-39.822-91.022-83.911-91.022-83.911v-73.956h725.333v73.956c0-1.422 0 42.667-91.022 83.911z" />
<glyph unicode="&#xe9bb;" glyph-name="file2-91" d="M795.022 513.422v167.822c0 153.6-125.156 278.756-278.756 278.756-1.422 0-2.844 0-5.689 0-1.422 0-2.844 0-5.689 0-153.6 0-278.756-125.156-278.756-278.756v-167.822h-98.133v-577.422h768v577.422h-100.978zM365.511 681.244c0 76.8 62.578 139.378 139.378 139.378 2.844 0 7.111 0 7.111 0s2.844 0 2.844 0c76.8 0 139.378-62.578 139.378-139.378v-167.822h-288.711v167.822z" />
<glyph unicode="&#xe9bc;" glyph-name="file2-92" d="M795.022 513.422v167.822c0 153.6-125.156 278.756-278.756 278.756-1.422 0-2.844 0-5.689 0-1.422 0-2.844 0-5.689 0-153.6 0-277.333-125.156-277.333-278.756v-14.222h139.378v14.222c0 76.8 62.578 139.378 139.378 139.378 2.844 0 7.111 0 7.111 0s2.844 0 2.844 0c76.8 0 139.378-62.578 139.378-139.378v-167.822h-527.644v-577.422h768v577.422h-100.978z" />
<glyph unicode="&#xe9bd;" glyph-name="file2-93" d="M940.089 686.933l-38.4 56.889c-7.111 9.956-22.756 18.489-34.133 18.489h-89.6v78.222c0 12.8-7.111 28.444-15.644 36.978l-65.422 65.422c-8.533 8.533-25.6 15.644-36.978 15.644h-270.222c-12.8 0-28.444-7.111-36.978-15.644l-61.156-61.156c-8.533-8.533-15.644-25.6-15.644-36.978v-82.489h-93.867c-12.8 0-27.022-8.533-34.133-18.489l-38.4-56.889c-7.111-9.956-2.844-18.489 9.956-18.489h65.422l56.889-711.111c0-11.378 9.956-21.333 21.333-21.333h529.067c12.8 0 21.333 9.956 21.333 21.333l56.889 711.111h59.733c12.8 0 17.067 8.533 9.956 18.489zM366.933 766.578v39.822c0 11.378 7.111 28.444 15.644 36.978l7.111 7.111c8.533 9.956 25.6 17.067 36.978 17.067h194.844c12.8 0 28.444-7.111 36.978-15.644l11.378-11.378c8.533-8.533 15.644-25.6 15.644-36.978v-35.556c0-1.422 0-2.844 0-4.267h-318.578c0 0 0 1.422 0 2.844zM779.378 647.111l-56.889-597.333c0-11.378-9.956-21.333-21.333-21.333h-347.022c-12.8 0-21.333 9.956-21.333 21.333l-56.889 597.333c0 11.378 9.956 21.333 21.333 21.333h462.222c11.378-1.422 19.911-9.956 19.911-21.333zM405.333 109.511v475.022c0 11.378 9.956 21.333 21.333 21.333h27.022c12.8 0 21.333-9.956 21.333-21.333v-475.022c0-11.378-9.956-21.333-21.333-21.333h-27.022c-11.378 0-21.333 8.533-21.333 21.333zM585.956 109.511v475.022c0 11.378 9.956 21.333 21.333 21.333h27.022c12.8 0 21.333-9.956 21.333-21.333v-475.022c0-11.378-9.956-21.333-21.333-21.333h-27.022c-11.378 0-21.333 8.533-21.333 21.333z" />
<glyph unicode="&#xe9be;" glyph-name="file2-94" d="M927.289 686.933l-38.4 56.889c-7.111 9.956-22.756 18.489-34.133 18.489h-89.6v78.222c0 12.8-7.111 28.444-15.644 36.978l-65.422 65.422c-8.533 8.533-25.6 15.644-36.978 15.644h-270.222c-12.8 0-28.444-7.111-36.978-15.644l-61.156-61.156c-8.533-7.111-15.644-24.178-15.644-36.978v-82.489h-93.867c-12.8 0-27.022-8.533-34.133-18.489l-38.4-56.889c-7.111-9.956-2.844-18.489 9.956-18.489h65.422l56.889-711.111c0-11.378 9.956-21.333 21.333-21.333h529.067c12.8 0 21.333 9.956 21.333 21.333l56.889 711.111h59.733c12.8 0 17.067 8.533 9.956 18.489zM462.222 109.511c0-11.378-9.956-21.333-21.333-21.333h-27.022c-12.8 0-21.333 9.956-21.333 21.333v475.022c0 11.378 9.956 21.333 21.333 21.333h27.022c12.8 0 21.333-9.956 21.333-21.333v-475.022zM644.267 109.511c0-11.378-9.956-21.333-21.333-21.333h-27.022c-12.8 0-21.333 9.956-21.333 21.333v475.022c0 11.378 9.956 21.333 21.333 21.333h27.022c12.8 0 21.333-9.956 21.333-21.333v-475.022zM674.133 766.578c0-1.422 0-2.844 0-4.267h-320c0 1.422 0 2.844 0 4.267v39.822c0 11.378 7.111 28.444 15.644 36.978l7.111 7.111c8.533 8.533 25.6 15.644 36.978 15.644h194.844c12.8 0 28.444-7.111 36.978-15.644l11.378-11.378c8.533-8.533 15.644-25.6 15.644-36.978v-35.556z" />
<glyph unicode="&#xe9bf;" glyph-name="file2-95" d="M392.533 46.933c0-62.838-50.94-113.778-113.778-113.778s-113.778 50.94-113.778 113.778c0 62.838 50.94 113.778 113.778 113.778s113.778-50.94 113.778-113.778zM961.422 46.933c0-62.838-50.94-113.778-113.778-113.778s-113.778 50.94-113.778 113.778c0 62.838 50.94 113.778 113.778 113.778s113.778-50.94 113.778-113.778zM366.933 315.733l630.044 180.622c11.378 2.844 21.333 17.067 21.333 28.444v312.889h-802.133v96.711c0 12.8-9.956 22.756-22.756 22.756h-176.356c-12.8 0-22.756-11.378-22.756-22.756v-91.022h110.933l112.356-514.844 11.378-54.044v-85.333c0-12.8 9.956-22.756 22.756-22.756h743.822c12.8 0 22.756 9.956 22.756 22.756v85.333h-640c-65.422 0-66.844 25.6-11.378 41.244z" />
<glyph unicode="&#xe9c0;" glyph-name="file2-96" d="M544.711 140.8c0-46.933-36.978-83.911-83.911-83.911s-83.911 36.978-83.911 83.911c0 46.933 36.978 83.911 83.911 83.911s83.911-36.978 83.911-83.911zM776.533 224.711c-46.933 0-83.911-36.978-83.911-83.911s36.978-83.911 83.911-83.911c46.933 0 83.911 36.978 83.911 83.911s-36.978 83.911-83.911 83.911zM989.867 711.111c18.489-5.689 29.867-21.333 29.867-39.822 0-4.267 0-8.533-1.422-11.378l-108.089-358.4c-5.689-17.067-21.333-29.867-39.822-29.867h-509.156c-18.489 0-35.556 12.8-39.822 31.289l-98.133 398.222h-182.044c-22.756 0-41.244 18.489-41.244 41.244s18.489 41.244 41.244 41.244h214.756c18.489 0 35.556-12.8 39.822-31.289l21.333-89.6h614.4l5.689 18.489c5.689 18.489 21.333 29.867 39.822 29.867 4.267 1.422 8.533 1.422 12.8 0zM907.378 581.689h-568.889l55.467-226.133h445.156l2.844 8.533 65.422 217.6z" />
<glyph unicode="&#xe9c1;" glyph-name="file2-97" d="M1021.156 712.533l-244.622 244.622-658.489-658.489-118.044-362.667 362.667 118.044 658.489 658.489zM88.178 24.178l79.644 244.622 164.978-164.978-244.622-79.644z" />
<glyph unicode="&#xe9c2;" glyph-name="file2-98" d="M776.533 595.911c-7.111 19.911 203.378 207.644 81.067 361.244-28.444 35.556-126.578-170.667-264.533-264.533-76.8-51.2-254.578-160.711-254.578-221.867v-392.533c0-72.533 281.6-150.756 496.356-150.756 78.222 0 192 492.089 192 570.311 0 79.644-243.2 78.222-250.311 98.133zM0 568.889h251.733v-576h-251.733v576z" />
<glyph unicode="&#xe9c3;" glyph-name="file2-99" d="M248.889 292.978c7.111-19.911-203.378-207.644-79.644-361.244 28.444-35.556 126.578 170.667 264.533 264.533 76.8 51.2 254.578 160.711 254.578 221.867v392.533c0 72.533-281.6 149.333-496.356 149.333-78.222 0-192-490.667-192-568.889s241.778-76.8 248.889-98.133zM1026.844 321.422h-253.156v576h251.733v-576z" />
<glyph unicode="&#xe9c4;" glyph-name="file2-100" d="M529.067 659.911c0-161.807-118.436-292.978-264.533-292.978s-264.533 131.171-264.533 292.978c0 161.807 118.436 292.978 264.533 292.978s264.533-131.171 264.533-292.978zM1025.422 659.911c0-161.807-118.436-292.978-264.533-292.978s-264.533 131.171-264.533 292.978c0 161.807 118.436 292.978 264.533 292.978s264.533-131.171 264.533-292.978zM15.644 560.356c38.4-128 128-366.933 494.933-631.467l35.556 661.333-213.333 35.556-317.156-65.422zM1009.778 560.356c-38.4-128-132.267-366.933-499.2-631.467l-35.556 661.333 213.333 35.556 321.422-65.422z" />
<glyph unicode="&#xe9c5;" glyph-name="file3-01" d="M760.889 887.467c106.667 0 193.422-99.556 193.422-221.867 0-25.6-4.267-52.622-12.8-76.8-1.422-2.844-1.422-5.689-2.844-9.956-41.244-133.689-130.844-331.378-428.089-556.089-325.689 247.467-398.222 466.489-425.244 556.089 0 2.844-1.422 5.689-1.422 8.533-8.533 25.6-12.8 51.2-12.8 76.8 0 122.311 86.756 221.867 193.422 221.867 79.644 0 152.178-58.311 180.622-145.067 9.956-29.867 36.978-49.778 68.267-49.778s58.311 19.911 68.267 49.778c27.022 88.178 99.556 146.489 179.2 146.489zM760.889 958.578c-113.778 0-211.911-81.067-248.889-193.422-35.556 112.356-133.689 193.422-247.467 193.422-146.489 0-264.533-132.267-264.533-294.4 0-35.556 5.689-68.267 15.644-99.556v0c38.4-128 128-366.933 494.933-631.467 366.933 264.533 460.8 503.467 499.2 631.467v0c9.956 31.289 15.644 64 15.644 99.556 0 162.133-118.044 294.4-264.533 294.4v0z" />
<glyph unicode="&#xe9c6;" glyph-name="file3-02" d="M940.089 785.067c-99.556 91.022-261.689 91.022-361.244 0l-66.844-61.156-68.267 62.578c-99.556 91.022-261.689 91.022-361.244 0-112.356-102.4-112.356-270.222 0-372.622l429.511-393.956 428.089 393.956c112.356 102.4 112.356 268.8 0 371.2z" />
<glyph unicode="&#xe9c7;" glyph-name="file3-03" d="M940.089 785.067c-99.556 91.022-261.689 91.022-361.244 0l-66.844-61.156-68.267 62.578c-99.556 91.022-261.689 91.022-361.244 0-112.356-102.4-112.356-270.222 0-372.622l429.511-393.956 428.089 393.956c112.356 102.4 112.356 268.8 0 371.2zM876.089 473.6l-364.089-339.911-365.511 341.333c-36.978 34.133-51.2 78.222-51.2 125.156s8.533 85.333 45.511 119.467c32.711 29.867 76.8 46.933 122.311 46.933 46.933 0 91.022-28.444 123.733-58.311l125.156-109.511 125.156 109.511c32.711 29.867 76.8 58.311 123.733 58.311s91.022-17.067 123.733-46.933c36.978-34.133 45.511-72.533 45.511-119.467-2.844-48.356-17.067-92.444-54.044-126.578z" />
<glyph unicode="&#xe9c8;" glyph-name="file3-04" d="M708.267 339.911l324.267 213.333h-399.644l-113.778 406.756-112.356-406.756h-399.644l324.267-214.756-122.311-402.489 311.467 265.956 325.689-265.956z" />
<glyph unicode="&#xe9c9;" glyph-name="file3-05" d="M1011.2 573.156c-9.956 11.378-19.911 15.644-28.444 18.489s-17.067 2.844-25.6 2.844h-287.289c-2.844 0-8.533 1.422-14.222 5.689s-8.533 9.956-8.533 11.378l-83.911 298.667c-2.844 9.956-5.689 18.489-11.378 27.022s-18.489 22.756-41.244 22.756c-22.756 0-35.556-14.222-41.244-22.756-5.689-9.956-9.956-18.489-11.378-27.022l-83.911-298.667c0-2.844-4.267-8.533-8.533-11.378-5.689-4.267-11.378-5.689-14.222-5.689h-287.289c-11.378 0-21.333-1.422-34.133-5.689-5.689-2.844-12.8-7.111-19.911-14.222s-11.378-19.911-11.378-29.867c0-17.067 7.111-27.022 12.8-34.133s12.8-12.8 19.911-17.067l231.822-152.178c4.267-1.422 11.378-14.222 11.378-22.756 0-1.422 0-4.267 0-5.689l-89.6-294.4c-2.844-8.533-4.267-17.067-4.267-27.022 0-8.533 1.422-19.911 9.956-31.289 8.533-12.8 27.022-21.333 38.4-19.911 24.178 1.422 34.133 9.956 45.511 19.911l226.133 189.156c1.422 1.422 7.111 4.267 11.378 4.267 5.689 0 9.956-1.422 11.378-2.844l238.933-194.844c11.378-8.533 21.333-17.067 44.089-18.489 0 0 1.422 0 1.422 0 11.378 0 28.444 7.111 36.978 19.911s9.956 22.756 9.956 31.289c0 11.378-2.844 19.911-5.689 28.444l-100.978 297.244c0 1.422-1.422 2.844-1.422 5.689 0 8.533 5.689 19.911 9.956 21.333l231.822 149.333c7.111 4.267 14.222 9.956 19.911 17.067s12.8 17.067 12.8 34.133c0 11.378-4.267 22.756-9.956 31.289z" />
<glyph unicode="&#xe9ca;" glyph-name="file3-06" d="M216.178 334.222c0 68.267 0 137.956 0 206.222 0 31.289 1.422 61.156 11.378 91.022 18.489 54.044 55.467 88.178 109.511 102.4 14.222 4.267 29.867 5.689 44.089 7.111 75.378 4.267 149.333 1.422 224.711 1.422 28.444 0 56.889-1.422 85.333-9.956 58.311-18.489 93.867-56.889 106.667-116.622 2.844-12.8 4.267-25.6 5.689-38.4 4.267-64 1.422-128 2.844-192 0-11.378 0-24.178 0-35.556-1.422-28.444-1.422-56.889-9.956-85.333-18.489-59.733-59.733-95.289-120.889-108.089-17.067-4.267-34.133-5.689-52.622-5.689-69.689 0-139.378-1.422-207.644-1.422-31.289 0-64 1.422-93.867 12.8-51.2 18.489-82.489 55.467-96.711 108.089-4.267 14.222-4.267 29.867-7.111 44.089 0 8.533 0 14.222-1.422 19.911 1.422 0 0 0 0 0zM267.378 352.711c1.422 0 1.422 0 0 0 1.422-7.111 1.422-15.644 2.844-22.756 1.422-12.8 1.422-27.022 4.267-39.822 5.689-28.444 21.333-51.2 46.933-66.844 18.489-11.378 39.822-15.644 61.156-17.067 22.756-1.422 45.511-2.844 68.267-2.844 59.733 0 119.467 1.422 180.622 2.844 12.8 0 25.6 1.422 38.4 4.267 25.6 5.689 46.933 18.489 62.578 39.822 14.222 19.911 19.911 44.089 21.333 68.267 1.422 17.067 2.844 35.556 2.844 52.622 0 64 1.422 129.422-2.844 193.422-1.422 12.8-1.422 25.6-4.267 38.4-8.533 36.978-29.867 62.578-65.422 76.8-19.911 7.111-42.667 8.533-64 9.956-14.222 1.422-27.022 1.422-41.244 1.422-61.156 0-122.311 1.422-183.467-2.844-12.8-1.422-27.022-1.422-39.822-4.267-28.444-5.689-51.2-19.911-66.844-45.511-12.8-19.911-15.644-41.244-18.489-62.578-1.422-19.911-1.422-38.4-2.844-58.311 0-54.044 0-109.511 0-164.978zM512 295.822c-83.911 1.422-152.178 66.844-150.756 153.6 0 82.489 66.844 150.756 153.6 150.756 82.489 0 150.756-66.844 149.333-153.6-1.422-83.911-66.844-149.333-152.178-150.756zM611.556 446.578c1.422 55.467-44.089 96.711-92.444 99.556-62.578 2.844-102.4-45.511-105.244-92.444-2.844-62.578 46.933-103.822 93.867-105.244 59.733-2.844 105.244 46.933 103.822 98.133zM674.133 640c-21.333 0-38.4-12.8-38.4-29.867 0-21.333 12.8-38.4 29.867-38.4 24.178 0 38.4 12.8 38.4 34.133 1.422 18.489-15.644 34.133-29.867 34.133z" />
<glyph unicode="&#xe9cb;" glyph-name="file3-07" d="M870.4 671.289c-27.022-11.378-55.467-19.911-83.911-22.756 29.867 18.489 54.044 46.933 65.422 81.067-28.444-17.067-59.733-28.444-93.867-35.556-27.022 28.444-65.422 46.933-108.089 46.933-81.067 0-147.911-65.422-147.911-147.911 0-11.378 1.422-22.756 4.267-34.133-122.311 5.689-230.4 65.422-302.933 153.6-12.8-21.333-19.911-46.933-19.911-73.956 0-51.2 25.6-96.711 65.422-122.311-24.178 1.422-46.933 7.111-66.844 18.489 0 0 0-1.422 0-1.422 0-71.111 51.2-130.844 118.044-145.067-12.8-2.844-25.6-5.689-38.4-5.689-9.956 0-18.489 1.422-27.022 2.844 18.489-58.311 72.533-100.978 137.956-102.4-49.778-39.822-113.778-62.578-183.467-62.578-11.378 0-24.178 0-35.556 1.422 65.422-41.244 142.222-66.844 226.133-66.844 270.222 0 419.556 224.711 419.556 419.556 0 5.689 0 12.8 0 18.489 27.022 22.756 52.622 48.356 71.111 78.222z" />
<glyph unicode="&#xe9cc;" glyph-name="file3-08" d="M702.578 681.244h-113.778c-12.8 0-28.444-17.067-28.444-41.244v-82.489h142.222v-116.622h-142.222v-351.289h-133.689v351.289h-122.311v116.622h122.311v68.267c0 98.133 68.267 179.2 162.133 179.2h113.778v-123.733z" />
<glyph unicode="&#xe9cd;" glyph-name="file3-09_1" d="M1.422 465.067c-11.378-136.533 79.644-271.644 206.222-320s288.711-15.644 369.778 98.133c54.044 72.533 65.422 164.978 58.311 251.733-103.822 1.422-207.644 0-311.467 0 0-36.978 0-73.956 0-110.933 62.578-1.422 123.733-1.422 186.311-1.422-27.022-137.956-214.756-182.044-312.889-92.444-102.4 78.222-96.711 251.733 8.533 324.267 73.956 58.311 179.2 44.089 253.156-7.111 28.444 27.022 56.889 55.467 82.489 85.333-61.156 49.778-136.533 83.911-217.6 79.644-166.4 7.111-320-139.378-322.844-307.2zM837.689 588.8c0-31.289 0-61.156-1.422-92.444-31.289 0-62.578 0-92.444 0 0-31.289 0-61.156 0-92.444 31.289 0 62.578 0 92.444-1.422 0-31.289 0-61.156 0-92.444 31.289 0 61.156 0 92.444 0 0 31.289 0 61.156 0 92.444 31.289 0 62.578 0 92.444 1.422 0 31.289 0 61.156 0 92.444-31.289 0-62.578 0-92.444 0 0 31.289 0 62.578 0 92.444-28.444 0-59.733 0-91.022 0z" />
<glyph unicode="&#xe9ce;" glyph-name="file3-09_2" d="M193.422 463.644c-11.378-136.533 79.644-271.644 206.222-320s288.711-15.644 369.778 98.133c54.044 72.533 65.422 164.978 58.311 251.733-103.822 1.422-207.644 0-311.467 0 0-36.978 0-73.956 0-110.933 62.578-1.422 123.733-1.422 186.311-1.422-27.022-137.956-214.756-182.044-312.889-92.444-102.4 78.222-96.711 251.733 8.533 324.267 73.956 58.311 179.2 44.089 253.156-7.111 28.444 27.022 56.889 55.467 82.489 85.333-61.156 49.778-136.533 83.911-217.6 79.644-164.978 7.111-320-139.378-322.844-307.2z" />
<glyph unicode="&#xe9cf;" glyph-name="file3-10" d="M519.111 564.622c-73.956 4.267-120.889-54.044-123.733-109.511-4.267-73.956 54.044-122.311 109.511-125.156 72.533-4.267 125.156 55.467 123.733 116.622 1.422 65.422-51.2 115.2-109.511 118.044zM790.756 632.889c-9.956 44.089-34.133 73.956-78.222 89.6-24.178 8.533-49.778 9.956-75.378 11.378-15.644 1.422-32.711 1.422-48.356 1.422-72.533 0-145.067 1.422-216.178-2.844-15.644-1.422-31.289-2.844-46.933-5.689-34.133-7.111-59.733-24.178-78.222-54.044-14.222-22.756-19.911-48.356-21.333-73.956-1.422-22.756-2.844-45.511-2.844-68.267 0-65.422 0-129.422 0-194.844 0 0 0 0 0 0 0-8.533 1.422-18.489 1.422-27.022 1.422-15.644 2.844-31.289 5.689-45.511 7.111-34.133 24.178-61.156 54.044-79.644 22.756-14.222 46.933-18.489 72.533-19.911 27.022-1.422 52.622-2.844 79.644-2.844 71.111 0 142.222 1.422 211.911 2.844 15.644 0 31.289 1.422 45.511 5.689 29.867 5.689 55.467 21.333 73.956 46.933 17.067 24.178 22.756 52.622 25.6 81.067 1.422 21.333 2.844 41.244 2.844 62.578 0 76.8 2.844 152.178-2.844 228.978 2.844 14.222 1.422 28.444-2.844 44.089zM512 268.8c-99.556 1.422-179.2 79.644-177.778 180.622 0 98.133 78.222 177.778 179.2 176.356 98.133 0 179.2-78.222 177.778-182.044-1.422-95.289-79.644-173.511-179.2-174.933zM692.622 593.067c-19.911 0-36.978 19.911-35.556 45.511 0 21.333 19.911 36.978 45.511 35.556 17.067 0 36.978-18.489 35.556-41.244 0-25.6-17.067-39.822-45.511-39.822zM896 960h-768c-69.689 0-128-58.311-128-128v-768c0-71.111 58.311-128 128-128h768c71.111 0 128 56.889 128 128v768c0 69.689-56.889 128-128 128zM860.444 334.222c-1.422-34.133-1.422-66.844-12.8-99.556-22.756-69.689-71.111-112.356-142.222-126.578-19.911-4.267-41.244-5.689-61.156-5.689-81.067 0-163.556-1.422-244.622-1.422-36.978 0-73.956 2.844-109.511 15.644-59.733 22.756-98.133 65.422-113.778 126.578-4.267 17.067-5.689 35.556-8.533 52.622-1.422 5.689-1.422 12.8-1.422 18.489 0 0 0 0-1.422 0 0 81.067 0 162.133 0 243.2 0 36.978 1.422 72.533 14.222 108.089 21.333 62.578 65.422 103.822 129.422 119.467 17.067 4.267 35.556 7.111 52.622 8.533 88.178 5.689 176.356 2.844 264.533 2.844 34.133 0 66.844-1.422 99.556-12.8 68.267-21.333 110.933-66.844 126.578-136.533 2.844-14.222 5.689-29.867 5.689-44.089 5.689-75.378 1.422-150.756 2.844-226.133 0-14.222 0-28.444 0-42.667z" />
<glyph unicode="&#xe9d0;" glyph-name="file3-11" d="M897.422 960h-768c-69.689 0-128-58.311-128-128v-768c0-71.111 58.311-128 128-128h768c71.111 0 128 56.889 128 128v768c0 69.689-58.311 128-128 128zM799.289 587.378c0-5.689 0-11.378 0-18.489 0-184.889-140.8-396.8-396.8-396.8-78.222 0-152.178 22.756-213.333 62.578 11.378-1.422 21.333-1.422 32.711-1.422 65.422 0 125.156 22.756 173.511 59.733-61.156 1.422-112.356 41.244-130.844 96.711 8.533-1.422 17.067-2.844 25.6-2.844 12.8 0 25.6 1.422 36.978 4.267-64 12.8-112.356 69.689-112.356 136.533 0 0 0 1.422 0 1.422 18.489-9.956 39.822-17.067 62.578-17.067-36.978 25.6-62.578 68.267-62.578 116.622 0 25.6 7.111 49.778 18.489 69.689 68.267-83.911 172.089-139.378 287.289-145.067-2.844 9.956-4.267 21.333-4.267 31.289 0 76.8 62.578 139.378 139.378 139.378 39.822 0 76.8-17.067 102.4-44.089 31.289 5.689 61.156 18.489 88.178 34.133-9.956-32.711-32.711-59.733-61.156-76.8 28.444 2.844 55.467 11.378 79.644 21.333-15.644-27.022-38.4-52.622-65.422-71.111z" />
<glyph unicode="&#xe9d1;" glyph-name="file3-12" d="M898.844 960h-768c-69.689 0-128-58.311-128-128v-768c0-71.111 58.311-128 128-128h388.267v366.933h-122.311v160.711h122.311v79.644c0 123.733 91.022 220.444 207.644 220.444h112.356v-180.622h-100.978c-27.022 0-34.133-15.644-34.133-35.556v-83.911h135.111v-159.289h-135.111v-368.356h194.844c71.111 0 128 56.889 128 128v768c0 69.689-58.311 128-128 128z" />
<glyph unicode="&#xe9d2;" glyph-name="file3-13_1" d="M896 960h-768c-69.689 0-128-58.311-128-128v-768c0-71.111 58.311-128 128-128h768c71.111 0 128 56.889 128 128v768c0 69.689-56.889 128-128 128zM558.933 298.667c-58.311-82.489-176.356-106.667-268.8-71.111s-157.867 132.267-149.333 231.822c1.422 122.311 113.778 228.978 236.089 224.711 58.311 2.844 113.778-22.756 157.867-58.311-18.489-21.333-38.4-42.667-59.733-62.578-54.044 36.978-130.844 48.356-183.467 4.267-78.222-52.622-81.067-177.778-7.111-234.667 72.533-65.422 207.644-32.711 227.556 66.844-45.511 0-89.6 0-135.111 1.422 0 27.022 0 54.044 0 81.067 75.378 0 150.756 0 226.133 0 4.267-64-4.267-130.844-44.089-183.467zM884.622 413.867c-22.756 0-45.511 0-66.844 0 0-22.756 0-45.511 0-66.844-22.756 0-45.511 0-66.844 0 0 22.756 0 45.511 0 66.844-22.756 0-45.511 0-66.844 0 0 22.756 0 44.089 0 66.844 22.756 0 45.511 0 66.844 0 0 22.756 0 45.511 0 66.844 22.756 0 44.089 0 66.844 0 0-22.756 0-45.511 0-66.844 22.756 0 45.511 0 66.844 0 0-21.333 0-44.089 0-66.844z" />
<glyph unicode="&#xe9d3;" glyph-name="file3-13_2" d="M896 960h-768c-69.689 0-128-58.311-128-128v-768c0-71.111 58.311-128 128-128h768c71.111 0 128 56.889 128 128v768c0 69.689-56.889 128-128 128zM745.244 263.111c-72.533-102.4-219.022-132.267-332.8-88.178s-194.844 164.978-186.311 287.289c2.844 150.756 140.8 283.022 291.556 277.333 72.533 2.844 140.8-28.444 194.844-72.533-24.178-27.022-48.356-52.622-73.956-76.8-66.844 45.511-160.711 59.733-227.556 5.689-95.289-65.422-99.556-221.867-8.533-291.556 89.6-81.067 257.422-41.244 281.6 82.489-55.467 1.422-112.356 0-167.822 1.422 0 32.711 0 66.844 0 99.556 93.867 0 186.311 0 280.178 0 7.111-76.8-4.267-159.289-51.2-224.711z" />
<glyph unicode="&#xe9d4;" glyph-name="file3-13_3" d="M1011.2 651.378c0 0-9.956 69.689-39.822 100.978-38.4 39.822-82.489 41.244-102.4 42.667-142.222 9.956-355.556 9.956-355.556 9.956v0c0 0-213.333 0-355.556-9.956-19.911-2.844-62.578-2.844-102.4-42.667-29.867-31.289-39.822-100.978-39.822-100.978s-9.956-82.489-9.956-164.978v-76.8c0-82.489 9.956-164.978 9.956-164.978s9.956-69.689 39.822-100.978c38.4-39.822 89.6-39.822 112.356-44.089 81.067-7.111 345.6-9.956 345.6-9.956s213.333 0 355.556 9.956c19.911 2.844 62.578 2.844 102.4 42.667 29.867 31.289 39.822 100.978 39.822 100.978s9.956 82.489 9.956 164.978v76.8c0 83.911-9.956 166.4-9.956 166.4zM408.178 317.156v285.867l274.489-145.067-274.489-140.8z" />
<glyph unicode="&#xe9d5;" glyph-name="file3-13_4" d="M896 960h-768c-69.689 0-128-58.311-128-128v-768c0-71.111 58.311-128 128-128h768c71.111 0 128 56.889 128 128v768c0 69.689-56.889 128-128 128zM890.311 419.556c0-61.156-7.111-122.311-7.111-122.311s-7.111-52.622-29.867-75.378c-28.444-29.867-61.156-29.867-75.378-32.711-106.667-7.111-265.956-7.111-265.956-7.111s-196.267 1.422-257.422 7.111c-17.067 2.844-54.044 2.844-83.911 32.711-22.756 22.756-29.867 75.378-29.867 75.378s-7.111 61.156-7.111 122.311v56.889c0 61.156 7.111 122.311 7.111 122.311s7.111 52.622 29.867 75.378c28.444 29.867 61.156 29.867 75.378 32.711 105.244 7.111 264.533 7.111 264.533 7.111v0c0 0 159.289 0 264.533-7.111 14.222-1.422 46.933-1.422 75.378-32.711 22.756-22.756 29.867-75.378 29.867-75.378s7.111-61.156 7.111-122.311v-56.889zM433.778 349.867l204.8 105.244-204.8 106.667v-211.911z" />
</font>
</defs>
</svg>
