<?xml version="1.0" encoding="utf-8"?>
<!-- Generator: Adobe Illustrator 18.1.1, SVG Export Plug-In . SVG Version: 6.00 Build 0)  -->
<svg version="1.1" id="レイヤー_1" xmlns="http://www.w3.org/2000/svg" xmlns:xlink="http://www.w3.org/1999/xlink" x="0px"
	 y="0px" viewBox="0 0 72 72" enable-background="new 0 0 72 72" xml:space="preserve">
<path d="M66.5,53.8c-6-3.2-8.5,0.7-11.7,0.7V38.7l4.9-11.4c0.7-1.8,0-3.4-1.8-4.1l-3-1.2v-9.8h-5.8V6.9h-8.1V0h-5h-5v6.9H23v5.2
	h-5.8V22l-3,1.2c-1.8,0.8-2.5,2.4-1.8,4.1l4.9,11.4v15.8c-3.2,0-5.9-3.9-11.7-0.6h0c0,0-1.7,0.9-4.2,1v6.8c2-0.1,2.9-0.5,4.4-1.3
	c1.6-0.9,4.5-1.7,7.9,0c3.4,1.8,6.4,1.8,9.3,0.2c2.9-1.5,5.5-1.6,8.2-0.2c3.4,1.8,6.1,1.8,9.6,0c2.8-1.4,5.3-1.3,8.2,0.2
	c2.9,1.5,5.8,1.5,9.3-0.2c3.4-1.8,6.3-0.9,7.9,0c1.4,0.8,2.4,1.2,4.4,1.3v-6.8C68.1,54.7,66.5,53.8,66.5,53.8z M50.7,20.1l-14.6-6
	l-14.6,6v-4h5.8v-5.1h8.8h8.8v5.1h5.8V20.1z M31.2,70.7c-3.5-1.5-5.2-1.3-8.1,0.3c-2.9,1.5-5.8,1.5-9.3-0.2C10.4,69,7.5,70,5.9,70.9
	c-1.2,0.7-2.6,1.1-4.5,1.1v-7c2.9,0,4.2-1,4.2-1c3-1.9,5.8-1.5,9.6,0.5c2.2,1.1,5.7,0.8,8.1-0.4c3.4-1.8,5.2-1.3,8.7,0.2
	c2.7,1.2,5.2,1.2,7.9,0c3.5-1.6,5.4-2,8.8-0.2c2.4,1.3,5.9,1.6,8.1,0.4c3.8-2,6.6-2.4,9.6-0.5c0,0,1.3,1,4.2,1v7
	c-1.9,0-3.2-0.3-4.5-1.1c-1.6-0.9-4.4-1.9-7.8-0.2C54.9,72.5,52,72.5,49,71c-2.9-1.5-4.6-1.7-8.1-0.2C38,72.3,34.6,72.5,31.2,70.7z"
	/>
</svg>
