<?xml version="1.0" encoding="utf-8"?>
<!-- Generator: Adobe Illustrator 18.1.1, SVG Export Plug-In . SVG Version: 6.00 Build 0)  -->
<svg version="1.1" id="レイヤー_1" xmlns="http://www.w3.org/2000/svg" xmlns:xlink="http://www.w3.org/1999/xlink" x="0px"
	 y="0px" viewBox="0 0 72 72" enable-background="new 0 0 72 72" xml:space="preserve">
<path d="M37.2,0c-12.7,0-23,10.3-23,23c0,0.4,0,0.9,0,1.3c0.9,17.9,18.6,43.8,23,47.7c4.4-3.9,22.1-29.8,23-47.7c0-0.4,0-0.9,0-1.3
	C60.2,10.3,49.9,0,37.2,0z M37.2,29.9c-3.8,0-6.9-3.1-6.9-6.9c0-3.8,3.1-6.9,6.9-6.9c3.8,0,6.9,3.1,6.9,6.9
	C44.1,26.8,41,29.9,37.2,29.9z"/>
</svg>
