<?xml version="1.0" encoding="utf-8"?>
<!-- Generator: Adobe Illustrator 18.1.1, SVG Export Plug-In . SVG Version: 6.00 Build 0)  -->
<svg version="1.1" id="レイヤー_1" xmlns="http://www.w3.org/2000/svg" xmlns:xlink="http://www.w3.org/1999/xlink" x="0px"
	 y="0px" viewBox="0 0 72 72" enable-background="new 0 0 72 72" xml:space="preserve">
<path d="M70.8,21.1l-6.6-6.6c-1.8,1.8-4.8,1.8-6.6,0s-1.8-4.8,0-6.6l-6.6-6.6c-1.5-1.5-4-1.5-5.5,0l-9.9,9.9l2.7,2.7l-2.9,2.9
	l-2.7-2.7l-31,31c-1.5,1.5-1.5,4,0,5.5l6.6,6.6c1.8-1.8,4.8-1.8,6.6,0s1.8,4.8,0,6.6l6.6,6.6c1.5,1.5,4,1.5,5.5,0l31-31l-2.7-2.7
	l2.9-2.9l2.7,2.7l9.9-9.9C72.3,25.1,72.3,22.6,70.8,21.1z M43.8,25.3L38.5,20l2.9-2.9l5.3,5.3L43.8,25.3z M52.2,33.7l-5.3-5.3
	l2.9-2.9l5.3,5.3L52.2,33.7z"/>
</svg>
