<?xml version="1.0" encoding="utf-8"?>
<!-- Generator: Adobe Illustrator 18.1.1, SVG Export Plug-In . SVG Version: 6.00 Build 0)  -->
<svg version="1.1" id="レイヤー_1" xmlns="http://www.w3.org/2000/svg" xmlns:xlink="http://www.w3.org/1999/xlink" x="0px"
	 y="0px" viewBox="0 0 72 72" enable-background="new 0 0 72 72" xml:space="preserve">
<path d="M60.4,10V4c0-2.2-1.8-4-4-4h-3.2c-2.2,0-4,1.8-4,4v6h-7.4V4c0-2.2-1.8-4-4-4h-3.2c-2.2,0-4,1.8-4,4v6h-7.9V4
	c0-2.2-1.8-4-4-4h-3.2c-2.2,0-4,1.8-4,4v6H0.1v62H72V10H60.4z M65,66H7.1V25.2H65V66z M59.8,40.3v-2.5h-10v-8h-2.5v8H37.2v-8h-2.5v8
	H24.6v-8h-2.5v8h-10v2.5h10v10.6h-10v2.5h10v8h2.5v-8h10.1v8h2.5v-8h10.1v8h2.5v-8h10v-2.5h-10V40.3H59.8z M24.6,50.9V40.3h10.1
	v10.6H24.6z M47.3,50.9H37.2V40.3h10.1V50.9z"/>
</svg>
