<?xml version="1.0" encoding="utf-8"?>
<!-- Generator: Adobe Illustrator 18.1.1, SVG Export Plug-In . SVG Version: 6.00 Build 0)  -->
<svg version="1.1" id="レイヤー_1" xmlns="http://www.w3.org/2000/svg" xmlns:xlink="http://www.w3.org/1999/xlink" x="0px"
	 y="0px" viewBox="0 0 72 72" enable-background="new 0 0 72 72" xml:space="preserve">
<g>
	<path d="M36.5,27.8c-5.2-0.3-8.5,3.8-8.7,7.7c-0.3,5.2,3.8,8.6,7.7,8.8c5.1,0.3,8.8-3.9,8.7-8.2C44.3,31.5,40.6,28,36.5,27.8z"/>
	<path d="M55.6,23c-0.7-3.1-2.4-5.2-5.5-6.3c-1.7-0.6-3.5-0.7-5.3-0.8c-1.1-0.1-2.3-0.1-3.4-0.1c-5.1,0-10.2-0.1-15.2,0.2
		c-1.1,0.1-2.2,0.2-3.3,0.4c-2.4,0.5-4.2,1.7-5.5,3.8c-1,1.6-1.4,3.4-1.5,5.2c-0.1,1.6-0.2,3.2-0.2,4.8c0,4.6,0,9.1,0,13.7
		c0,0,0,0,0,0c0,0.6,0.1,1.3,0.1,1.9c0.1,1.1,0.2,2.2,0.4,3.2c0.5,2.4,1.7,4.3,3.8,5.6c1.6,1,3.3,1.3,5.1,1.4
		c1.9,0.1,3.7,0.2,5.6,0.2c5,0,10-0.1,14.9-0.2c1.1,0,2.2-0.1,3.2-0.4c2.1-0.4,3.9-1.5,5.2-3.3c1.2-1.7,1.6-3.7,1.8-5.7
		c0.1-1.5,0.2-2.9,0.2-4.4c0-5.4,0.2-10.7-0.2-16.1C56,25.1,55.9,24.1,55.6,23z M36,48.6c-7-0.1-12.6-5.6-12.5-12.7
		C23.5,29,29,23.4,36.1,23.5C43,23.5,48.7,29,48.6,36.3C48.5,43,43,48.5,36,48.6z M48.7,25.8c-1.4,0-2.6-1.4-2.5-3.2
		c0-1.5,1.4-2.6,3.2-2.5c1.2,0,2.6,1.3,2.5,2.9C51.9,24.8,50.7,25.8,48.7,25.8z"/>
	<path d="M63,0H9C4.1,0,0,4.1,0,9v54c0,5,4.1,9,9,9h16h11.3h13H63c5,0,9-4,9-9V9C72,4.1,68,0,63,0z M60.5,44c-0.1,2.4-0.1,4.7-0.9,7
		c-1.6,4.9-5,7.9-10,8.9c-1.4,0.3-2.9,0.4-4.3,0.4c-5.7,0-11.5,0.1-17.2,0.1c-2.6,0-5.2-0.2-7.7-1.1c-4.2-1.6-6.9-4.6-8-8.9
		c-0.3-1.2-0.4-2.5-0.6-3.7c-0.1-0.4-0.1-0.9-0.1-1.3c0,0,0,0-0.1,0c0-5.7,0-11.4,0-17.1c0-2.6,0.1-5.1,1-7.6
		c1.5-4.4,4.6-7.3,9.1-8.4c1.2-0.3,2.5-0.5,3.7-0.6c6.2-0.4,12.4-0.2,18.6-0.2c2.4,0,4.7,0.1,7,0.9c4.8,1.5,7.8,4.7,8.9,9.6
		c0.2,1,0.4,2.1,0.4,3.1c0.4,5.3,0.1,10.6,0.2,15.9C60.5,42,60.5,43,60.5,44z"/>
</g>
</svg>
