<?xml version="1.0" encoding="utf-8"?>
<!-- Generator: Adobe Illustrator 19.2.1, SVG Export Plug-In . SVG Version: 6.00 Build 0)  -->
<!DOCTYPE svg PUBLIC "-//W3C//DTD SVG 1.1//EN" "http://www.w3.org/Graphics/SVG/1.1/DTD/svg11.dtd">
<svg version="1.1" id="レイヤー_1" xmlns="http://www.w3.org/2000/svg" xmlns:xlink="http://www.w3.org/1999/xlink" x="0px"
	 y="0px" width="72px" height="72px" viewBox="0 0 72 72" style="enable-background:new 0 0 72 72;" xml:space="preserve">
<path d="M61.2,20.3c-1.9,0.8-3.9,1.4-5.9,1.6c2.1-1.3,3.8-3.3,4.6-5.7c-2,1.2-4.2,2-6.6,2.5c-1.9-2-4.6-3.3-7.6-3.3
	c-5.7,0-10.4,4.6-10.4,10.4c0,0.8,0.1,1.6,0.3,2.4c-8.6-0.4-16.2-4.6-21.3-10.8c-0.9,1.5-1.4,3.3-1.4,5.2c0,3.6,1.8,6.8,4.6,8.6
	c-1.7-0.1-3.3-0.5-4.7-1.3c0,0,0,0.1,0,0.1c0,5,3.6,9.2,8.3,10.2c-0.9,0.2-1.8,0.4-2.7,0.4c-0.7,0-1.3-0.1-1.9-0.2
	c1.3,4.1,5.1,7.1,9.7,7.2c-3.5,2.8-8,4.4-12.9,4.4c-0.8,0-1.7,0-2.5-0.1c4.6,2.9,10,4.7,15.9,4.7c19,0,29.5-15.8,29.5-29.5
	c0-0.4,0-0.9,0-1.3C58.1,24.2,59.9,22.4,61.2,20.3z"/>
</svg>
