<?xml version="1.0" encoding="utf-8"?>
<!-- Generator: Adobe Illustrator 18.1.1, SVG Export Plug-In . SVG Version: 6.00 Build 0)  -->
<svg version="1.1" id="レイヤー_1" xmlns="http://www.w3.org/2000/svg" xmlns:xlink="http://www.w3.org/1999/xlink" x="0px"
	 y="0px" viewBox="0 0 72 72" enable-background="new 0 0 72 72" xml:space="preserve">
<path d="M60.2,10V4c0-2.2-1.8-4-4-4h-3.2c-2.2,0-4,1.8-4,4v6h-7.4V4c0-2.2-1.8-4-4-4h-3.2c-2.2,0-4,1.8-4,4v6h-7.9V4
	c0-2.2-1.8-4-4-4h-3.2c-2.2,0-4,1.8-4,4v6H0v62h71.9V10H60.2z M64.9,66H7V25.2h57.9V66z M51.7,48.9H39.1v12.6h-6.5V48.9H20v-6.5
	h12.6V29.8h6.5v12.6h12.6V48.9z"/>
</svg>
