<?xml version="1.0" encoding="utf-8"?>
<!-- Generator: Adobe Illustrator 18.1.1, SVG Export Plug-In . SVG Version: 6.00 Build 0)  -->
<svg version="1.1" id="レイヤー_1" xmlns="http://www.w3.org/2000/svg" xmlns:xlink="http://www.w3.org/1999/xlink" x="0px"
	 y="0px" viewBox="0 0 72 72" enable-background="new 0 0 72 72" xml:space="preserve">
<path d="M40.6,58.7v9.4L54.2,72H20.2l13.4-3.8v-9.5C22.9,57.2,14.7,48,14.7,36.9c0,0,0-11.4,0-13.2c0-3.8,6-3.7,6,0
	c0,5.7,0,13.2,0,13.2c0,8.9,7.2,16.1,16.1,16.1c0.1,0,0.2,0,0.3,0l0.1,0l0.1,0c0.1,0,0.2,0,0.3,0c8.9,0,16.1-7.2,16.1-16.1
	c0,0,0-7.4,0-13.2c0-3.8,6-3.7,6,0c0,5.7,0,13.2,0,13.2C59.6,48,51.4,57.2,40.6,58.7z M37,47.4c0.1,0,0.1,0,0.2,0c0.1,0,0.1,0,0.2,0
	c5.9,0,10.7-4.8,10.7-10.7V10.7C48.1,4.8,43.3,0,37.4,0c-0.1,0-0.1,0-0.2,0C37.1,0,37,0,37,0C31,0,26.2,4.8,26.2,10.7v25.9
	C26.2,42.6,31,47.4,37,47.4z"/>
</svg>
