<?xml version="1.0" encoding="utf-8"?>
<!-- Generator: Adobe Illustrator 18.1.1, SVG Export Plug-In . SVG Version: 6.00 Build 0)  -->
<svg version="1.1" id="レイヤー_1" xmlns="http://www.w3.org/2000/svg" xmlns:xlink="http://www.w3.org/1999/xlink" x="0px"
	 y="0px" viewBox="0 0 72 72" enable-background="new 0 0 72 72" xml:space="preserve">
<path d="M49.9,29.4c0,0.6,0.1,1.2,0.1,1.9c0,0.7,0,1.4-0.1,2c0,0.6-0.2,1.1-0.4,1.5c-0.2,0.4-0.5,0.7-1,1c-0.5,0.2-1.1,0.4-1.9,0.4
	h-2v-9.7h2.1c0.8,0,1.4,0.1,1.8,0.4c0.4,0.3,0.7,0.6,0.9,1C49.7,28.2,49.8,28.8,49.9,29.4z M71.9,17.2v39.3H-0.1V17.2H71.9z
	 M29.8,22.5H18.1v3.8h7.3l-7.7,21V51h12.1v-3.8H22l7.8-21.4V22.5z M36.6,22.5h-4.1V51h4.1V22.5z M53.8,31.2c0-1.7-0.1-3.1-0.4-4.1
	c-0.3-1-0.7-1.9-1.4-2.6c-0.7-0.7-1.5-1.3-2.3-1.6c-0.9-0.3-1.8-0.4-3-0.4h-6.1V51h4.1V39.9h2.1c1.5,0,2.7-0.3,3.7-0.8
	c0.9-0.5,1.7-1.2,2.2-2.2c0.5-0.8,0.8-1.6,0.9-2.5C53.7,33.5,53.8,32.5,53.8,31.2z"/>
</svg>
