<?xml version="1.0" encoding="utf-8"?>
<!-- Generator: Adobe Illustrator 18.1.1, SVG Export Plug-In . SVG Version: 6.00 Build 0)  -->
<svg version="1.1" id="レイヤー_1" xmlns="http://www.w3.org/2000/svg" xmlns:xlink="http://www.w3.org/1999/xlink" x="0px"
	 y="0px" viewBox="0 0 72 72" enable-background="new 0 0 72 72" xml:space="preserve">
<path d="M26.6,57.2L23,60.8c-3.1,3.1-8.3,3.1-11.4,0c-1.5-1.5-2.3-3.5-2.3-5.6c0-2.1,0.8-4.1,2.3-5.6l13.3-13.2
	c2.8-2.7,8-6.8,11.8-3c1.7,1.7,2.7-0.1,4.4-1.8c1.7-1.7,3.6-2.7,1.8-4.5c-6.4-6.4-16-5.2-24.3,3L5.3,43.3c-3.2,3.2-5,7.4-5,11.9
	c0,4.5,1.8,8.7,5,11.9c3.3,3.3,7.6,4.9,12,4.9c4.3,0,8.7-1.6,12-4.9l3.6-3.6c1.7-1.7-0.2-2.9-1.9-4.7C29.2,57.1,28.3,55.5,26.6,57.2
	z M67,5.8c-6.9-6.9-16.6-7.2-23-0.9l-4.5,4.5c-1.7,1.7,0,2.7,1.8,4.5c1.7,1.7,2.8,3.5,4.5,1.8l4.5-4.5c3.3-3.3,7.7-1.9,10.5,0.9
	c1.5,1.5,2.3,3.5,2.3,5.6c0,2.1-0.8,4.1-2.3,5.6L46.5,37.4c-6.5,6.5-9.6,3.4-10.9,2.1c-1.7-1.7-2.7,0.1-4.4,1.8
	c-1.7,1.7-3.6,2.8-1.8,4.5c3,3,6.4,4.4,10,4.4c4.4,0,9-2.2,13.4-6.6L67,29.6c3.2-3.2,5-7.4,5-11.9C72,13.2,70.2,9,67,5.8z"/>
</svg>
