<?xml version="1.0" encoding="utf-8"?>
<!-- Generator: Adobe Illustrator 18.1.1, SVG Export Plug-In . SVG Version: 6.00 Build 0)  -->
<svg version="1.1" id="レイヤー_1" xmlns="http://www.w3.org/2000/svg" xmlns:xlink="http://www.w3.org/1999/xlink" x="0px"
	 y="0px" viewBox="0 0 72 72" enable-background="new 0 0 72 72" xml:space="preserve">
<path d="M66.3,26.1C66.2,26.1,66.2,26.1,66.3,26.1L30,62.3c-6.8,6.8-14.5,5.1-18.9,0.8c-4.4-4.4-6-12.1,0.8-18.9
	C17.1,39,37.8,18.3,48.1,8c2.4-2.4,5.2-3.3,7.9-2.6c2.7,0.7,4.8,2.9,5.6,5.6c0.7,2.7-0.2,5.5-2.6,7.9L24.3,53.5
	c-1.1,1.1-2.3,1.8-3.4,1.9c-0.7,0.1-1.3-0.1-1.7-0.5c-0.9-0.9-0.7-2.9,1.4-5L45,25.6L41.4,22L17.1,46.3c-4.5,4.5-4.1,9.6-1.4,12.2
	c1.5,1.5,3.6,2.2,5.8,2c2.2-0.2,4.5-1.4,6.5-3.4l34.7-34.7c3.7-3.7,5.1-8.3,3.9-12.8c-1.2-4.4-4.8-8-9.2-9.2
	c-4.5-1.2-9.1,0.2-12.8,3.9C34.2,14.7,13.5,35.4,8.3,40.6c-8.8,8.8-7.1,19.8-0.8,26.1C10.8,70,15.3,72,20.1,72
	c4.5,0,9.3-1.8,13.6-6.1l36.2-36.2c0,0,0,0,0,0L66.3,26.1z"/>
</svg>
