<?xml version="1.0" encoding="utf-8"?>
<!-- Generator: Adobe Illustrator 18.1.1, SVG Export Plug-In . SVG Version: 6.00 Build 0)  -->
<svg version="1.1" id="レイヤー_1" xmlns="http://www.w3.org/2000/svg" xmlns:xlink="http://www.w3.org/1999/xlink" x="0px"
	 y="0px" viewBox="0 0 72 72" enable-background="new 0 0 72 72" xml:space="preserve">
<path d="M66.1,12.3c-7-6.4-18.4-6.4-25.4,0L36,16.6l-4.8-4.4c-7-6.4-18.4-6.4-25.4,0c-7.9,7.2-7.9,19,0,26.2L36,66.1l30.1-27.7
	C74,31.2,74,19.5,66.1,12.3z M61.6,34.2L36,58.1l-25.7-24c-2.6-2.4-3.6-5.5-3.6-8.8c0-3.3,0.6-6,3.2-8.4c2.3-2.1,5.4-3.3,8.6-3.3
	c3.3,0,6.4,2,8.7,4.1l8.8,7.7l8.8-7.7c2.3-2.1,5.4-4.1,8.7-4.1c3.3,0,6.4,1.2,8.7,3.3c2.6,2.4,3.2,5.1,3.2,8.4
	C65.2,28.7,64.2,31.8,61.6,34.2z"/>
</svg>
