<?xml version="1.0" encoding="utf-8"?>
<!-- Generator: Adobe Illustrator 18.1.1, SVG Export Plug-In . SVG Version: 6.00 Build 0)  -->
<svg version="1.1" id="レイヤー_1" xmlns="http://www.w3.org/2000/svg" xmlns:xlink="http://www.w3.org/1999/xlink" x="0px"
	 y="0px" viewBox="0 0 72 72" enable-background="new 0 0 72 72" xml:space="preserve">
<path d="M67.6,52.3c-4-4-9.4-5.1-12.1-2.5c-4.3,4.3-6.5,7.4-12.4,4.3c-3.7-2.3-8.3-5.9-13.9-11.5c-5.6-5.6-9.2-10.2-11.5-13.9
	c-3.1-5.9,0-8.2,4.3-12.4c2.6-2.6,1.5-8.1-2.5-12.1c-4-4-9.4-5.1-12.1-2.5c-5.8,5.8-7.6,17.6-6,23.1c0,0,0,0,0,0
	c1.3,8,7.2,17.2,17.8,27.8C29.7,63.2,39,69.1,46.9,70.4c0,0,0,0,0,0c5.5,1.5,17.4-0.3,23.1-6C72.7,61.7,71.6,56.3,67.6,52.3z"/>
</svg>
