<?xml version="1.0" encoding="utf-8"?>
<!-- Generator: Adobe Illustrator 19.2.1, SVG Export Plug-In . SVG Version: 6.00 Build 0)  -->
<!DOCTYPE svg PUBLIC "-//W3C//DTD SVG 1.1//EN" "http://www.w3.org/Graphics/SVG/1.1/DTD/svg11.dtd">
<svg version="1.1" id="レイヤー_1" xmlns="http://www.w3.org/2000/svg" xmlns:xlink="http://www.w3.org/1999/xlink" x="0px"
	 y="0px" width="72px" height="72px" viewBox="0 0 72 72" style="enable-background:new 0 0 72 72;" xml:space="preserve">
<style type="text/css">
	.st0{fill:#040000;}
</style>
<path class="st0" d="M63,0H9C4.1,0,0,4.1,0,9v54c0,5,4.1,9,9,9h16h11.3h13H63c5,0,9-4,9-9V9C72,4.1,68,0,63,0z M62.6,38
	c0,4.3-0.5,8.6-0.5,8.6s-0.5,3.7-2.1,5.3c-2,2.1-4.3,2.1-5.3,2.3C47.2,54.7,36,54.7,36,54.7s-13.8-0.1-18.1-0.5
	c-1.2-0.2-3.8-0.2-5.9-2.3c-1.6-1.6-2.1-5.3-2.1-5.3S9.4,42.3,9.4,38v-4c0-4.3,0.5-8.6,0.5-8.6s0.5-3.7,2.1-5.3
	c2-2.1,4.3-2.1,5.3-2.3c7.4-0.5,18.6-0.5,18.6-0.5h0c0,0,11.2,0,18.6,0.5c1,0.1,3.3,0.1,5.3,2.3c1.6,1.6,2.1,5.3,2.1,5.3
	s0.5,4.3,0.5,8.6V38z M30.5,42.9l14.4-7.4L30.5,28L30.5,42.9z"/>
</svg>
