<?xml version="1.0" encoding="utf-8"?>
<!-- Generator: Adobe Illustrator 19.2.1, SVG Export Plug-In . SVG Version: 6.00 Build 0)  -->
<!DOCTYPE svg PUBLIC "-//W3C//DTD SVG 1.1//EN" "http://www.w3.org/Graphics/SVG/1.1/DTD/svg11.dtd">
<svg version="1.1" id="レイヤー_1" xmlns="http://www.w3.org/2000/svg" xmlns:xlink="http://www.w3.org/1999/xlink" x="0px"
	 y="0px" width="72px" height="72px" viewBox="0 0 72 72" style="enable-background:new 0 0 72 72;" xml:space="preserve">
<g>
	<path d="M15.2,44c0-4.8,0-9.7,0-14.5c0-2.2,0.1-4.3,0.8-6.4c1.3-3.8,3.9-6.2,7.7-7.2c1-0.3,2.1-0.4,3.1-0.5
		c5.3-0.3,10.5-0.1,15.8-0.1c2,0,4,0.1,6,0.7c4.1,1.3,6.6,4,7.5,8.2c0.2,0.9,0.3,1.8,0.4,2.7c0.3,4.5,0.1,9,0.2,13.5
		c0,0.8,0,1.7,0,2.5c-0.1,2-0.1,4-0.7,6c-1.3,4.2-4.2,6.7-8.5,7.6c-1.2,0.3-2.4,0.4-3.7,0.4c-4.9,0-9.8,0.1-14.6,0.1
		c-2.2,0-4.5-0.1-6.6-0.9c-3.6-1.3-5.8-3.9-6.8-7.6c-0.3-1-0.3-2.1-0.5-3.1C15.3,44.8,15.3,44.4,15.2,44C15.3,44,15.2,44,15.2,44z
		 M18.8,42.7C18.9,42.7,18.9,42.7,18.8,42.7c0.1,0.5,0.1,1.1,0.2,1.6c0.1,0.9,0.1,1.9,0.3,2.8c0.4,2,1.5,3.6,3.3,4.7
		c1.3,0.8,2.8,1.1,4.3,1.2c1.6,0.1,3.2,0.2,4.8,0.2c4.2,0,8.4-0.1,12.7-0.2c0.9,0,1.8-0.1,2.7-0.3c1.8-0.4,3.3-1.3,4.4-2.8
		c1-1.4,1.4-3.1,1.5-4.8c0.1-1.2,0.2-2.5,0.2-3.7c0-4.5,0.1-9.1-0.2-13.6c-0.1-0.9-0.1-1.8-0.3-2.7c-0.6-2.6-2.1-4.4-4.6-5.4
		c-1.4-0.5-3-0.6-4.5-0.7c-1-0.1-1.9-0.1-2.9-0.1c-4.3,0-8.6-0.1-12.9,0.2c-0.9,0.1-1.9,0.1-2.8,0.3c-2,0.4-3.6,1.4-4.7,3.2
		c-0.9,1.4-1.1,2.9-1.3,4.4c-0.1,1.4-0.1,2.7-0.2,4.1C18.8,34.9,18.8,38.8,18.8,42.7z M36,46.7c-5.9-0.1-10.7-4.7-10.6-10.8
		c0-5.8,4.7-10.6,10.8-10.6c5.8,0,10.6,4.7,10.5,10.8C46.6,42,42,46.6,36,46.7z M43,36.1c0.1-3.9-3.1-6.8-6.5-7
		c-4.4-0.2-7.2,3.2-7.4,6.5c-0.2,4.4,3.3,7.3,6.6,7.4C39.9,43.2,43.1,39.7,43,36.1z M47.4,22.5c-1.5,0-2.7,0.9-2.7,2.1
		c0,1.5,0.9,2.7,2.1,2.7c1.7,0,2.7-0.9,2.7-2.4C49.6,23.6,48.4,22.5,47.4,22.5z"/>
</g>
</svg>
