<?xml version="1.0" encoding="utf-8"?>
<!-- Generator: Adobe Illustrator 18.1.1, SVG Export Plug-In . SVG Version: 6.00 Build 0)  -->
<svg version="1.1" id="レイヤー_1" xmlns="http://www.w3.org/2000/svg" xmlns:xlink="http://www.w3.org/1999/xlink" x="0px"
	 y="0px" viewBox="0 0 72 72" enable-background="new 0 0 72 72" xml:space="preserve">
<path d="M40.7,29.4c0,0.6,0.1,1.2,0.1,1.9c0,0.7,0,1.4-0.1,2c0,0.6-0.2,1.1-0.4,1.5c-0.2,0.4-0.5,0.7-1,1c-0.5,0.2-1.1,0.4-1.9,0.4
	h-2v-9.7h2.1c0.8,0,1.4,0.1,1.8,0.4c0.4,0.3,0.7,0.6,0.9,1C40.5,28.2,40.7,28.8,40.7,29.4z M24.1,27.8c-0.2-0.4-0.5-0.8-0.9-1
	c-0.4-0.3-1-0.4-1.8-0.4h-2.1v9.7h2c0.8,0,1.5-0.1,1.9-0.4c0.5-0.2,0.8-0.6,1-1c0.2-0.4,0.3-0.9,0.4-1.5c0-0.6,0.1-1.2,0.1-2
	c0-0.7,0-1.3-0.1-1.9C24.4,28.8,24.3,28.2,24.1,27.8z M71.9,17.2v39.3H0V17.2H71.9z M28.3,31.2c0-1.7-0.1-3.1-0.4-4.1
	c-0.3-1-0.7-1.9-1.4-2.6c-0.7-0.7-1.5-1.3-2.3-1.6c-0.9-0.3-1.8-0.4-3-0.4h-6.1V51h4.1V39.9h2.1c1.5,0,2.7-0.3,3.7-0.8
	c0.9-0.5,1.7-1.2,2.2-2.2c0.5-0.8,0.8-1.6,0.9-2.5C28.3,33.5,28.3,32.5,28.3,31.2z M44.6,31.2c0-1.7-0.1-3.1-0.4-4.1
	c-0.3-1-0.7-1.9-1.4-2.6c-0.7-0.7-1.5-1.3-2.3-1.6c-0.9-0.3-1.8-0.4-3-0.4h-6.1V51h4.1V39.9h2.1c1.5,0,2.7-0.3,3.7-0.8
	c0.9-0.5,1.7-1.2,2.2-2.2c0.5-0.8,0.8-1.6,0.9-2.5C44.5,33.5,44.6,32.5,44.6,31.2z M59.1,22.5H45.6v3.8h4.7V51h4.1V26.4h4.7V22.5z"
	/>
</svg>
