<?xml version="1.0" encoding="utf-8"?>
<!-- Generator: Adobe Illustrator 18.1.1, SVG Export Plug-In . SVG Version: 6.00 Build 0)  -->
<svg version="1.1" id="レイヤー_1" xmlns="http://www.w3.org/2000/svg" xmlns:xlink="http://www.w3.org/1999/xlink" x="0px"
	 y="0px" viewBox="0 0 72 72" enable-background="new 0 0 72 72" xml:space="preserve">
<path d="M61.3,8.8V40L54,32.2L46.7,40V8.7C38.9,11.9,36,19.5,36,19.5S31.9,7.4,18,7.4C4.2,7.4,0,19.5,0,19.5v43.1
	c0,0,5.2-12.2,18-12.2s18,12.2,18,12.2s4.7-12.2,18-12.2s18,12.2,18,12.2V19.7C72,19.7,69.1,12,61.3,8.8z M46.7,40L46.7,40L46.7,40
	L46.7,40z M61.3,40L61.3,40L61.3,40L61.3,40z"/>
<polygon points="61.3,40 61.3,40 61.3,40 "/>
<polygon points="46.7,40 46.7,40 46.7,40 "/>
</svg>
