<?xml version="1.0" encoding="utf-8"?>
<!-- Generator: Adobe Illustrator 18.1.1, SVG Export Plug-In . SVG Version: 6.00 Build 0)  -->
<svg version="1.1" id="レイヤー_1" xmlns="http://www.w3.org/2000/svg" xmlns:xlink="http://www.w3.org/1999/xlink" x="0px"
	 y="0px" viewBox="0 0 72 72" enable-background="new 0 0 72 72" xml:space="preserve">
<path d="M52.9,0H19.5c-2.2,0-4,1.8-4,4v64c0,2.2,1.8,4,4,4h33.4c2.2,0,4-1.8,4-4V4C56.9,1.8,55.1,0,52.9,0z M30.6,4.2h11V7h-11V4.2z
	 M36.1,68c-1.9,0-3.4-1.5-3.4-3.4c0-1.9,1.5-3.4,3.4-3.4c1.9,0,3.4,1.5,3.4,3.4C39.5,66.5,38,68,36.1,68z M51.3,56.8H21.1V11.2h30.2
	V56.8z"/>
</svg>
