<?xml version="1.0" encoding="utf-8"?>
<!-- Generator: Adobe Illustrator 18.1.1, SVG Export Plug-In . SVG Version: 6.00 Build 0)  -->
<svg version="1.1" id="レイヤー_1" xmlns="http://www.w3.org/2000/svg" xmlns:xlink="http://www.w3.org/1999/xlink" x="0px"
	 y="0px" viewBox="0 0 72 72" enable-background="new 0 0 72 72" xml:space="preserve">
<path d="M36,6c16.5,0,30,13.5,30,30S52.5,66,36,66S6,52.5,6,36S19.4,6,36,6 M36,0C16.1,0,0,16.1,0,36c0,19.9,16.1,36,36,36
	c19.9,0,36-16.1,36-36C72,16.1,55.8,0,36,0L36,0z M39.1,33.7l13.8-13.8l-4.2-4.2L36,28.4L23.3,15.7L19,19.9l14,14v0.5H21.6v6h11.5v4
	H21.6v6h11.5v9.1h6v-9.1h11.5v-6H39.1v-4h11.5v-6H39.1V33.7z"/>
</svg>
