<?xml version="1.0" encoding="utf-8"?>
<!-- Generator: Adobe Illustrator 19.2.1, SVG Export Plug-In . SVG Version: 6.00 Build 0)  -->
<!DOCTYPE svg PUBLIC "-//W3C//DTD SVG 1.1//EN" "http://www.w3.org/Graphics/SVG/1.1/DTD/svg11.dtd">
<svg version="1.1" id="レイヤー_1" xmlns="http://www.w3.org/2000/svg" xmlns:xlink="http://www.w3.org/1999/xlink" x="0px"
	 y="0px" width="72px" height="72px" viewBox="0 0 72 72" style="enable-background:new 0 0 72 72;" xml:space="preserve">
<path d="M63,0H9C4.1,0,0,4.1,0,9v54c0,5,4.1,9,9,9h16h11.3h13H63c5,0,9-4,9-9V9C72,4.1,68,0,63,0z M39.3,46.5
	c-4.1,5.8-12.4,7.5-18.9,5C13.9,49,9.3,42.2,9.9,35.2c0.1-8.6,8-16.1,16.6-15.8c4.1-0.2,8,1.6,11.1,4.1c-1.3,1.5-2.7,3-4.2,4.4
	c-3.8-2.6-9.2-3.4-12.9-0.3C15,31.3,14.8,40.1,20,44.1c5.1,4.6,14.6,2.3,16-4.7c-3.2,0-6.3,0-9.5-0.1c0-1.9,0-3.8,0-5.7
	c5.3,0,10.6,0,15.9,0C42.7,38.1,42.1,42.8,39.3,46.5z M62.2,38.4c-1.6,0-3.2,0-4.7,0c0,1.6,0,3.2,0,4.7c-1.6,0-3.2,0-4.7,0
	c0-1.6,0-3.2,0-4.7c-1.6,0-3.2,0-4.7,0c0-1.6,0-3.1,0-4.7c1.6,0,3.2,0,4.7,0c0-1.6,0-3.2,0-4.7c1.6,0,3.1,0,4.7,0c0,1.6,0,3.2,0,4.7
	c1.6,0,3.2,0,4.7,0C62.2,35.2,62.2,36.8,62.2,38.4z"/>
</svg>
