<?xml version="1.0" encoding="utf-8"?>
<!-- Generator: Adobe Illustrator 18.1.1, SVG Export Plug-In . SVG Version: 6.00 Build 0)  -->
<svg version="1.1" id="レイヤー_1" xmlns="http://www.w3.org/2000/svg" xmlns:xlink="http://www.w3.org/1999/xlink" x="0px"
	 y="0px" viewBox="0 0 72 72" enable-background="new 0 0 72 72" xml:space="preserve">
<path d="M17.1,52.7v5.2l-16.7,0v-3.8c0,0,0-2.2,4.6-4.3c2.2-1,5.5-3.5,10.4-4.4c-1.3-1.3-2.2-3.4-3.2-6c-0.6-1.4-0.5-2.7-0.5-4.4
	c0-1.3-0.2-3.4,0.1-4.5c1.1-3.9,3.8-4.9,7-4.9c3.2,0,6,1.1,7,4.9c0.3,1.1,0.1,3.2,0.1,4.5c0,1.8,0.1,3-0.5,4.4
	c-0.8,2.1-1.6,3.9-2.6,5.2C17.6,47.9,17.1,51.5,17.1,52.7L17.1,52.7L17.1,52.7z M65.6,46.7c-3.1-1.4-7.6-4.9-14.4-6.1
	c1.7-1.9,3-4.7,4.4-8.2c0.8-2,0.6-3.7,0.6-6.1c0-1.8,0.3-4.6-0.1-6.2c-1.5-5.3-5.3-6.8-9.7-6.8c-4.4,0-8.2,1.5-9.7,6.8
	c-0.4,1.6-0.1,4.4-0.1,6.2c0,2.4-0.1,4.1,0.7,6.1c1.4,3.4,2.6,6.3,4.4,8.2c-6.7,1.2-11.2,4.7-14.3,6.1c-6.3,2.8-6.4,5.9-6.4,5.9v5.2
	l51,0v-5.2C72,52.7,72,49.6,65.6,46.7z"/>
</svg>
