<?xml version="1.0" encoding="utf-8"?>
<!-- Generator: Adobe Illustrator 18.1.1, SVG Export Plug-In . SVG Version: 6.00 Build 0)  -->
<svg version="1.1" id="レイヤー_1" xmlns="http://www.w3.org/2000/svg" xmlns:xlink="http://www.w3.org/1999/xlink" x="0px"
	 y="0px" viewBox="0 0 72 72" enable-background="new 0 0 72 72" xml:space="preserve">
<path d="M72,72V20L54,0L36,15L18,0L0,20v52l18-15l18,15l17.6-14.7h0.8L72,72z M68,63.5l-11.4-9.5L56,53.5V8.2l12,13.3V63.5z M4,63.5
	V21.5L16,8.2v45.3l-0.6,0.5L4,63.5z M20,53.5V6.9l13.4,11.2l0.6,0.5v46.6L20.6,53.9L20,53.5z M38,65.1V18.5l0.6-0.5L52,6.9v46.6
	l-0.6,0.5L38,65.1z"/>
</svg>
