<?xml version="1.0" encoding="utf-8"?>
<!-- Generator: Adobe Illustrator 18.1.1, SVG Export Plug-In . SVG Version: 6.00 Build 0)  -->
<svg version="1.1" id="レイヤー_1" xmlns="http://www.w3.org/2000/svg" xmlns:xlink="http://www.w3.org/1999/xlink" x="0px"
	 y="0px" viewBox="0 0 72 72" enable-background="new 0 0 72 72" xml:space="preserve">
<path d="M35.9,0C16,0-0.1,16.1-0.1,36c0,19.9,16.1,36,36,36s36-16.1,36-36C71.9,16.1,55.8,0,35.9,0z M62.9,36c0,5.8-1.9,11.2-5,15.6
	L20.3,14c4.4-3.1,9.8-5,15.6-5C50.8,9,62.9,21.1,62.9,36z M8.9,36c0-5.9,1.9-11.3,5.1-15.7l37.6,37.6c-4.4,3.2-9.9,5.1-15.7,5.1
	C21,63,8.9,50.9,8.9,36z"/>
</svg>
