<?xml version="1.0" encoding="utf-8"?>
<!-- Generator: Adobe Illustrator 18.1.1, SVG Export Plug-In . SVG Version: 6.00 Build 0)  -->
<svg version="1.1" id="レイヤー_1" xmlns="http://www.w3.org/2000/svg" xmlns:xlink="http://www.w3.org/1999/xlink" x="0px"
	 y="0px" viewBox="0 0 72 72" enable-background="new 0 0 72 72" xml:space="preserve">
<path d="M60.9,61.3V72h-4.2V61.3c-4-1-7-4.5-7-8.8s3-7.9,7-8.8V0h4.2v43.6c4,0.9,7,4.5,7,8.8S65,60.3,60.9,61.3z M37.9,10.2V0h-4.2
	v10.2c-4,1-7,4.5-7,8.8c0,4.3,3,7.9,7,8.8V72h4.2V27.9c4-0.9,7-4.5,7-8.8C44.9,14.8,42,11.2,37.9,10.2z M14.9,29.8V0h-4.2v29.8
	c-4,1-7,4.5-7,8.8c0,4.3,3,7.9,7,8.8V72h4.2V47.5c4-0.9,7-4.5,7-8.8C21.9,34.3,19,30.7,14.9,29.8z"/>
</svg>
