<?xml version="1.0" encoding="utf-8"?>
<!-- Generator: Adobe Illustrator 18.1.1, SVG Export Plug-In . SVG Version: 6.00 Build 0)  -->
<svg version="1.1" id="レイヤー_1" xmlns="http://www.w3.org/2000/svg" xmlns:xlink="http://www.w3.org/1999/xlink" x="0px"
	 y="0px" viewBox="0 0 72 72" enable-background="new 0 0 72 72" xml:space="preserve">
<path d="M66.8,22c-2.1,7.2-0.4,19.5-0.4,19.5s-23,4.8-21.2-1.2c2.2-7-11.4-2.8-19.2,0.2c-3.1,1.2-5.3,0.2-5.3,0.2V7.5
	c0,0,29-8.2,29-2.6c0,1.2-2,7.4,1.2,7c5.6-0.7,16.1-1.1,16.1-1.1S68.8,14.8,66.8,22z M16.6,3.8c0-2-1.6-3.5-3.5-3.5
	c-2,0-3.5,1.6-3.5,3.5V72h7.1V3.8z"/>
</svg>
