<?xml version="1.0" encoding="utf-8"?>
<!-- Generator: Adobe Illustrator 18.1.1, SVG Export Plug-In . SVG Version: 6.00 Build 0)  -->
<svg version="1.1" id="レイヤー_1" xmlns="http://www.w3.org/2000/svg" xmlns:xlink="http://www.w3.org/1999/xlink" x="0px"
	 y="0px" viewBox="0 0 72 72" enable-background="new 0 0 72 72" xml:space="preserve">
<path d="M71.9,42.5c0,0,0,6.8,0,9.4h-7.2c0-2.6,0-9.4,0-9.4C64.6,26.7,51.7,14,36,14C20.2,14,7.4,26.7,7.2,42.4c0,0.1,0,6.8,0,9.5H0
	c0-2.6,0-9.3,0-9.4C0.2,22.8,16.2,6.8,36,6.8C55.7,6.8,71.8,22.8,71.9,42.5z M19.7,38.3h-4.6c-1.6,0-3,1.3-3,3v21c0,1.6,1.3,3,3,3
	h4.6c1.6,0,3-1.3,3-3v-21C22.6,39.7,21.3,38.3,19.7,38.3z M56.9,38.3h-4.6c-1.6,0-3,1.3-3,3v21c0,1.6,1.3,3,3,3h4.6c1.6,0,3-1.3,3-3
	v-21C59.8,39.7,58.5,38.3,56.9,38.3z"/>
</svg>
