<?xml version="1.0" encoding="utf-8"?>
<!-- Generator: Adobe Illustrator 19.2.1, SVG Export Plug-In . SVG Version: 6.00 Build 0)  -->
<!DOCTYPE svg PUBLIC "-//W3C//DTD SVG 1.1//EN" "http://www.w3.org/Graphics/SVG/1.1/DTD/svg11.dtd">
<svg version="1.1" id="レイヤー_1" xmlns="http://www.w3.org/2000/svg" xmlns:xlink="http://www.w3.org/1999/xlink" x="0px"
	 y="0px" width="72px" height="72px" viewBox="0 0 72 72" style="enable-background:new 0 0 72 72;" xml:space="preserve">
<path d="M71.1,21.7c0,0-0.7-4.9-2.8-7.1c-2.7-2.8-5.8-2.9-7.2-3c-10-0.7-25-0.7-25-0.7h0c0,0-15,0-25,0.7c-1.4,0.2-4.4,0.2-7.2,3
	c-2.1,2.2-2.8,7.1-2.8,7.1s-0.7,5.8-0.7,11.6v5.4c0,5.8,0.7,11.6,0.7,11.6s0.7,4.9,2.8,7.1c2.7,2.8,6.3,2.8,7.9,3.1
	c5.7,0.5,24.3,0.7,24.3,0.7s15,0,25-0.7c1.4-0.2,4.4-0.2,7.2-3c2.1-2.2,2.8-7.1,2.8-7.1s0.7-5.8,0.7-11.6v-5.4
	C71.8,27.5,71.1,21.7,71.1,21.7z M28.7,45.2l0-20.1L48,35.3L28.7,45.2z"/>
</svg>
