<?xml version="1.0" encoding="utf-8"?>
<!-- Generator: Adobe Illustrator 18.1.1, SVG Export Plug-In . SVG Version: 6.00 Build 0)  -->
<svg version="1.1" id="レイヤー_1" xmlns="http://www.w3.org/2000/svg" xmlns:xlink="http://www.w3.org/1999/xlink" x="0px"
	 y="0px" viewBox="0 0 72 72" enable-background="new 0 0 72 72" xml:space="preserve">
<path d="M72,10.9v4.2H42.2c-0.9,4-4.5,7-8.8,7c-4.3,0-7.9-3-8.8-7H0v-4.2h24.5c1-4,4.5-7,8.8-7c4.3,0,7.9,3,8.8,7H72z M19.6,49.9
	c-4.3,0-7.9,3-8.8,7H0v4.2h10.7c0.9,4,4.5,7,8.8,7c4.3,0,7.9-3,8.8-7H72v-4.2H28.4C27.5,52.9,23.9,49.9,19.6,49.9z M52.9,26.9
	c-4.3,0-7.9,3-8.8,7H0v4.2h44.1c0.9,4,4.5,7,8.8,7c4.3,0,7.9-3,8.8-7H72v-4.2H61.8C60.8,29.9,57.2,26.9,52.9,26.9z"/>
</svg>
