<?xml version="1.0" encoding="utf-8"?>
<!-- Generator: Adobe Illustrator 19.2.1, SVG Export Plug-In . SVG Version: 6.00 Build 0)  -->
<!DOCTYPE svg PUBLIC "-//W3C//DTD SVG 1.1//EN" "http://www.w3.org/Graphics/SVG/1.1/DTD/svg11.dtd">
<svg version="1.1" id="レイヤー_1" xmlns="http://www.w3.org/2000/svg" xmlns:xlink="http://www.w3.org/1999/xlink" x="0px"
	 y="0px" width="72px" height="72px" viewBox="0 0 72 72" style="enable-background:new 0 0 72 72;" xml:space="preserve">
<path d="M0.1,34.8c-0.8,9.6,5.6,19.1,14.5,22.5c8.9,3.4,20.3,1.1,26-6.9c3.8-5.1,4.6-11.6,4.1-17.7c-7.3-0.1-14.6,0-21.9,0
	c0,2.6,0,5.2,0,7.8c4.4,0.1,8.7,0.1,13.1,0.1c-1.9,9.7-15.1,12.8-22,6.5c-7.2-5.5-6.8-17.7,0.6-22.8c5.2-4.1,12.6-3.1,17.8,0.5
	c2-1.9,4-3.9,5.8-6c-4.3-3.5-9.6-5.9-15.3-5.6C11.1,12.7,0.3,23,0.1,34.8z M58.9,26.1c0,2.2,0,4.3-0.1,6.5c-2.2,0-4.4,0-6.5,0
	c0,2.2,0,4.3,0,6.5c2.2,0,4.4,0,6.5,0.1c0,2.2,0,4.3,0,6.5c2.2,0,4.3,0,6.5,0c0-2.2,0-4.3,0-6.5c2.2,0,4.4,0,6.5-0.1
	c0-2.2,0-4.3,0-6.5c-2.2,0-4.4,0-6.5,0c0-2.2,0-4.4,0-6.5C63.3,26.1,61.1,26.1,58.9,26.1z"/>
</svg>
