<?xml version="1.0" encoding="utf-8"?>
<!-- Generator: Adobe Illustrator 18.1.1, SVG Export Plug-In . SVG Version: 6.00 Build 0)  -->
<svg version="1.1" id="レイヤー_1" xmlns="http://www.w3.org/2000/svg" xmlns:xlink="http://www.w3.org/1999/xlink" x="0px"
	 y="0px" viewBox="0 0 72 72" enable-background="new 0 0 72 72" xml:space="preserve">
<path d="M69.9,17.4H55.5c0,0,0,0,0-0.1l-2.1-6.1c-0.5-1.1-1.9-1.9-3.1-1.9H22.6c-1.2,0-2.6,0.9-3.1,1.9l-2.1,6.1c0,0,0,0,0,0.1H2.3
	c-1.2,0-2.2,1-2.2,2.2v41c0,1.2,1,2.2,2.2,2.2h67.6c1.2,0,2.2-1,2.2-2.2v-41C72.1,18.4,71.1,17.4,69.9,17.4z M36.1,56.5
	c-9.4,0-17-7.6-17-17c0-9.4,7.6-17,17-17c9.4,0,17,7.6,17,17C53.1,48.9,45.5,56.5,36.1,56.5z M47.1,39.5c0,6-4.9,11-11,11
	c-6,0-11-4.9-11-11c0-6,4.9-11,11-11C42.2,28.6,47.1,33.5,47.1,39.5z"/>
</svg>
