<?xml version="1.0" encoding="utf-8"?>
<!-- Generator: Adobe Illustrator 18.1.1, SVG Export Plug-In . SVG Version: 6.00 Build 0)  -->
<svg version="1.1" id="レイヤー_1" xmlns="http://www.w3.org/2000/svg" xmlns:xlink="http://www.w3.org/1999/xlink" x="0px"
	 y="0px" viewBox="0 0 72 72" enable-background="new 0 0 72 72" xml:space="preserve">
<path d="M56.5,51.6l2.4,2.4C53.6,60.8,45.3,65.1,36,65.1c-16,0-29-13-29.1-29H6H5.8H0.1L11,25.3l10.9,10.9h-4.4H15
	c0.1,11.5,9.5,20.9,21,20.9c7,0,13.3-3.5,17.1-8.8L56.5,51.6z M67.5,36.2L67.5,36.2l-2.4,0v0c0-0.1,0-0.1,0-0.2
	C65.1,20,52.1,6.9,36,6.9c-9.4,0-17.7,4.4-23,11.3l2.5,2.5l3.3,3.3c3.8-5.4,10.1-9,17.2-9c11.6,0,21,9.4,21,21c0,0.1,0,0.1,0,0.2v0
	h-2.6l0,0h-4.3l10.9,10.9L72,36.2H67.5z"/>
</svg>
