<?xml version="1.0" encoding="utf-8"?>
<!-- Generator: Adobe Illustrator 18.1.1, SVG Export Plug-In . SVG Version: 6.00 Build 0)  -->
<svg version="1.1" id="レイヤー_1" xmlns="http://www.w3.org/2000/svg" xmlns:xlink="http://www.w3.org/1999/xlink" x="0px"
	 y="0px" viewBox="0 0 72 72" enable-background="new 0 0 72 72" xml:space="preserve">
<path d="M36.1,3.6c-0.6,0-1.1,0-1.7,0c-1.1,0.1-2.2,0.2-3.3,0.3c-0.5,0.1-1.1,0.2-1.6,0.3c-1.1,0.2-2.1,0.5-3.1,0.8
	c-0.5,0.2-1,0.3-1.5,0.5C21,7,17.4,9.2,14.3,12c-0.8,0.7-1.5,1.4-2.2,2.2c-1.4,1.5-2.6,3.2-3.7,5c-1.9,3.1-3.3,6.6-4,10.3
	c-0.2,1.1-0.4,2.1-0.5,3.2c-0.1,1.1-0.2,2.2-0.2,3.3c0,1.1,0.1,2.2,0.2,3.3c0.1,1.1,0.3,2.2,0.5,3.2c0.8,3.7,2.1,7.2,4,10.3
	c1.1,1.8,2.3,3.5,3.7,5c0.7,0.8,1.4,1.5,2.2,2.2c3.1,2.8,6.7,5,10.6,6.5c0.5,0.2,1,0.4,1.5,0.5c1,0.3,2.1,0.6,3.1,0.8
	c0.5,0.1,1.1,0.2,1.6,0.3c1.1,0.2,2.2,0.3,3.3,0.3c0.6,0,1.1,0,1.7,0C54,68.4,68.5,53.9,68.5,36C68.5,18.1,54,3.6,36.1,3.6z
	 M56.1,40.5H32.6V15.9h7v17.6h16.5V40.5z"/>
</svg>
