<?xml version="1.0" encoding="utf-8"?>
<!-- Generator: Adobe Illustrator 19.2.1, SVG Export Plug-In . SVG Version: 6.00 Build 0)  -->
<!DOCTYPE svg PUBLIC "-//W3C//DTD SVG 1.1//EN" "http://www.w3.org/Graphics/SVG/1.1/DTD/svg11.dtd">
<svg version="1.1" id="レイヤー_1" xmlns="http://www.w3.org/2000/svg" xmlns:xlink="http://www.w3.org/1999/xlink" x="0px"
	 y="0px" width="72px" height="72px" viewBox="0 0 72 72" style="enable-background:new 0 0 72 72;" xml:space="preserve">
<path d="M63,0H9C4.1,0,0,4.1,0,9v54c0,5,4.1,9,9,9h16h11.3h13H63c5,0,9-4,9-9V9C72,4.1,68,0,63,0z M52.4,49
	c-5.1,7.2-15.4,9.3-23.4,6.2c-8-3.1-13.7-11.6-13.1-20.2c0.2-10.6,9.9-19.9,20.5-19.5c5.1-0.2,9.9,2,13.7,5.1
	c-1.7,1.9-3.4,3.7-5.2,5.4c-4.7-3.2-11.3-4.2-16-0.4c-6.7,4.6-7,15.6-0.6,20.5c6.3,5.7,18.1,2.9,19.8-5.8c-3.9-0.1-7.9,0-11.8-0.1
	c0-2.3,0-4.7,0-7c6.6,0,13.1,0,19.7,0C56.5,38.6,55.7,44.4,52.4,49z"/>
</svg>
