<svg id="レイヤー_1" data-name="レイヤー 1" xmlns="http://www.w3.org/2000/svg" viewBox="0 0 72 72"><defs><style>.cls-1{fill:#040000;}</style></defs><title>file1</title><path class="cls-1" d="M66.24,26h0L30,62.25C23.24,69,15.47,67.38,11.11,63s-6-12.13.78-18.88L48.12,7.91C50.5,5.53,53.3,4.62,56,5.35a8,8,0,0,1,5.55,5.55c0.72,2.7-.19,5.5-2.56,7.87L24.33,53.42A6,6,0,0,1,21,55.34a2,2,0,0,1-1.68-.5c-0.9-.9-0.7-2.9,1.4-5L45,25.55l-3.62-3.62L17.06,46.22c-4.48,4.48-4.1,9.55-1.4,12.25a7.12,7.12,0,0,0,5.83,2A10.92,10.92,0,0,0,28,57L62.6,22.39c3.67-3.67,5.09-8.34,3.89-12.82A13.18,13.18,0,0,0,57.32.4C52.85-.8,48.17.62,44.5,4.29L8.27,40.53c-8.83,8.83-7.07,19.82-.78,26.12a17.87,17.87,0,0,0,12.56,5.29c4.51,0,9.29-1.79,13.56-6.06L69.84,29.63v0Z"/></svg>