<svg id="レイヤー_1" data-name="レイヤー 1" xmlns="http://www.w3.org/2000/svg" viewBox="0 0 72 72"><title>file1</title><rect x="5" y="66" width="61.66" height="6"/><rect x="5" y="40.93" width="61.66" height="6"/><polygon points="10.16 50.08 6 56.44 10.16 62.81 14.32 56.44 10.16 50.08"/><polygon points="26.94 50.08 22.78 56.44 26.94 62.81 31.11 56.44 26.94 50.08"/><polygon points="44.73 50.08 40.56 56.44 44.73 62.81 48.89 56.44 44.73 50.08"/><polygon points="61.51 50.08 57.35 56.44 61.51 62.81 65.67 56.44 61.51 50.08"/><polygon points="50.8 17.17 35.83 0 20.86 17.17 5 0 5 35.36 33.99 35.36 35.83 35.36 37.67 35.36 66.66 35.36 66.66 0 50.8 17.17"/></svg>