<?xml version="1.0" encoding="utf-8"?>
<!-- Generator: Adobe Illustrator 19.2.1, SVG Export Plug-In . SVG Version: 6.00 Build 0)  -->
<!DOCTYPE svg PUBLIC "-//W3C//DTD SVG 1.1//EN" "http://www.w3.org/Graphics/SVG/1.1/DTD/svg11.dtd">
<svg version="1.1" id="レイヤー_1" xmlns="http://www.w3.org/2000/svg" xmlns:xlink="http://www.w3.org/1999/xlink" x="0px"
	 y="0px" width="72px" height="72px" viewBox="0 0 72 72" enable-background="new 0 0 72 72" xml:space="preserve">
<g>
	<polygon points="44,72.1 52.2,72.1 52.2,70.1 49.1,67 	"/>
	<polygon points="6,66.1 6,21.2 21.1,21.2 21.1,6.1 46.2,6.1 46.2,29.1 49.1,32 52.2,29 52.2,0.1 15.1,0.1 15.1,0.1 0,15.2 0,72.1 
		31.4,72.1 25.4,66.1 	"/>
	<polygon points="60.6,69.9 69.6,60.9 58.2,49.5 69.6,38.1 60.6,29.1 49.1,40.5 37.7,29.1 28.7,38.1 40.1,49.5 28.7,60.9 37.7,69.9 
		49.1,58.5 	"/>
</g>
</svg>
