<?xml version="1.0" encoding="utf-8"?>
<!-- Generator: Adobe Illustrator 19.2.1, SVG Export Plug-In . SVG Version: 6.00 Build 0)  -->
<!DOCTYPE svg PUBLIC "-//W3C//DTD SVG 1.1//EN" "http://www.w3.org/Graphics/SVG/1.1/DTD/svg11.dtd">
<svg version="1.1" id="レイヤー_1" xmlns="http://www.w3.org/2000/svg" xmlns:xlink="http://www.w3.org/1999/xlink" x="0px"
	 y="0px" width="72px" height="72px" viewBox="0 0 72 72" enable-background="new 0 0 72 72" xml:space="preserve">
<g>
	<polygon points="35.6,30.7 33.6,41 37.7,41 35.7,30.7 	"/>
	<path d="M51.7,26.4h-1.9v20.8h1.9c1.1,0,2-0.3,2.4-0.9c0.5-0.6,0.7-1.5,0.7-2.7V29.9c0-1.1-0.2-2-0.7-2.6S52.9,26.4,51.7,26.4z"/>
	<path d="M0,17.2v39.3h71.9V17.2H0z M26.1,30.7h-4.1v-1.4c0-0.8-0.2-1.5-0.7-2.1s-1.1-0.9-1.8-0.9c-1,0-1.7,0.3-2,0.9
		c-0.3,0.6-0.5,1.4-0.5,2.4v14.6c0,0.8,0.2,1.5,0.5,2.1c0.4,0.6,1,0.8,1.9,0.8c0.3,0,0.6,0,0.9-0.1c0.3-0.1,0.6-0.2,0.8-0.5
		c0.3-0.2,0.5-0.5,0.6-0.9c0.2-0.4,0.2-0.8,0.2-1.4v-1.4h4.1v1.8c0,0.9-0.2,1.7-0.5,2.5c-0.3,0.8-0.8,1.5-1.4,2.1s-1.3,1.1-2.1,1.4
		c-0.8,0.4-1.6,0.5-2.5,0.5c-0.8,0-1.6-0.1-2.4-0.3c-0.8-0.2-1.5-0.6-2.2-1.1c-0.6-0.5-1.2-1.2-1.6-2.1c-0.4-0.9-0.6-1.9-0.6-3.2
		V28.9c0-0.9,0.2-1.8,0.5-2.6s0.8-1.5,1.4-2.1c0.6-0.6,1.3-1,2.1-1.4c0.8-0.3,1.7-0.5,2.7-0.5c0.9,0,1.8,0.2,2.6,0.5
		c0.8,0.3,1.5,0.8,2.1,1.4c0.6,0.6,1,1.3,1.4,2.2c0.3,0.8,0.5,1.8,0.5,2.7V30.7z M39.7,51l-1.2-6.1h-5.6L31.7,51h-4.1L34,22.5h3.4
		L43.7,51H39.7z M58.9,43.2c0,2.7-0.6,4.6-1.9,5.9c-1.3,1.3-3.2,1.9-5.6,1.9h-5.7V22.5h6c2.3,0,4.1,0.6,5.3,1.9
		c1.2,1.3,1.8,3.1,1.8,5.4V43.2z"/>
</g>
</svg>
