<?xml version="1.0" encoding="utf-8"?>
<!-- Generator: Adobe Illustrator 19.2.1, SVG Export Plug-In . SVG Version: 6.00 Build 0)  -->
<!DOCTYPE svg PUBLIC "-//W3C//DTD SVG 1.1//EN" "http://www.w3.org/Graphics/SVG/1.1/DTD/svg11.dtd">
<svg version="1.1" id="レイヤー_1" xmlns="http://www.w3.org/2000/svg" xmlns:xlink="http://www.w3.org/1999/xlink" x="0px"
	 y="0px" width="72px" height="72px" viewBox="0 0 72 72" enable-background="new 0 0 72 72" xml:space="preserve">
<g>
	<polygon points="9.2,27 0,27 0,45.3 9.2,45.3 27.4,63.5 27.4,8.7 9.2,27 	"/>
	<path d="M34.4,24.6L31.7,30v0.1c1.7,1.4,2.9,3.5,2.9,5.9c0,2.4-1.1,4.5-2.9,5.9v0l2.8,5.5c3.7-2.5,6.1-6.6,6.1-11.4
		C40.6,31.2,38.1,27,34.4,24.6z"/>
	<path d="M54.6,36c0-10.2-5.6-19.1-13.9-23.7L38,17.6v0.1c6.3,3.7,10.5,10.5,10.5,18.3c0,7.8-4.2,14.6-10.5,18.3v0l2.8,5.4
		C49,55,54.6,46.2,54.6,36z"/>
</g>
</svg>
