<?xml version="1.0" encoding="utf-8"?>
<!-- Generator: Adobe Illustrator 19.2.1, SVG Export Plug-In . SVG Version: 6.00 Build 0)  -->
<!DOCTYPE svg PUBLIC "-//W3C//DTD SVG 1.1//EN" "http://www.w3.org/Graphics/SVG/1.1/DTD/svg11.dtd">
<svg version="1.1" id="レイヤー_1" xmlns="http://www.w3.org/2000/svg" xmlns:xlink="http://www.w3.org/1999/xlink" x="0px"
	 y="0px" width="72px" height="72px" viewBox="0 0 72 72" enable-background="new 0 0 72 72" xml:space="preserve">
<g>
	<path d="M22.9,27.8c-0.2-0.4-0.5-0.8-0.9-1c-0.4-0.3-1-0.4-1.8-0.4H18v9.7h2c0.8,0,1.5-0.1,1.9-0.4s0.8-0.6,1-1
		c0.2-0.4,0.3-0.9,0.4-1.5c0-0.6,0.1-1.2,0.1-2c0-0.7,0-1.3-0.1-1.9C23.2,28.8,23.1,28.2,22.9,27.8z"/>
	<path d="M0,17.2v39.3h71.9V17.2H0z M26.9,34.4c-0.1,0.9-0.5,1.7-0.9,2.5c-0.6,0.9-1.3,1.7-2.2,2.2s-2.2,0.8-3.7,0.8H18V51h-4.1
		V22.5H20c1.1,0,2.1,0.1,3,0.4s1.6,0.8,2.3,1.6c0.7,0.7,1.2,1.6,1.4,2.6c0.3,1,0.4,2.4,0.4,4.1C27.2,32.5,27.1,33.5,26.9,34.4z
		 M43.4,43.2c0,2.7-0.6,4.6-1.9,5.9c-1.3,1.3-3.2,1.9-5.6,1.9h-5.7V22.5h6c2.3,0,4.1,0.6,5.3,1.9c1.2,1.3,1.8,3.1,1.8,5.4V43.2z
		 M59.4,26.4h-8.1V35h7v3.8h-7V51h-4.1V22.5h12.2V26.4z"/>
	<path d="M36.1,26.4h-1.9v20.8h1.9c1.1,0,2-0.3,2.4-0.9s0.7-1.5,0.7-2.7V29.9c0-1.1-0.2-2-0.7-2.6C38.2,26.7,37.3,26.4,36.1,26.4z"
		/>
</g>
</svg>
