<?xml version="1.0" encoding="utf-8"?>
<!-- Generator: Adobe Illustrator 19.2.1, SVG Export Plug-In . SVG Version: 6.00 Build 0)  -->
<!DOCTYPE svg PUBLIC "-//W3C//DTD SVG 1.1//EN" "http://www.w3.org/Graphics/SVG/1.1/DTD/svg11.dtd">
<svg version="1.1" id="レイヤー_1" xmlns="http://www.w3.org/2000/svg" xmlns:xlink="http://www.w3.org/1999/xlink" x="0px"
	 y="0px" width="72px" height="72px" viewBox="0 0 72 72" enable-background="new 0 0 72 72" xml:space="preserve">
<g>
	<path fill="#040000" d="M36,5.7L17.2,23.3h11.9v18.5h13.7V23.3h11.9L36,5.7z M69.7,47.3l-11.5-7.7h-7.1L63.4,49H50.6
		c-0.4,0-0.7,0.2-0.9,0.5l-2.9,8.1H25.2l-2.9-8.1c-0.2-0.3-0.5-0.5-0.9-0.5H8.6l12.3-9.4h-7.1L2.3,47.3c-1.7,1-2.7,3.4-2.3,5.2
		l2,11.1C2.5,65.5,4.5,67,6.6,67h58.8c2,0,4.1-1.5,4.5-3.4l2-11.1C72.4,50.7,71.4,48.3,69.7,47.3z"/>
</g>
</svg>
