<?xml version="1.0" encoding="utf-8"?>
<!-- Generator: Adobe Illustrator 19.2.1, SVG Export Plug-In . SVG Version: 6.00 Build 0)  -->
<!DOCTYPE svg PUBLIC "-//W3C//DTD SVG 1.1//EN" "http://www.w3.org/Graphics/SVG/1.1/DTD/svg11.dtd">
<svg version="1.1" id="レイヤー_1" xmlns="http://www.w3.org/2000/svg" xmlns:xlink="http://www.w3.org/1999/xlink" x="0px"
	 y="0px" width="72px" height="72px" viewBox="0 0 72 72" enable-background="new 0 0 72 72" xml:space="preserve">
<g>
	<path fill="#040000" d="M40.7,10.4c-1.1-3.3-4.2-5.7-7.8-5.7s-6.8,2.4-7.8,5.7H0v5.2h25c1.1,3.3,4.2,5.7,7.8,5.7s6.8-2.4,7.8-5.7
		H72v-5.2H40.7z"/>
	<path fill="#040000" d="M19.1,50.7c-3.7,0-6.8,2.4-7.8,5.7H0v5.2h11.3c1.1,3.3,4.2,5.7,7.8,5.7s6.8-2.4,7.8-5.7h45v-5.2H27
		C25.9,53.1,22.8,50.7,19.1,50.7z"/>
	<path fill="#040000" d="M52.4,27.7c-3.7,0-6.8,2.4-7.8,5.7H0v5.2h44.6c1.1,3.3,4.2,5.7,7.8,5.7s6.8-2.4,7.8-5.7H72v-5.2H60.3
		C59.2,30.1,56.1,27.7,52.4,27.7z"/>
</g>
</svg>
