<?xml version="1.0" encoding="utf-8"?>
<!-- Generator: Adobe Illustrator 19.2.1, SVG Export Plug-In . SVG Version: 6.00 Build 0)  -->
<!DOCTYPE svg PUBLIC "-//W3C//DTD SVG 1.1//EN" "http://www.w3.org/Graphics/SVG/1.1/DTD/svg11.dtd">
<svg version="1.1" id="レイヤー_1" xmlns="http://www.w3.org/2000/svg" xmlns:xlink="http://www.w3.org/1999/xlink" x="0px"
	 y="0px" width="72px" height="72px" viewBox="0 0 72 72" enable-background="new 0 0 72 72" xml:space="preserve">
<g>
	<path d="M16.7,52.6L16.7,52.6c0-1.2,0.5-4.8,5.9-8c1-1.3,1.8-3.1,2.6-5.2c0.6-1.4,0.5-2.7,0.5-4.4c0-1.3,0.2-3.4-0.1-4.5
		c-1.1-3.9-3.8-4.9-7-4.9c-3.2,0-6,1.1-7,4.9c-0.3,1.1-0.1,3.2-0.1,4.5c0,1.8-0.1,3,0.5,4.4c1,2.5,1.9,4.6,3.2,6
		c-4.9,0.9-8.2,3.4-10.4,4.4C0,51.8,0,54.1,0,54.1v3.8l16.7,0V52.6L16.7,52.6z"/>
	<path d="M65.2,46.7c-3.1-1.4-7.6-4.9-14.4-6.1c1.7-1.9,3-4.7,4.4-8.2c0.8-2,0.6-3.7,0.6-6.1c0-1.8,0.3-4.6-0.1-6.2
		c-1.5-5.3-5.3-6.8-9.7-6.8c-4.4,0-8.2,1.5-9.7,6.8c-0.4,1.6-0.1,4.4-0.1,6.2c0,2.4-0.1,4.1,0.7,6.1c1.4,3.4,2.6,6.3,4.4,8.2
		c-6.7,1.2-11.2,4.7-14.3,6.1c-6.3,2.8-6.4,5.9-6.4,5.9v5.2l51,0v-5.2C71.6,52.7,71.6,49.6,65.2,46.7z"/>
</g>
</svg>
