<?xml version="1.0" encoding="utf-8"?>
<!-- Generator: Adobe Illustrator 19.2.1, SVG Export Plug-In . SVG Version: 6.00 Build 0)  -->
<!DOCTYPE svg PUBLIC "-//W3C//DTD SVG 1.1//EN" "http://www.w3.org/Graphics/SVG/1.1/DTD/svg11.dtd">
<svg version="1.1" id="レイヤー_1" xmlns="http://www.w3.org/2000/svg" xmlns:xlink="http://www.w3.org/1999/xlink" x="0px"
	 y="0px" width="72px" height="72px" viewBox="0 0 72 72" enable-background="new 0 0 72 72" xml:space="preserve">
<g>
	<path d="M49.6,27.8c-0.2-0.4-0.5-0.8-0.9-1c-0.4-0.3-1-0.4-1.8-0.4h-2.1v9.7h2c0.8,0,1.5-0.1,1.9-0.4s0.8-0.6,1-1
		c0.2-0.4,0.3-0.9,0.4-1.5c0-0.6,0.1-1.2,0.1-2c0-0.7,0-1.3-0.1-1.9C49.9,28.8,49.8,28.2,49.6,27.8z"/>
	<path d="M0,17.2v39.3h71.9V17.2H0z M29.9,25.8l-7.8,21.4h7.8V51H17.8v-3.6l7.7-21h-7.3v-3.8h11.7V25.8z M36.6,51h-4.1V22.5h4.1V51z
		 M53.6,34.4c-0.1,0.9-0.5,1.7-0.9,2.5c-0.6,0.9-1.3,1.7-2.2,2.2c-0.9,0.5-2.2,0.8-3.7,0.8h-2.1V51h-4.1V22.5h6.1
		c1.1,0,2.1,0.1,3,0.4c0.9,0.3,1.6,0.8,2.3,1.6c0.7,0.7,1.2,1.6,1.4,2.6c0.3,1,0.4,2.4,0.4,4.1C53.8,32.5,53.7,33.5,53.6,34.4z"/>
</g>
</svg>
