<?xml version="1.0" encoding="utf-8"?>
<!-- Generator: Adobe Illustrator 19.2.1, SVG Export Plug-In . SVG Version: 6.00 Build 0)  -->
<!DOCTYPE svg PUBLIC "-//W3C//DTD SVG 1.1//EN" "http://www.w3.org/Graphics/SVG/1.1/DTD/svg11.dtd">
<svg version="1.1" id="レイヤー_1" xmlns="http://www.w3.org/2000/svg" xmlns:xlink="http://www.w3.org/1999/xlink" x="0px"
	 y="0px" width="72px" height="72px" viewBox="0 0 72 72" enable-background="new 0 0 72 72" xml:space="preserve">
<g>
	<path fill="none" d="M33,25.6l-1.7-4.5c-0.3-0.9-3.5-8.8-13.3-8.8c-8.5,0-12,5.9-13,8.1v28.8c3.3-2.2,7.6-3.9,13-3.9
		c6.5,0,11.4,2.5,15,5.4V25.6z"/>
	<path fill="none" d="M54,12.4c-9.6,0-13.2,8.6-13.3,8.9L39,25.4v25.1c3.5-2.8,8.4-5.2,15-5.2c5.4,0,9.7,1.6,13,3.7V20.8
		C65.9,18.6,62.1,12.4,54,12.4z"/>
	<path d="M54,7.4c-13.3,0-18,12.1-18,12.1S31.9,7.4,18,7.4C4.2,7.4,0,19.5,0,19.5v43.1c0,0,5.2-12.2,18-12.2s18,12.2,18,12.2
		s4.7-12.2,18-12.2c13.3,0,18,12.2,18,12.2V19.7C72,19.7,67.3,7.4,54,7.4z M18,45.4c-5.4,0-9.7,1.7-13,3.9V20.4
		c1-2.2,4.5-8.1,13-8.1c9.8,0,12.9,7.9,13.3,8.8l1.7,4.5v25.1C29.5,47.8,24.5,45.4,18,45.4z M67,49.1c-3.3-2.1-7.6-3.7-13-3.7
		c-6.6,0-11.5,2.3-15,5.2V25.4l1.6-4.1c0.1-0.4,3.7-8.9,13.3-8.9c8.1,0,11.9,6.2,13,8.4V49.1z"/>
</g>
</svg>
