<?xml version="1.0" encoding="utf-8"?>
<!-- Generator: Adobe Illustrator 19.2.1, SVG Export Plug-In . SVG Version: 6.00 Build 0)  -->
<!DOCTYPE svg PUBLIC "-//W3C//DTD SVG 1.1//EN" "http://www.w3.org/Graphics/SVG/1.1/DTD/svg11.dtd">
<svg version="1.1" id="レイヤー_1" xmlns="http://www.w3.org/2000/svg" xmlns:xlink="http://www.w3.org/1999/xlink" x="0px"
	 y="0px" width="72px" height="72px" viewBox="0 0 72 72" enable-background="new 0 0 72 72" xml:space="preserve">
<g>
	<path d="M36,6.8c-19.8,0-35.8,16-36,35.7c0,0,0,6.8,0,9.4h7.2c0-2.6,0-9.4,0-9.5C7.5,26.7,20.3,14,36,14
		c15.8,0,28.6,12.7,28.8,28.4c0,0.1,0,6.8,0,9.4H72c0-2.6,0-9.4,0-9.4C71.8,22.8,55.8,6.8,36,6.8z"/>
	<path d="M19.8,38.3h-4.6c-1.6,0-3,1.3-3,3v21c0,1.6,1.3,3,3,3h4.6c1.6,0,3-1.3,3-3v-21C22.7,39.7,21.4,38.3,19.8,38.3z"/>
	<path d="M56.9,38.3h-4.6c-1.6,0-3,1.3-3,3v21c0,1.6,1.3,3,3,3h4.6c1.6,0,3-1.3,3-3v-21C59.9,39.7,58.6,38.3,56.9,38.3z"/>
</g>
</svg>
