<?xml version="1.0" encoding="utf-8"?>
<!-- Generator: Adobe Illustrator 19.2.1, SVG Export Plug-In . SVG Version: 6.00 Build 0)  -->
<!DOCTYPE svg PUBLIC "-//W3C//DTD SVG 1.1//EN" "http://www.w3.org/Graphics/SVG/1.1/DTD/svg11.dtd">
<svg version="1.1" id="レイヤー_1" xmlns="http://www.w3.org/2000/svg" xmlns:xlink="http://www.w3.org/1999/xlink" x="0px"
	 y="0px" width="72px" height="72px" viewBox="0 0 72 72" enable-background="new 0 0 72 72" xml:space="preserve">
<g>
	<path fill="#040000" d="M26.6,57.1l-3.7,3.6c-3.2,3.1-8.3,3.1-11.5,0c-1.5-1.5-2.4-3.5-2.4-5.6s0.8-4.1,2.4-5.6l13.5-13.3
		c2.8-2.8,8.1-6.8,11.9-3c1.8,1.7,2.7-0.1,4.5-1.8c1.7-1.7,3.6-2.8,1.8-4.5c-6.5-6.4-16.1-5.2-24.5,3L5.1,43.1c-3.2,3.2-5,7.4-5,12
		c0,4.5,1.8,8.8,5,12c3.3,3.3,7.7,4.9,12.1,4.9c4.4,0,8.7-1.6,12.1-4.9l3.7-3.6c1.8-1.7-0.2-3-1.9-4.7C29.2,57,28.4,55.4,26.6,57.1z
		 M67.5,5.4c-7-6.9-16.8-7.3-23.3-0.9l-4.6,4.5c-1.8,1.7,0,2.8,1.8,4.5c1.7,1.7,2.8,3.6,4.5,1.8l4.6-4.5c3.4-3.3,7.7-1.9,10.6,0.9
		c1.5,1.5,2.4,3.5,2.4,5.6c0,2.1-0.8,4.1-2.4,5.6L46.8,37.2c-6.6,6.5-9.7,3.4-11,2.1c-1.8-1.7-2.7,0.1-4.5,1.8
		c-1.7,1.7-3.6,2.8-1.9,4.5c3,3,6.5,4.5,10.1,4.5c4.4,0,9.1-2.2,13.5-6.6l14.4-14.2c3.2-3.2,5-7.4,5-12C72.5,12.9,70.7,8.6,67.5,5.4
		z"/>
</g>
</svg>
