<?xml version="1.0" encoding="utf-8"?>
<!-- Generator: Adobe Illustrator 19.2.1, SVG Export Plug-In . SVG Version: 6.00 Build 0)  -->
<!DOCTYPE svg PUBLIC "-//W3C//DTD SVG 1.1//EN" "http://www.w3.org/Graphics/SVG/1.1/DTD/svg11.dtd">
<svg version="1.1" id="レイヤー_1" xmlns="http://www.w3.org/2000/svg" xmlns:xlink="http://www.w3.org/1999/xlink" x="0px"
	 y="0px" width="72px" height="72px" viewBox="0 0 72 72" enable-background="new 0 0 72 72" xml:space="preserve">
<g>
	<path d="M68.4,20H49.5v-8.4c0-2-1.6-3.6-3.6-3.6H26.1c-2,0-3.6,1.6-3.6,3.6V20H3.6c-2,0-3.6,1.6-3.6,3.6v37.8c0,2,1.6,3.6,3.6,3.6
		h64.8c2,0,3.6-1.6,3.6-3.6V23.6C72,21.6,70.4,20,68.4,20z M28.5,16.6c0-2,1.6-3.6,3.6-3.6h7.8c2,0,3.6,1.6,3.6,3.6V20h-15V16.6z"/>
</g>
</svg>
