<?xml version="1.0" encoding="utf-8"?>
<!-- Generator: Adobe Illustrator 19.2.1, SVG Export Plug-In . SVG Version: 6.00 Build 0)  -->
<!DOCTYPE svg PUBLIC "-//W3C//DTD SVG 1.1//EN" "http://www.w3.org/Graphics/SVG/1.1/DTD/svg11.dtd">
<svg version="1.1" id="レイヤー_1" xmlns="http://www.w3.org/2000/svg" xmlns:xlink="http://www.w3.org/1999/xlink" x="0px"
	 y="0px" width="72px" height="72px" viewBox="0 0 72 72" enable-background="new 0 0 72 72" xml:space="preserve">
<path d="M36,0C16.1,0,0,16.1,0,36s16.1,36,36,36s36-16.1,36-36S55.9,0,36,0z M36,66c-0.8,0-3.1-1.7-5.3-6.9c-0.5-1.3-1-2.6-1.5-4.1
	h13.6c-0.4,1.5-0.9,2.8-1.5,4.1C39.1,64.3,36.8,66,36,66z M27.8,49c-0.6-3.2-0.9-6.5-1.1-10h18.6c-0.1,3.5-0.5,6.8-1.1,10H27.8z
	 M6.1,39h14.5c0.1,3.5,0.5,6.9,1,10H9C7.5,45.9,6.5,42.6,6.1,39z M36,6c0.8,0,3.1,1.7,5.3,6.9c0.5,1.3,1,2.6,1.5,4.1H29.2
	c0.4-1.5,0.9-2.8,1.5-4.1C32.9,7.7,35.2,6,36,6z M44.2,23c0.6,3.2,0.9,6.5,1.1,10H26.7c0.1-3.5,0.5-6.8,1.1-10H44.2z M20.7,33H6.1
	c0.4-3.6,1.3-6.9,2.8-10h12.7C21.1,26.1,20.8,29.5,20.7,33z M51.3,39h14.5c-0.4,3.6-1.3,6.9-2.8,10H50.3
	C50.9,45.9,51.2,42.5,51.3,39z M51.3,33c-0.1-3.5-0.5-6.9-1-10H63c1.5,3.1,2.5,6.4,2.8,10H51.3z M59.2,17H49.1
	c-1-3.7-2.2-6.9-3.7-9.5C50.9,9.3,55.6,12.6,59.2,17z M26.6,7.5c-1.4,2.6-2.7,5.8-3.7,9.5H12.8C16.4,12.6,21.1,9.3,26.6,7.5z
	 M12.8,55h10.1c1,3.7,2.2,6.9,3.7,9.5C21.1,62.7,16.4,59.4,12.8,55z M45.4,64.5c1.4-2.6,2.7-5.8,3.7-9.5h10.1
	C55.6,59.4,50.9,62.7,45.4,64.5z"/>
</svg>
