<?xml version="1.0" encoding="utf-8"?>
<!-- Generator: Adobe Illustrator 19.2.1, SVG Export Plug-In . SVG Version: 6.00 Build 0)  -->
<!DOCTYPE svg PUBLIC "-//W3C//DTD SVG 1.1//EN" "http://www.w3.org/Graphics/SVG/1.1/DTD/svg11.dtd">
<svg version="1.1" id="レイヤー_1" xmlns="http://www.w3.org/2000/svg" xmlns:xlink="http://www.w3.org/1999/xlink" x="0px"
	 y="0px" width="72px" height="72px" viewBox="0 0 72 72" enable-background="new 0 0 72 72" xml:space="preserve">
<path d="M61.2,40.2l-4.9-12.3c-0.9-2.3-2.9-4.3-6.6-4.3h-6.9v-3.2c0-1.3-0.7-1.9-1.8-1.9h-4h0h0h0h-4c-1.1,0-1.8,0.7-1.8,1.9v3.2
	h-6.9c-3.7,0-5.7,2-6.6,4.3l-4.9,12.3c-1.9,0.2-5.3,2.5-5.3,6.6v15.6h4.7v5c0,6.1,8.9,6.1,8.9,0v-5H37h0h0h0H53v5
	c0,6.1,8.9,6.1,8.9,0v-5h4.7V46.8C66.5,42.6,63.1,40.4,61.2,40.2z M16.8,52.9c-2.3,0-4.1-1.9-4.1-4.1c0-2.3,1.8-4.1,4.1-4.1
	c2.3,0,4.1,1.9,4.1,4.1C20.9,51,19,52.9,16.8,52.9z M37,39.9L37,39.9L37,39.9H17.8l3.7-9.5c0.5-1.4,1.1-2.3,2.7-2.4H37h0h0h12.8
	c1.6,0,2.3,1,2.7,2.4l3.7,9.5H37z M57.2,52.9c-2.3,0-4.1-1.9-4.1-4.1c0-2.3,1.8-4.1,4.1-4.1c2.3,0,4.1,1.9,4.1,4.1
	C61.3,51,59.5,52.9,57.2,52.9z"/>
</svg>
