<?xml version="1.0" encoding="utf-8"?>
<!-- Generator: Adobe Illustrator 19.2.1, SVG Export Plug-In . SVG Version: 6.00 Build 0)  -->
<!DOCTYPE svg PUBLIC "-//W3C//DTD SVG 1.1//EN" "http://www.w3.org/Graphics/SVG/1.1/DTD/svg11.dtd">
<svg version="1.1" id="レイヤー_1" xmlns="http://www.w3.org/2000/svg" xmlns:xlink="http://www.w3.org/1999/xlink" x="0px"
	 y="0px" width="72px" height="72px" viewBox="0 0 72 72" enable-background="new 0 0 72 72" xml:space="preserve">
<path d="M71.9,61.2L53.3,42.7c2.4-4.2,3.8-9,3.8-14.2C57,12.8,44.3,0,28.5,0S0,12.8,0,28.5C0,44.3,12.8,57,28.5,57
	c5.2,0,10-1.4,14.2-3.8l18.6,18.6L71.9,61.2z M28.5,44C20,44,13,37.1,13,28.5C13,20,20,13,28.5,13S44,20,44,28.5
	C44,37.1,37.1,44,28.5,44z"/>
</svg>
