<?xml version="1.0" encoding="utf-8"?>
<!-- Generator: Adobe Illustrator 19.2.1, SVG Export Plug-In . SVG Version: 6.00 Build 0)  -->
<!DOCTYPE svg PUBLIC "-//W3C//DTD SVG 1.1//EN" "http://www.w3.org/Graphics/SVG/1.1/DTD/svg11.dtd">
<svg version="1.1" id="レイヤー_1" xmlns="http://www.w3.org/2000/svg" xmlns:xlink="http://www.w3.org/1999/xlink" x="0px"
	 y="0px" width="72px" height="72px" viewBox="0 0 72 72" enable-background="new 0 0 72 72" xml:space="preserve">
<g>
	<polygon points="72,7.7 64.4,0 51,13.4 42.7,5 42.7,29.3 67,29.4 58.6,21 	"/>
	<polygon points="13.4,51 0,64.4 7.7,72 21,58.7 29.4,67.1 29.4,42.7 5,42.7 	"/>
	<polygon points="72,64.4 58.7,51 67.1,42.7 42.7,42.7 42.7,67 51,58.6 64.4,72 	"/>
	<polygon points="0,7.7 13.4,21 5,29.4 29.3,29.4 29.4,5 21,13.4 7.6,0.1 	"/>
</g>
</svg>
