<?xml version="1.0" encoding="utf-8"?>
<!-- Generator: Adobe Illustrator 19.2.1, SVG Export Plug-In . SVG Version: 6.00 Build 0)  -->
<!DOCTYPE svg PUBLIC "-//W3C//DTD SVG 1.1//EN" "http://www.w3.org/Graphics/SVG/1.1/DTD/svg11.dtd">
<svg version="1.1" id="レイヤー_1" xmlns="http://www.w3.org/2000/svg" xmlns:xlink="http://www.w3.org/1999/xlink" x="0px"
	 y="0px" width="72px" height="72px" viewBox="0 0 72 72" enable-background="new 0 0 72 72" xml:space="preserve">
<path fill="#040000" d="M72.1,13.3c-2.7,1.2-5.5,2-8.5,2.3c3.1-1.8,5.4-4.7,6.5-8.2c-2.9,1.7-6,2.9-9.4,3.6
	C58,8.2,54.2,6.4,49.9,6.4c-8.2,0-14.8,6.6-14.8,14.8c0,1.2,0.1,2.3,0.4,3.4C23.2,23.9,12.3,18,5,9.1c-1.3,2.2-2,4.7-2,7.4
	c0,5.1,2.6,9.7,6.6,12.3c-2.4-0.1-4.7-0.7-6.7-1.8c0,0.1,0,0.1,0,0.2c0,7.2,5.1,13.1,11.9,14.5c-1.2,0.3-2.5,0.5-3.9,0.5
	c-1,0-1.9-0.1-2.8-0.3c1.9,5.9,7.3,10.2,13.8,10.3c-5.1,4-11.4,6.3-18.4,6.3c-1.2,0-2.4-0.1-3.5-0.2C6.5,62.5,14.3,65,22.7,65
	c27.2,0,42.1-22.5,42.1-42.1c0-0.6,0-1.3,0-1.9C67.6,18.9,70.1,16.3,72.1,13.3z"/>
</svg>
