<?xml version="1.0" encoding="utf-8"?>
<!-- Generator: Adobe Illustrator 19.2.1, SVG Export Plug-In . SVG Version: 6.00 Build 0)  -->
<!DOCTYPE svg PUBLIC "-//W3C//DTD SVG 1.1//EN" "http://www.w3.org/Graphics/SVG/1.1/DTD/svg11.dtd">
<svg version="1.1" id="レイヤー_1" xmlns="http://www.w3.org/2000/svg" xmlns:xlink="http://www.w3.org/1999/xlink" x="0px"
	 y="0px" width="72px" height="72px" viewBox="0 0 72 72" enable-background="new 0 0 72 72" xml:space="preserve">
<path fill="#040000" d="M12,64.2c0,4.4,3.6,8,8,8c4.4,0,8-3.6,8-8c0-4.4-3.6-8-8-8C15.6,56.2,12,59.8,12,64.2z M52,64.2
	c0,4.4,3.6,8,8,8c4.4,0,8-3.6,8-8c0-4.4-3.6-8-8-8C55.6,56.2,52,59.8,52,64.2z M26.2,45.3l44.3-12.6c0.8-0.2,1.5-1.2,1.5-2v-22H15.6
	V1.8c0-0.9-0.7-1.6-1.6-1.6H1.6C0.7,0.2,0,0.9,0,1.8v6.4h7.8l7.9,36.2l0.8,3.8v6c0,0.9,0.7,1.6,1.6,1.6h2h40h10.4
	c0.9,0,1.6-0.7,1.6-1.6v-6H27C22.4,48.2,22.3,46.4,26.2,45.3z"/>
</svg>
