<?xml version="1.0" encoding="utf-8"?>
<!-- Generator: Adobe Illustrator 19.2.1, SVG Export Plug-In . SVG Version: 6.00 Build 0)  -->
<!DOCTYPE svg PUBLIC "-//W3C//DTD SVG 1.1//EN" "http://www.w3.org/Graphics/SVG/1.1/DTD/svg11.dtd">
<svg version="1.1" id="レイヤー_1" xmlns="http://www.w3.org/2000/svg" xmlns:xlink="http://www.w3.org/1999/xlink" x="0px"
	 y="0px" width="72px" height="72px" viewBox="0 0 72 72" enable-background="new 0 0 72 72" xml:space="preserve">
<path fill="#060304" d="M57.7,28.4c-1.8,0-3.4,0.3-5,0.9l-3.1-5.7L52,19h4.7c0.7,0,1.3-0.6,1.3-1.3c0-0.7-0.6-1.3-1.3-1.3h-8.7
	c-0.7,0-1.3,0.6-1.3,1.3c0,0.7,0.6,1.3,1.3,1.3h1L48,21.1H28.3l3.5-6.2H38c0.7,0,1.3-0.6,1.3-1.3c0-0.7-0.6-1.3-1.3-1.3h-7
	c-0.5,0-0.9,0.3-1.1,0.7l-9.4,16.7c-1.8-0.9-3.9-1.4-6.1-1.4c-7.9,0-14.3,6.4-14.3,14.3c0,7.9,6.4,14.3,14.3,14.3
	c7.9,0,14.3-6.4,14.3-14.3c0-4.8-2.4-9-6-11.6l3.6-6.5L37,43.3c0.2,0.4,0.7,0.7,1.1,0.7h5.4c0.7,7.3,6.8,13,14.2,13
	c7.9,0,14.3-6.4,14.3-14.3C71.9,34.8,65.5,28.4,57.7,28.4z M25.8,42.6c0,6.3-5.1,11.4-11.4,11.4C8.1,54,3,48.9,3,42.6
	c0-6.3,5.1-11.4,11.4-11.4c1.7,0,3.2,0.4,4.6,1L14,41.3c-0.4,0.6-0.1,1.4,0.5,1.8c0.6,0.4,1.4,0.1,1.8-0.5l5.1-9
	C24,35.7,25.8,38.9,25.8,42.6z M37.9,39.6l-9-15.9h17.7L37.9,39.6z M48.1,26.3l2.3,4.1c-3.8,2.3-6.4,6.3-6.9,10.9h-3.6L48.1,26.3z
	 M51.7,33l4.6,8.4h-10C46.8,37.8,48.8,34.7,51.7,33z M57.7,54c-5.8,0-10.6-4.4-11.3-10.1h12.2c0.5,0,0.9-0.2,1.1-0.6
	c0.2-0.4,0.2-0.9,0-1.3l-5.6-10.2c1.1-0.4,2.3-0.6,3.6-0.6c6.3,0,11.4,5.1,11.4,11.4C69,48.9,63.9,54,57.7,54z"/>
</svg>
