<?xml version="1.0" encoding="utf-8"?>
<!-- Generator: Adobe Illustrator 19.2.1, SVG Export Plug-In . SVG Version: 6.00 Build 0)  -->
<!DOCTYPE svg PUBLIC "-//W3C//DTD SVG 1.1//EN" "http://www.w3.org/Graphics/SVG/1.1/DTD/svg11.dtd">
<svg version="1.1" id="レイヤー_1" xmlns="http://www.w3.org/2000/svg" xmlns:xlink="http://www.w3.org/1999/xlink" x="0px"
	 y="0px" width="72px" height="72px" viewBox="0 0 72 72" enable-background="new 0 0 72 72" xml:space="preserve">
<path d="M65.2,19.2l-2.7-4c-0.5-0.7-1.6-1.3-2.4-1.3h-6.3V8.3c0-0.9-0.5-2-1.1-2.6l-4.6-4.6C47.5,0.5,46.3,0,45.5,0h-19
	c-0.9,0-2,0.5-2.6,1.1l-4.3,4.3C19,6,18.5,7.2,18.5,8v5.8h-6.6c-0.9,0-1.9,0.6-2.4,1.3l-2.7,4c-0.5,0.7-0.2,1.3,0.7,1.3h4.6l4,50
	c0,0.8,0.7,1.5,1.5,1.5h37.2c0.9,0,1.5-0.7,1.5-1.5l4-50h4.2C65.4,20.4,65.7,19.9,65.2,19.2z M32.5,59.8c0,0.8-0.6,1.5-1.5,1.5h-1.9
	c-0.8,0-1.5-0.7-1.5-1.6V26.3c0-0.8,0.6-1.5,1.5-1.5H31c0.8,0,1.5,0.7,1.5,1.5V59.8z M45.3,59.8c0,0.8-0.6,1.5-1.5,1.5h-1.9
	c-0.9,0-1.6-0.7-1.5-1.6V26.3c0-0.8,0.6-1.5,1.5-1.5h1.9c0.8,0,1.5,0.7,1.5,1.5V59.8z M47.3,13.5c0,0.1,0,0.2,0,0.3H24.9
	c0-0.1,0-0.2,0-0.3v-2.8c0-0.8,0.5-2,1.1-2.6l0.5-0.5c0.6-0.6,1.8-1.1,2.6-1.1h13.7c0.9,0,2,0.5,2.6,1.1l0.8,0.8
	c0.6,0.6,1.1,1.8,1.1,2.6V13.5z"/>
</svg>
