<?xml version="1.0" encoding="utf-8"?>
<!-- Generator: Adobe Illustrator 19.2.1, SVG Export Plug-In . SVG Version: 6.00 Build 0)  -->
<!DOCTYPE svg PUBLIC "-//W3C//DTD SVG 1.1//EN" "http://www.w3.org/Graphics/SVG/1.1/DTD/svg11.dtd">
<svg version="1.1" id="レイヤー_1" xmlns="http://www.w3.org/2000/svg" xmlns:xlink="http://www.w3.org/1999/xlink" x="0px"
	 y="0px" width="72px" height="72px" viewBox="0 0 72 72" enable-background="new 0 0 72 72" xml:space="preserve">
<path d="M57.1,36.6C57.1,36.6,57.1,36.6,57.1,36.6l-6.9,0l10.9,10.9L72,36.6h-6.9c0-0.1,0-0.1,0-0.2C65.2,20.3,52.1,7.2,36,7.2
	C19.9,7.2,6.8,20.3,6.8,36.4c0,16.1,13.1,29.2,29.2,29.2c9.3,0,17.6-4.4,22.9-11.1l-2.4-2.4l-3.4-3.4C49.3,54,43.1,57.5,36,57.5
	c-11.6,0-21.1-9.5-21.1-21.1c0-11.6,9.5-21.1,21.1-21.1s21.1,9.5,21.1,21.1C57.1,36.5,57.1,36.5,57.1,36.6L57.1,36.6z"/>
</svg>
