<?xml version="1.0" encoding="utf-8"?>
<!-- Generator: Adobe Illustrator 19.2.1, SVG Export Plug-In . SVG Version: 6.00 Build 0)  -->
<!DOCTYPE svg PUBLIC "-//W3C//DTD SVG 1.1//EN" "http://www.w3.org/Graphics/SVG/1.1/DTD/svg11.dtd">
<svg version="1.1" id="レイヤー_1" xmlns="http://www.w3.org/2000/svg" xmlns:xlink="http://www.w3.org/1999/xlink" x="0px"
	 y="0px" width="72px" height="72px" viewBox="0 0 72 72" enable-background="new 0 0 72 72" xml:space="preserve">
<path fill="#040000" d="M5.7,19.2c0,5.7,1.9,9.8,5.6,12.2c3.1,2,6.6,2.3,8.5,2.3c0.4,0,0.8,0,1.1,0c0,0-0.6,3.8,2.2,7.6l-0.1,0
	c-4.9,0-20.9,1-20.9,14.2c0,13.4,14.7,14.1,17.7,14.1c0.2,0,0.4,0,0.4,0c0,0,0.2,0,0.6,0c1.9,0,6.8-0.2,11.3-2.4
	c5.9-2.9,8.9-7.8,8.9-14.8c0-6.7-4.6-10.7-7.9-13.6c-2-1.8-3.8-3.3-3.8-4.8c0-1.5,1.3-2.7,2.9-4.1c2.6-2.3,5.1-5.7,5.1-12
	c0-5.6-0.7-9.3-5.2-11.6c0.5-0.2,2.1-0.4,2.9-0.5c2.4-0.3,5.9-0.7,5.9-2.7V2.5H23.4C23.2,2.5,5.7,3.1,5.7,19.2z M34,53.5
	c0.3,5.4-4.2,9.3-11.1,9.8c-7,0.5-12.7-2.6-13.1-8c-0.2-2.6,1-5.1,3.2-7.1c2.2-2,5.3-3.3,8.7-3.5c0.4,0,0.8,0,1.2,0
	C29.3,44.7,33.7,48.5,34,53.5z M29.4,15.5c1.7,6-0.9,12.4-5,13.5c-0.5,0.1-1,0.2-1.5,0.2c-3.8,0-7.5-3.8-8.9-9.1
	c-0.8-3-0.7-5.6,0.2-8.1C15,9.6,16.6,8,18.6,7.4c0.5-0.1,1-0.2,1.5-0.2C24.6,7.2,27.6,9.1,29.4,15.5z M58.9,28.7V17.3h-7.2v11.4
	H40.3v7.2h11.4v11.4h7.2V35.9h11.4v-7.2H58.9z"/>
</svg>
